<?xml version="1.0" encoding="UTF-8"?>
<svg xmlns="http://www.w3.org/2000/svg" style="stroke-dasharray:none; shape-rendering:auto; font-family:'Arial'; text-rendering:auto; fill-opacity:1; color-interpolation:auto; color-rendering:auto; font-size:12; fill:black; stroke:black; image-rendering:auto; stroke-miterlimit:10; stroke-linecap:square; stroke-linejoin:miter; font-style:normal; stroke-width:1; stroke-dashoffset:0; font-weight:normal; stroke-opacity:1;" contentScriptType="text/ecmascript" preserveAspectRatio="xMidYMid meet" zoomAndPan="magnify" version="1.0" contentStyleType="text/css" xml:xlink="http://www.w3.org/1999/xlink" width="1041" height="310"><rect x="10" y="10" width="1031" height="290" ry="0" rx="0" style="stroke:#000000; fill:#FFFFFF" /><rect x="40" y="202" width="1001" height="98" ry="0" rx="0" style="stroke:#000000; fill:#82B0B7" /><g componentSequence="4"><text x="-251" y="47" transform="rotate(270)" text-anchor="middle" style="font-weight:bold;font-size:10px;stroke:none; fill:#434343"><tspan dy="14" x="-251">GESTOR</tspan></text></g><rect x="40" y="106" width="1001" height="96" ry="0" rx="0" style="stroke:#000000; fill:#C0C0C0" /><g componentSequence="3"><text x="-154" y="47" transform="rotate(270)" text-anchor="middle" style="font-weight:bold;font-size:10px;stroke:none; fill:#434343"><tspan dy="14" x="-154">ANALISTA</tspan></text></g><rect x="40" y="10" width="1001" height="96" ry="0" rx="0" style="stroke:#000000; fill:#9F9F9F" /><g componentSequence="2"><text x="-58" y="47" transform="rotate(270)" text-anchor="middle" style="font-weight:bold;font-size:10px;stroke:none; fill:#434343"><tspan dy="14" x="-58">SOLICITANTE</tspan></text></g><g componentSequence="1"><text x="-155" y="17" transform="rotate(270)" text-anchor="middle" style="font-weight:bold;font-size:10px;stroke:none; fill:#434343"><tspan dy="14" x="-155">Pool</tspan></text></g><g sequence="4"><ellipse cx="97" cy="58" rx="17" ry="17" stroke-width="1" style="fill:url(#linearGradient66FF6696FF96B6FFB6_27729673);" stroke="336633" /></g><g sequence="5"><rect x="370" y="120" width="106" height="70" ry="5" rx="5" style="fill:url(#linearGradientF8FBFEEDF5FCDEEDFAD4E7F8E2E5E9_258011469);" stroke="191970" /></g><g componentSequence="5"><text x="423" y="135" text-anchor="middle" style="font-weight:bold;font-size:10px;stroke:none; fill:#333399"><tspan dy="14" x="423">ANALISA_RELA</tspan><tspan dy="14" x="423">TORIO</tspan></text></g><g sequence="7"><polygon points=" 560 134 590 104 620 134 590 164 560 134" style="fill:url(#linearGradientFAFBFCFFFFCC_190805113);" stroke="000000" /></g><g componentSequence="7"><text x="590" y="174" text-anchor="middle" style="font-weight:bold;font-size:10px;stroke:none; fill:#333399"><tspan dy="14" x="590">Aprovad</tspan><tspan dy="14" x="590">o</tspan></text></g><g sequence="9"><rect x="640" y="24" width="106" height="70" ry="5" rx="5" style="fill:url(#linearGradientF8FBFEEDF5FCDEEDFAD4E7F8E2E5E9_1314782070);" stroke="191970" /></g><g componentSequence="9"><text x="693" y="39" text-anchor="middle" style="font-weight:bold;font-size:10px;stroke:none; fill:#333399"><tspan dy="14" x="693">AJUSTA_RELAT</tspan><tspan dy="14" x="693">ORIO</tspan></text></g><g sequence="13"><rect x="650" y="217" width="106" height="70" ry="5" rx="5" style="fill:url(#linearGradientF8FBFEEDF5FCDEEDFAD4E7F8E2E5E9_2008808163);" stroke="191970" /></g><g componentSequence="13"><text x="703" y="232" text-anchor="middle" style="font-weight:bold;font-size:10px;stroke:none; fill:#333399"><tspan dy="14" x="703">REVISA_RELAT</tspan><tspan dy="14" x="703">ORIO</tspan></text></g><g sequence="15"><polygon points=" 820 224 850 194 880 224 850 254 820 224" style="fill:url(#linearGradientFAFBFCFFFFCC_2136577984);" stroke="000000" /></g><g componentSequence="15"><text x="850" y="264" text-anchor="middle" style="font-weight:bold;font-size:10px;stroke:none; fill:#333399"><tspan dy="14" x="850">Revisão</tspan><tspan dy="14" x="850">_Aprova</tspan><tspan dy="14" x="850">da?</tspan></text></g><g sequence="18"><ellipse cx="997" cy="251" rx="17" ry="17" stroke-width="3" style="fill:url(#linearGradientFF6666FF9696FFB6B6_257280238);" stroke="993333" /></g><g sequence="20"><rect x="220" y="24" width="106" height="70" ry="5" rx="5" style="fill:url(#linearGradientF8FBFEEDF5FCDEEDFAD4E7F8E2E5E9_779224121);" stroke="191970" /></g><g componentSequence="20"><text x="273" y="39" text-anchor="middle" style="font-weight:bold;font-size:10px;stroke:none; fill:#333399"><tspan dy="14" x="273">SALVAR_RELAT</tspan><tspan dy="14" x="273">ORIO</tspan></text></g><g sequence="22"><polygon points=" 140 134 170 104 200 134 170 164 140 134" style="fill:url(#linearGradientFAFBFCFFFFCC_104243190);" stroke="000000" /></g><g componentSequence="22"><text x="170" y="174" text-anchor="middle" style="font-weight:bold;font-size:10px;stroke:none; fill:#333399"><tspan dy="14" x="170">Exclusiv</tspan><tspan dy="14" x="170">o</tspan></text></g><g componentSequence="8"><text x="528" y="155" style="font-size:10px;font-weight:none;stroke:none; fill:#333399" text-anchor="left" /></g><g componentSequence="10"><text x="696" y="154" style="font-size:10px;font-weight:none;stroke:none; fill:#333399" text-anchor="left" /></g><g componentSequence="11"><text x="511" y="59" style="font-size:10px;font-weight:none;stroke:none; fill:#333399" text-anchor="left" /></g><g componentSequence="14"><text x="607" y="251" style="font-size:10px;font-weight:none;stroke:none; fill:#333399" text-anchor="left" /></g><g componentSequence="16"><text x="798" y="252" style="font-size:10px;font-weight:none;stroke:none; fill:#333399" text-anchor="left" /></g><g componentSequence="17"><text x="860" y="74" style="font-size:10px;font-weight:none;stroke:none; fill:#333399" text-anchor="left" /></g><g componentSequence="25"><text x="107" y="136" style="font-size:10px;font-weight:none;stroke:none; fill:#333399" text-anchor="left" /></g><g componentSequence="26"><text x="265" y="136" style="font-size:10px;font-weight:none;stroke:none; fill:#333399" text-anchor="left" /></g><g componentSequence="27"><text x="183" y="59" style="font-size:10px;font-weight:none;stroke:none; fill:#333399" text-anchor="left" /></g><g componentSequence="19"><text x="940" y="251" style="font-size:10px;font-weight:none;stroke:none; fill:#333399" text-anchor="left" /></g><g componentSequence="28"><text x="295" y="155" style="font-size:10px;font-weight:none;stroke:none; fill:#333399" text-anchor="left" /></g><path style="fill:none; stroke:#000000;stroke-width:1" d="M476.0 155.0 L559.0 155.0" /><polygon style="fill:#000000; stroke:#000000;" points=" 549 150 559 155 549 160 551 155" /><path style="fill:none; stroke:#000000;stroke-width:1" d="M639.0 59.0 L422.0 59.0 L422.0 119.0" /><polygon style="fill:#000000; stroke:#000000;" points=" 427 109 422 119 417 109 422 111" /><path style="fill:none; stroke:#000000;stroke-width:1" d="M620.0 154.0 L692.0 154.0 L692.0 94.0" /><polygon style="fill:#000000; stroke:#000000;" points=" 687 104 692 94 697 104 692 102" /><path style="fill:none; stroke:#000000;stroke-width:1" d="M589.0 206.0 L589.0 251.0 L649.0 251.0" /><polygon style="fill:#000000; stroke:#000000;" points=" 639 246 649 251 639 256 641 251" /><path style="fill:none; stroke:#000000;stroke-width:1" d="M850.0 193.0 L850.0 59.0 L750.0 59.0 L746.0 59.0" /><polygon style="fill:#000000; stroke:#000000;" points=" 756 64 746 59 756 54 754 59" /><path style="fill:none; stroke:#000000;stroke-width:1" d="M756.0 252.0 L819.0 252.0" /><polygon style="fill:#000000; stroke:#000000;" points=" 809 247 819 252 809 257 811 252" /><path style="fill:none; stroke:#000000;stroke-width:1" d="M880.0 251.0 L980.0 251.0" /><polygon style="fill:#000000; stroke:#000000;" points=" 970 246 980 251 970 256 972 251" /><path style="fill:none; stroke:#000000;stroke-width:1" d="M97.0 76.0 L97.0 154.0 L139.0 154.0" /><polygon style="fill:#000000; stroke:#000000;" points=" 129 149 139 154 129 159 131 154" /><path style="fill:none; stroke:#000000;stroke-width:1" d="M200.0 148.0 L272.0 132.0 L272.0 94.0" /><polygon style="fill:#000000; stroke:#000000;" points=" 267 104 272 94 277 104 272 102" /><path style="fill:none; stroke:#000000;stroke-width:1" d="M219.0 59.0 L170.0 59.0 L170.0 103.0" /><polygon style="fill:#000000; stroke:#000000;" points=" 175 93 170 103 165 93 170 95" /><path style="fill:none; stroke:#000000;stroke-width:1" d="M200.0 155.0 L369.0 155.0" /><polygon style="fill:#000000; stroke:#000000;" points=" 359 150 369 155 359 160 361 155" /><defs><linearGradient xmlns:xlink="http://www.w3.org/1999/xlink" xlink:href="#linearGradient66FF6696FF96B6FFB6" id="linearGradient66FF6696FF96B6FFB6_27729673" x1="0" y1="41.0" x2="0" y2="76.0" gradientUnits="userSpaceOnUse" xlink:type="simple" xlink:actuate="onLoad" xlink:show="other" /><linearGradient id="linearGradient66FF6696FF96B6FFB6"><stop style="stop-color:#66FF66;stop-opacity:1;" offset="0.0" id="stop66FF66" /><stop style="stop-color:#96FF96;stop-opacity:1;" offset="0.5" id="stop96FF96" /><stop style="stop-color:#B6FFB6;stop-opacity:1;" offset="1.0" id="stopB6FFB6" /></linearGradient><linearGradient xmlns:xlink="http://www.w3.org/1999/xlink" xlink:href="#linearGradientF8FBFEEDF5FCDEEDFAD4E7F8E2E5E9" id="linearGradientF8FBFEEDF5FCDEEDFAD4E7F8E2E5E9_258011469" x1="0" y1="120.0" x2="0" y2="226.0" gradientUnits="userSpaceOnUse" xlink:type="simple" xlink:actuate="onLoad" xlink:show="other" /><linearGradient id="linearGradientF8FBFEEDF5FCDEEDFAD4E7F8E2E5E9"><stop style="stop-color:#F8FBFE;stop-opacity:1;" offset="0.0" id="stopF8FBFE" /><stop style="stop-color:#EDF5FC;stop-opacity:1;" offset="0.25" id="stopEDF5FC" /><stop style="stop-color:#DEEDFA;stop-opacity:1;" offset="0.5" id="stopDEEDFA" /><stop style="stop-color:#D4E7F8;stop-opacity:1;" offset="0.75" id="stopD4E7F8" /><stop style="stop-color:#E2E5E9;stop-opacity:1;" offset="1.0" id="stopE2E5E9" /></linearGradient><linearGradient xmlns:xlink="http://www.w3.org/1999/xlink" xlink:href="#linearGradientFAFBFCFFFFCC" id="linearGradientFAFBFCFFFFCC_190805113" x1="0" y1="104.0" x2="0" y2="164.0" gradientUnits="userSpaceOnUse" xlink:type="simple" xlink:actuate="onLoad" xlink:show="other" /><linearGradient id="linearGradientFAFBFCFFFFCC"><stop style="stop-color:#FAFBFC;stop-opacity:1;" offset="0.0" id="stopFAFBFC" /><stop style="stop-color:#FFFFCC;stop-opacity:1;" offset="1.0" id="stopFFFFCC" /></linearGradient><linearGradient xmlns:xlink="http://www.w3.org/1999/xlink" xlink:href="#linearGradientF8FBFEEDF5FCDEEDFAD4E7F8E2E5E9" id="linearGradientF8FBFEEDF5FCDEEDFAD4E7F8E2E5E9_1314782070" x1="0" y1="24.0" x2="0" y2="130.0" gradientUnits="userSpaceOnUse" xlink:type="simple" xlink:actuate="onLoad" xlink:show="other" /><linearGradient xmlns:xlink="http://www.w3.org/1999/xlink" xlink:href="#linearGradientF8FBFEEDF5FCDEEDFAD4E7F8E2E5E9" id="linearGradientF8FBFEEDF5FCDEEDFAD4E7F8E2E5E9_2008808163" x1="0" y1="217.0" x2="0" y2="323.0" gradientUnits="userSpaceOnUse" xlink:type="simple" xlink:actuate="onLoad" xlink:show="other" /><linearGradient xmlns:xlink="http://www.w3.org/1999/xlink" xlink:href="#linearGradientFAFBFCFFFFCC" id="linearGradientFAFBFCFFFFCC_2136577984" x1="0" y1="194.0" x2="0" y2="254.0" gradientUnits="userSpaceOnUse" xlink:type="simple" xlink:actuate="onLoad" xlink:show="other" /><linearGradient xmlns:xlink="http://www.w3.org/1999/xlink" xlink:href="#linearGradientFF6666FF9696FFB6B6" id="linearGradientFF6666FF9696FFB6B6_257280238" x1="0" y1="234.0" x2="0" y2="269.0" gradientUnits="userSpaceOnUse" xlink:type="simple" xlink:actuate="onLoad" xlink:show="other" /><linearGradient id="linearGradientFF6666FF9696FFB6B6"><stop style="stop-color:#FF6666;stop-opacity:1;" offset="0.0" id="stopFF6666" /><stop style="stop-color:#FF9696;stop-opacity:1;" offset="0.5" id="stopFF9696" /><stop style="stop-color:#FFB6B6;stop-opacity:1;" offset="1.0" id="stopFFB6B6" /></linearGradient><linearGradient xmlns:xlink="http://www.w3.org/1999/xlink" xlink:href="#linearGradientF8FBFEEDF5FCDEEDFAD4E7F8E2E5E9" id="linearGradientF8FBFEEDF5FCDEEDFAD4E7F8E2E5E9_779224121" x1="0" y1="24.0" x2="0" y2="130.0" gradientUnits="userSpaceOnUse" xlink:type="simple" xlink:actuate="onLoad" xlink:show="other" /><linearGradient xmlns:xlink="http://www.w3.org/1999/xlink" xlink:href="#linearGradientFAFBFCFFFFCC" id="linearGradientFAFBFCFFFFCC_104243190" x1="0" y1="104.0" x2="0" y2="164.0" gradientUnits="userSpaceOnUse" xlink:type="simple" xlink:actuate="onLoad" xlink:show="other" /></defs></svg>
