<?xml version="1.0" encoding="UTF-8"?>
<svg xmlns="http://www.w3.org/2000/svg" style="stroke-dasharray:none; shape-rendering:auto; font-family:'Arial'; text-rendering:auto; fill-opacity:1; color-interpolation:auto; color-rendering:auto; font-size:12; fill:black; stroke:black; image-rendering:auto; stroke-miterlimit:10; stroke-linecap:square; stroke-linejoin:miter; font-style:normal; stroke-width:1; stroke-dashoffset:0; font-weight:normal; stroke-opacity:1;" contentScriptType="text/ecmascript" preserveAspectRatio="xMidYMid meet" zoomAndPan="magnify" version="1.0" contentStyleType="text/css" xml:xlink="http://www.w3.org/1999/xlink" width="1111" height="321"><rect x="10" y="10" width="1101" height="311" ry="0" rx="0" style="stroke:#000000; fill:#FFFFFF" /><rect x="40" y="216" width="1071" height="105" ry="0" rx="0" style="stroke:#000000; fill:#82B0B7" /><g componentSequence="7"><text x="-268" y="47" transform="rotate(270)" text-anchor="middle" style="font-weight:bold;font-size:10px;stroke:none; fill:#434343"><tspan dy="14" x="-268">Financeiro</tspan></text></g><rect x="40" y="113" width="1071" height="103" ry="0" rx="0" style="stroke:#000000; fill:#C0C0C0" /><g componentSequence="3"><text x="-164" y="47" transform="rotate(270)" text-anchor="middle" style="font-weight:bold;font-size:10px;stroke:none; fill:#434343"><tspan dy="14" x="-164">Gerente</tspan></text></g><rect x="40" y="10" width="1071" height="103" ry="0" rx="0" style="stroke:#000000; fill:#9F9F9F" /><g componentSequence="2"><text x="-61" y="47" transform="rotate(270)" text-anchor="middle" style="font-weight:bold;font-size:10px;stroke:none; fill:#434343"><tspan dy="14" x="-61">Solicitante</tspan></text></g><g componentSequence="1"><text x="-165" y="17" transform="rotate(270)" text-anchor="middle" style="font-weight:bold;font-size:10px;stroke:none; fill:#434343"><tspan dy="14" x="-165">Pool</tspan></text></g><g sequence="4"><ellipse cx="127" cy="83" rx="17" ry="17" stroke-width="1" style="fill:url(#linearGradient66FF6696FF96B6FFB6_296389726);" stroke="336633" /></g><g sequence="5"><rect x="250" y="131" width="106" height="70" ry="5" rx="5" style="fill:url(#linearGradientF8FBFEEDF5FCDEEDFAD4E7F8E2E5E9_527261723);" stroke="191970" /></g><g componentSequence="5"><text x="303" y="146" text-anchor="middle" style="font-weight:bold;font-size:10px;stroke:none; fill:#333399"><tspan dy="14" x="303">Analisa</tspan><tspan dy="14" x="303">Reembolso</tspan></text></g><g sequence="9"><rect x="390" y="28" width="106" height="70" ry="5" rx="5" style="fill:url(#linearGradientF8FBFEEDF5FCDEEDFAD4E7F8E2E5E9_458417966);" stroke="191970" /></g><g componentSequence="9"><text x="443" y="43" text-anchor="middle" style="font-weight:bold;font-size:10px;stroke:none; fill:#333399"><tspan dy="14" x="443">Ajusta</tspan><tspan dy="14" x="443">Reembolso</tspan></text></g><g sequence="12"><rect x="373" y="240" width="106" height="70" ry="5" rx="5" style="fill:url(#linearGradientF8FBFEEDF5FCDEEDFAD4E7F8E2E5E9_1582328352);" stroke="191970" /></g><g componentSequence="12"><text x="426" y="255" text-anchor="middle" style="font-weight:bold;font-size:10px;stroke:none; fill:#333399"><tspan dy="14" x="426">Pagamento</tspan><tspan dy="14" x="426">Reembolso</tspan></text></g><g sequence="14"><rect x="590" y="35" width="106" height="70" ry="5" rx="5" style="fill:url(#linearGradientF8FBFEEDF5FCDEEDFAD4E7F8E2E5E9_459134408);" stroke="191970" /></g><g componentSequence="14"><text x="643" y="50" text-anchor="middle" style="font-weight:bold;font-size:10px;stroke:none; fill:#333399"><tspan dy="14" x="643">Confirma</tspan><tspan dy="14" x="643">Reembolso</tspan></text></g><g sequence="16"><polygon points=" 790 42 820 12 850 42 820 72 790 42" style="fill:url(#linearGradientFAFBFCFFFFCC_1866732288);" stroke="000000" /></g><g componentSequence="16"><text x="820" y="82" text-anchor="middle" style="font-weight:bold;font-size:10px;stroke:none; fill:#333399"><tspan dy="14" x="820">Pagamen</tspan><tspan dy="14" x="820">to</tspan><tspan dy="14" x="820">Rece...</tspan></text></g><g sequence="18"><ellipse cx="957" cy="62" rx="17" ry="17" stroke-width="3" style="fill:url(#linearGradientFF6666FF9696FFB6B6_1671688785);" stroke="993333" /></g><g sequence="20"><rect x="770" y="228" width="106" height="84" ry="5" rx="5" style="fill:url(#linearGradientF8FBFEEDF5FCDEEDFAD4E7F8E2E5E9_1048548719);" stroke="191970" /></g><g componentSequence="20"><text x="823" y="243" text-anchor="middle" style="font-weight:bold;font-size:10px;stroke:none; fill:#333399"><tspan dy="14" x="823">Analisa não</tspan><tspan dy="14" x="823">Pagamento do</tspan><tspan dy="14" x="823">Reembolso</tspan></text></g><g sequence="23"><polygon points=" 480 145 510 115 540 145 510 175 480 145" style="fill:url(#linearGradientFAFBFCFFFFCC_1274668285);" stroke="000000" /></g><g componentSequence="23"><text x="510" y="185" text-anchor="middle" style="font-weight:bold;font-size:10px;stroke:none; fill:#333399"><tspan dy="14" x="510">Aprovad</tspan><tspan dy="14" x="510">o?</tspan></text></g><g componentSequence="8"><text x="166" y="165" style="font-size:10px;font-weight:none;stroke:none; fill:#333399" text-anchor="left" /></g><g componentSequence="11"><text x="323" y="63" style="font-size:10px;font-weight:none;stroke:none; fill:#333399" text-anchor="left" /></g><g componentSequence="15"><text x="652" y="271" style="font-size:10px;font-weight:none;stroke:none; fill:#333399" text-anchor="left" /></g><g componentSequence="17"><text x="753" y="70" style="font-size:10px;font-weight:none;stroke:none; fill:#333399" text-anchor="left" /></g><g componentSequence="19"><text x="905" y="66" style="font-size:10px;font-weight:none;stroke:none; fill:#333399" text-anchor="left" /></g><g componentSequence="21"><text x="832" y="178" style="font-size:10px;font-weight:none;stroke:none; fill:#333399" text-anchor="left" /></g><g componentSequence="22"><text x="652" y="251" style="font-size:10px;font-weight:none;stroke:none; fill:#333399" text-anchor="left" /></g><g componentSequence="24"><text x="428" y="166" style="font-size:10px;font-weight:none;stroke:none; fill:#333399" text-anchor="left" /></g><g componentSequence="25"><text x="483" y="108" style="font-size:10px;font-weight:none;stroke:none; fill:#333399" text-anchor="left" /></g><g componentSequence="26"><text x="476" y="222" style="font-size:10px;font-weight:none;stroke:none; fill:#333399" text-anchor="left" /></g><path style="fill:none; stroke:#000000;stroke-width:1" d="M127.0 101.0 L127.0 165.0 L249.0 165.0" /><polygon style="fill:#000000; stroke:#000000;" points=" 239 160 249 165 239 170 241 165" /><path style="fill:none; stroke:#000000;stroke-width:1" d="M356.0 166.0 L479.0 166.0" /><polygon style="fill:#000000; stroke:#000000;" points=" 469 161 479 166 469 171 471 166" /><path style="fill:none; stroke:#000000;stroke-width:1" d="M389.0 63.0 L303.0 63.0 L303.0 130.0" /><polygon style="fill:#000000; stroke:#000000;" points=" 308 120 303 130 298 120 303 122" /><path style="fill:none; stroke:#000000;stroke-width:1" d="M479.0 118.0 L466.0 98.0" /><polygon style="fill:#000000; stroke:#000000;" points=" 467 109 466 98 476 104 470 105" /><path style="fill:none; stroke:#000000;stroke-width:1" d="M479.0 274.0 L642.0 274.0 L642.0 105.0" /><polygon style="fill:#000000; stroke:#000000;" points=" 637 115 642 105 647 115 642 113" /><path style="fill:none; stroke:#000000;stroke-width:1" d="M479.0 205.0 L453.0 239.0" /><polygon style="fill:#000000; stroke:#000000;" points=" 463 234 453 239 455 228 458 233" /><path style="fill:none; stroke:#000000;stroke-width:1" d="M696.0 70.0 L789.0 70.0" /><polygon style="fill:#000000; stroke:#000000;" points=" 779 65 789 70 779 75 781 70" /><path style="fill:none; stroke:#000000;stroke-width:1" d="M769.0 270.0 L729.0 270.0 L694.0 270.0 L642.0 269.0 L642.0 105.0" /><polygon style="fill:#000000; stroke:#000000;" points=" 637 115 642 105 647 115 642 113" /><path style="fill:none; stroke:#000000;stroke-width:1" d="M850.0 68.0 L940.0 63.0" /><polygon style="fill:#000000; stroke:#000000;" points=" 930 59 940 63 930 69 932 63" /><path style="fill:none; stroke:#000000;stroke-width:1" d="M821.0 128.0 L822.0 227.0" /><polygon style="fill:#000000; stroke:#000000;" points=" 827 217 822 227 817 217 822 219" /><defs><linearGradient xmlns:xlink="http://www.w3.org/1999/xlink" xlink:href="#linearGradient66FF6696FF96B6FFB6" id="linearGradient66FF6696FF96B6FFB6_296389726" x1="0" y1="66.0" x2="0" y2="101.0" gradientUnits="userSpaceOnUse" xlink:type="simple" xlink:actuate="onLoad" xlink:show="other" /><linearGradient id="linearGradient66FF6696FF96B6FFB6"><stop style="stop-color:#66FF66;stop-opacity:1;" offset="0.0" id="stop66FF66" /><stop style="stop-color:#96FF96;stop-opacity:1;" offset="0.5" id="stop96FF96" /><stop style="stop-color:#B6FFB6;stop-opacity:1;" offset="1.0" id="stopB6FFB6" /></linearGradient><linearGradient xmlns:xlink="http://www.w3.org/1999/xlink" xlink:href="#linearGradientF8FBFEEDF5FCDEEDFAD4E7F8E2E5E9" id="linearGradientF8FBFEEDF5FCDEEDFAD4E7F8E2E5E9_527261723" x1="0" y1="131.0" x2="0" y2="237.0" gradientUnits="userSpaceOnUse" xlink:type="simple" xlink:actuate="onLoad" xlink:show="other" /><linearGradient id="linearGradientF8FBFEEDF5FCDEEDFAD4E7F8E2E5E9"><stop style="stop-color:#F8FBFE;stop-opacity:1;" offset="0.0" id="stopF8FBFE" /><stop style="stop-color:#EDF5FC;stop-opacity:1;" offset="0.25" id="stopEDF5FC" /><stop style="stop-color:#DEEDFA;stop-opacity:1;" offset="0.5" id="stopDEEDFA" /><stop style="stop-color:#D4E7F8;stop-opacity:1;" offset="0.75" id="stopD4E7F8" /><stop style="stop-color:#E2E5E9;stop-opacity:1;" offset="1.0" id="stopE2E5E9" /></linearGradient><linearGradient xmlns:xlink="http://www.w3.org/1999/xlink" xlink:href="#linearGradientF8FBFEEDF5FCDEEDFAD4E7F8E2E5E9" id="linearGradientF8FBFEEDF5FCDEEDFAD4E7F8E2E5E9_458417966" x1="0" y1="28.0" x2="0" y2="134.0" gradientUnits="userSpaceOnUse" xlink:type="simple" xlink:actuate="onLoad" xlink:show="other" /><linearGradient xmlns:xlink="http://www.w3.org/1999/xlink" xlink:href="#linearGradientF8FBFEEDF5FCDEEDFAD4E7F8E2E5E9" id="linearGradientF8FBFEEDF5FCDEEDFAD4E7F8E2E5E9_1582328352" x1="0" y1="240.0" x2="0" y2="346.0" gradientUnits="userSpaceOnUse" xlink:type="simple" xlink:actuate="onLoad" xlink:show="other" /><linearGradient xmlns:xlink="http://www.w3.org/1999/xlink" xlink:href="#linearGradientF8FBFEEDF5FCDEEDFAD4E7F8E2E5E9" id="linearGradientF8FBFEEDF5FCDEEDFAD4E7F8E2E5E9_459134408" x1="0" y1="35.0" x2="0" y2="141.0" gradientUnits="userSpaceOnUse" xlink:type="simple" xlink:actuate="onLoad" xlink:show="other" /><linearGradient xmlns:xlink="http://www.w3.org/1999/xlink" xlink:href="#linearGradientFAFBFCFFFFCC" id="linearGradientFAFBFCFFFFCC_1866732288" x1="0" y1="12.0" x2="0" y2="72.0" gradientUnits="userSpaceOnUse" xlink:type="simple" xlink:actuate="onLoad" xlink:show="other" /><linearGradient id="linearGradientFAFBFCFFFFCC"><stop style="stop-color:#FAFBFC;stop-opacity:1;" offset="0.0" id="stopFAFBFC" /><stop style="stop-color:#FFFFCC;stop-opacity:1;" offset="1.0" id="stopFFFFCC" /></linearGradient><linearGradient xmlns:xlink="http://www.w3.org/1999/xlink" xlink:href="#linearGradientFF6666FF9696FFB6B6" id="linearGradientFF6666FF9696FFB6B6_1671688785" x1="0" y1="45.0" x2="0" y2="80.0" gradientUnits="userSpaceOnUse" xlink:type="simple" xlink:actuate="onLoad" xlink:show="other" /><linearGradient id="linearGradientFF6666FF9696FFB6B6"><stop style="stop-color:#FF6666;stop-opacity:1;" offset="0.0" id="stopFF6666" /><stop style="stop-color:#FF9696;stop-opacity:1;" offset="0.5" id="stopFF9696" /><stop style="stop-color:#FFB6B6;stop-opacity:1;" offset="1.0" id="stopFFB6B6" /></linearGradient><linearGradient xmlns:xlink="http://www.w3.org/1999/xlink" xlink:href="#linearGradientF8FBFEEDF5FCDEEDFAD4E7F8E2E5E9" id="linearGradientF8FBFEEDF5FCDEEDFAD4E7F8E2E5E9_1048548719" x1="0" y1="228.0" x2="0" y2="334.0" gradientUnits="userSpaceOnUse" xlink:type="simple" xlink:actuate="onLoad" xlink:show="other" /><linearGradient xmlns:xlink="http://www.w3.org/1999/xlink" xlink:href="#linearGradientFAFBFCFFFFCC" id="linearGradientFAFBFCFFFFCC_1274668285" x1="0" y1="115.0" x2="0" y2="175.0" gradientUnits="userSpaceOnUse" xlink:type="simple" xlink:actuate="onLoad" xlink:show="other" /></defs></svg>
