<?xml version="1.0" encoding="UTF-8"?>
<svg xmlns="http://www.w3.org/2000/svg" style="stroke-dasharray:none; shape-rendering:auto; font-family:'Arial'; text-rendering:auto; fill-opacity:1; color-interpolation:auto; color-rendering:auto; font-size:12; fill:black; stroke:black; image-rendering:auto; stroke-miterlimit:10; stroke-linecap:square; stroke-linejoin:miter; font-style:normal; stroke-width:1; stroke-dashoffset:0; font-weight:normal; stroke-opacity:1;" contentScriptType="text/ecmascript" preserveAspectRatio="xMidYMid meet" zoomAndPan="magnify" version="1.0" contentStyleType="text/css" xml:xlink="http://www.w3.org/1999/xlink" width="841" height="516"><rect x="10" y="10" width="831" height="491" ry="0" rx="0" style="stroke:#000000; fill:#FFFFFF" /><rect x="40" y="336" width="801" height="165" ry="0" rx="0" style="stroke:#000000; fill:#82B0B7" /><g componentSequence="4"><text x="-418" y="47" transform="rotate(270)" text-anchor="middle" style="font-weight:bold;font-size:10px;stroke:none; fill:#434343"><tspan dy="14" x="-418">Gestor Comercial</tspan></text></g><rect x="40" y="173" width="801" height="163" ry="0" rx="0" style="stroke:#000000; fill:#C0C0C0" /><g componentSequence="3"><text x="-254" y="47" transform="rotate(270)" text-anchor="middle" style="font-weight:bold;font-size:10px;stroke:none; fill:#434343"><tspan dy="14" x="-254">Gestor Territorial</tspan></text></g><rect x="40" y="10" width="801" height="163" ry="0" rx="0" style="stroke:#000000; fill:#9F9F9F" /><g componentSequence="2"><text x="-91" y="47" transform="rotate(270)" text-anchor="middle" style="font-weight:bold;font-size:10px;stroke:none; fill:#434343"><tspan dy="14" x="-91">Representante</tspan></text></g><g componentSequence="1"><text x="-255" y="17" transform="rotate(270)" text-anchor="middle" style="font-weight:bold;font-size:10px;stroke:none; fill:#434343"><tspan dy="14" x="-255">Pool</tspan></text></g><g sequence="4"><ellipse cx="87" cy="257" rx="17" ry="17" stroke-width="1" style="fill:url(#linearGradient66FF6696FF96B6FFB6_2145361200);" stroke="336633" /></g><g sequence="5"><rect x="280" y="50" width="106" height="56" ry="5" rx="5" style="fill:url(#linearGradientF8FBFEEDF5FCDEEDFAD4E7F8E2E5E9_1897430203);" stroke="191970" /></g><g componentSequence="5"><text x="333" y="67" text-anchor="middle" style="font-weight:bold;font-size:10px;stroke:none; fill:#333399"><tspan dy="14" x="333">Representante</tspan></text></g><g sequence="8"><polygon points=" 150 240 180 210 210 240 180 270 150 240" style="fill:url(#linearGradientFAFBFCFFFFCC_1965553216);" stroke="000000" /></g><g componentSequence="8"><text x="180" y="280" text-anchor="middle" style="font-weight:bold;font-size:10px;stroke:none; fill:#333399"><tspan dy="14" x="180">Encamin</tspan><tspan dy="14" x="180">har</tspan><tspan dy="14" x="180">Ativi...</tspan></text></g><g sequence="11"><rect x="270" y="222" width="106" height="70" ry="5" rx="5" style="fill:url(#linearGradientF8FBFEEDF5FCDEEDFAD4E7F8E2E5E9_807761536);" stroke="191970" /></g><g componentSequence="11"><text x="323" y="246" text-anchor="middle" style="font-weight:bold;font-size:10px;stroke:none; fill:#333399"><tspan dy="14" x="323">Gestor Territorial</tspan></text></g><g sequence="13"><rect x="260" y="430" width="106" height="70" ry="5" rx="5" style="fill:url(#linearGradientF8FBFEEDF5FCDEEDFAD4E7F8E2E5E9_856710057);" stroke="191970" /></g><g componentSequence="13"><text x="313" y="445" text-anchor="middle" style="font-weight:bold;font-size:10px;stroke:none; fill:#333399"><tspan dy="14" x="313">Gestor</tspan><tspan dy="14" x="313">Comercial</tspan></text></g><g sequence="16"><polygon points=" 560 236 590 206 620 236 590 266 560 236" style="fill:url(#linearGradientFAFBFCFFFFCC_23004372);" stroke="000000" /></g><g componentSequence="16"><text x="590" y="276" text-anchor="middle" style="font-weight:bold;font-size:10px;stroke:none; fill:#333399"><tspan dy="14" x="590">Encamin</tspan><tspan dy="14" x="590">har</tspan><tspan dy="14" x="590">Ativi...</tspan></text></g><g sequence="20"><polygon points=" 550 430 580 400 610 430 580 460 550 430" style="fill:url(#linearGradientFAFBFCFFFFCC_1266710345);" stroke="000000" /></g><g componentSequence="20"><text x="580" y="470" text-anchor="middle" style="font-weight:bold;font-size:10px;stroke:none; fill:#333399"><tspan dy="14" x="580">Encamin</tspan><tspan dy="14" x="580">har</tspan><tspan dy="14" x="580">Ativi...</tspan></text></g><g sequence="24"><ellipse cx="747" cy="256" rx="17" ry="17" stroke-width="3" style="fill:url(#linearGradientFF6666FF9696FFB6B6_1342867919);" stroke="993333" /></g><g sequence="26"><polygon points=" 520 60 550 30 580 60 550 90 520 60" style="fill:url(#linearGradientFAFBFCFFFFCC_1635143028);" stroke="000000" /></g><g componentSequence="26"><text x="550" y="100" text-anchor="middle" style="font-weight:bold;font-size:10px;stroke:none; fill:#333399"><tspan dy="14" x="550">Encamin</tspan><tspan dy="14" x="550">har</tspan><tspan dy="14" x="550">Ativi...</tspan></text></g><g componentSequence="9"><text x="137" y="262" style="font-size:10px;font-weight:none;stroke:none; fill:#333399" text-anchor="left"><tspan dy="14" x="137">Início</tspan></text></g><g componentSequence="10"><text x="270" y="168" style="font-size:10px;font-weight:none;stroke:none; fill:#333399" text-anchor="left" /></g><g componentSequence="12"><text x="250" y="263" style="font-size:10px;font-weight:none;stroke:none; fill:#333399" text-anchor="left" /></g><g componentSequence="14"><text x="259" y="371" style="font-size:10px;font-weight:none;stroke:none; fill:#333399" text-anchor="left" /></g><g componentSequence="17"><text x="478" y="261" style="font-size:10px;font-weight:none;stroke:none; fill:#333399" text-anchor="left" /></g><g componentSequence="18"><text x="471" y="358" style="font-size:10px;font-weight:none;stroke:none; fill:#333399" text-anchor="left" /></g><g componentSequence="19"><text x="476" y="174" style="font-size:10px;font-weight:none;stroke:none; fill:#333399" text-anchor="left" /></g><g componentSequence="21"><text x="468" y="461" style="font-size:10px;font-weight:none;stroke:none; fill:#333399" text-anchor="left" /></g><g componentSequence="22"><text x="469" y="363" style="font-size:10px;font-weight:none;stroke:none; fill:#333399" text-anchor="left" /></g><g componentSequence="23"><text x="460" y="259" style="font-size:10px;font-weight:none;stroke:none; fill:#333399" text-anchor="left" /></g><g componentSequence="25"><text x="685" y="260" style="font-size:10px;font-weight:none;stroke:none; fill:#333399" text-anchor="left" /></g><g componentSequence="27"><text x="463" y="83" style="font-size:10px;font-weight:none;stroke:none; fill:#333399" text-anchor="left" /></g><g componentSequence="28"><text x="455" y="166" style="font-size:10px;font-weight:none;stroke:none; fill:#333399" text-anchor="left" /></g><g componentSequence="29"><text x="437" y="283" style="font-size:10px;font-weight:none;stroke:none; fill:#333399" text-anchor="left" /></g><g componentSequence="30"><text x="665" y="178" style="font-size:10px;font-weight:none;stroke:none; fill:#333399" text-anchor="left" /></g><g componentSequence="31"><text x="681" y="348" style="font-size:10px;font-weight:none;stroke:none; fill:#333399" text-anchor="left" /></g><g componentSequence="32"><text x="478" y="261" style="font-size:10px;font-weight:none;stroke:none; fill:#333399" text-anchor="left" /></g><g componentSequence="33"><text x="463" y="83" style="font-size:10px;font-weight:none;stroke:none; fill:#333399" text-anchor="left" /></g><g componentSequence="34"><text x="468" y="461" style="font-size:10px;font-weight:none;stroke:none; fill:#333399" text-anchor="left" /></g><path style="fill:none; stroke:#000000;stroke-width:1" d="M104.0 259.0 L149.0 264.0" /><polygon style="fill:#000000; stroke:#000000;" points=" 140 258 149 264 139 268 141 263" /><path style="fill:none; stroke:#000000;stroke-width:1" d="M386.0 80.0 L519.0 86.0" /><polygon style="fill:#000000; stroke:#000000;" points=" 509 81 519 86 509 91 511 86" /><path style="fill:none; stroke:#000000;stroke-width:1" d="M210.0 230.0 L310.0 106.0" /><polygon style="fill:#000000; stroke:#000000;" points=" 300 111 310 106 308 117 305 112" /><path style="fill:none; stroke:#000000;stroke-width:1" d="M559.0 241.0 L372.0 106.0" /><polygon style="fill:#000000; stroke:#000000;" points=" 377 116 372 106 383 108 378 111" /><path style="fill:none; stroke:#000000;stroke-width:1" d="M549.0 411.0 L351.0 106.0" /><polygon style="fill:#000000; stroke:#000000;" points=" 352 117 351 106 361 112 355 113" /><path style="fill:none; stroke:#000000;stroke-width:1" d="M519.0 86.0 L386.0 80.0" /><polygon style="fill:#000000; stroke:#000000;" points=" 396 85 386 80 396 75 394 80" /><path style="fill:none; stroke:#000000;stroke-width:1" d="M210.0 265.0 L269.0 261.0" /><polygon style="fill:#000000; stroke:#000000;" points=" 259 257 269 261 259 267 261 262" /><path style="fill:none; stroke:#000000;stroke-width:1" d="M210.0 313.0 L289.0 429.0" /><polygon style="fill:#000000; stroke:#000000;" points=" 288 418 289 429 279 424 284 422" /><path style="fill:none; stroke:#000000;stroke-width:1" d="M376.0 258.0 L559.0 263.0" /><polygon style="fill:#000000; stroke:#000000;" points=" 549 258 559 263 549 268 551 263" /><path style="fill:none; stroke:#000000;stroke-width:1" d="M549.0 434.0 L368.0 292.0" /><polygon style="fill:#000000; stroke:#000000;" points=" 373 302 368 292 379 294 374 297" /><path style="fill:none; stroke:#000000;stroke-width:1" d="M519.0 110.0 L370.0 221.0" /><polygon style="fill:#000000; stroke:#000000;" points=" 381 219 370 221 375 211 376 216" /><path style="fill:none; stroke:#000000;stroke-width:1" d="M559.0 263.0 L376.0 258.0" /><polygon style="fill:#000000; stroke:#000000;" points=" 386 263 376 258 386 253 384 258" /><path style="fill:none; stroke:#000000;stroke-width:1" d="M366.0 463.0 L549.0 458.0" /><polygon style="fill:#000000; stroke:#000000;" points=" 539 453 549 458 539 463 541 458" /><path style="fill:none; stroke:#000000;stroke-width:1" d="M559.0 286.0 L362.0 429.0" /><polygon style="fill:#000000; stroke:#000000;" points=" 373 427 362 429 367 419 368 424" /><path style="fill:none; stroke:#000000;stroke-width:1" d="M519.0 136.0 L335.0 429.0" /><polygon style="fill:#000000; stroke:#000000;" points=" 345 423 335 429 336 418 339 422" /><path style="fill:none; stroke:#000000;stroke-width:1" d="M549.0 458.0 L366.0 463.0" /><polygon style="fill:#000000; stroke:#000000;" points=" 376 468 366 463 376 458 374 463" /><path style="fill:none; stroke:#000000;stroke-width:1" d="M620.0 262.0 L730.0 256.0" /><polygon style="fill:#000000; stroke:#000000;" points=" 720 252 730 256 720 262 722 256" /><path style="fill:none; stroke:#000000;stroke-width:1" d="M610.0 421.0 L736.0 269.0" /><polygon style="fill:#000000; stroke:#000000;" points=" 726 274 736 269 733 280 731 275" /><path style="fill:none; stroke:#000000;stroke-width:1" d="M580.0 114.0 L734.0 245.0" /><polygon style="fill:#000000; stroke:#000000;" points=" 730 235 734 245 723 242 728 240" /><defs><linearGradient xmlns:xlink="http://www.w3.org/1999/xlink" xlink:href="#linearGradient66FF6696FF96B6FFB6" id="linearGradient66FF6696FF96B6FFB6_2145361200" x1="0" y1="240.0" x2="0" y2="275.0" gradientUnits="userSpaceOnUse" xlink:type="simple" xlink:actuate="onLoad" xlink:show="other" /><linearGradient id="linearGradient66FF6696FF96B6FFB6"><stop style="stop-color:#66FF66;stop-opacity:1;" offset="0.0" id="stop66FF66" /><stop style="stop-color:#96FF96;stop-opacity:1;" offset="0.5" id="stop96FF96" /><stop style="stop-color:#B6FFB6;stop-opacity:1;" offset="1.0" id="stopB6FFB6" /></linearGradient><linearGradient xmlns:xlink="http://www.w3.org/1999/xlink" xlink:href="#linearGradientF8FBFEEDF5FCDEEDFAD4E7F8E2E5E9" id="linearGradientF8FBFEEDF5FCDEEDFAD4E7F8E2E5E9_1897430203" x1="0" y1="50.0" x2="0" y2="156.0" gradientUnits="userSpaceOnUse" xlink:type="simple" xlink:actuate="onLoad" xlink:show="other" /><linearGradient id="linearGradientF8FBFEEDF5FCDEEDFAD4E7F8E2E5E9"><stop style="stop-color:#F8FBFE;stop-opacity:1;" offset="0.0" id="stopF8FBFE" /><stop style="stop-color:#EDF5FC;stop-opacity:1;" offset="0.25" id="stopEDF5FC" /><stop style="stop-color:#DEEDFA;stop-opacity:1;" offset="0.5" id="stopDEEDFA" /><stop style="stop-color:#D4E7F8;stop-opacity:1;" offset="0.75" id="stopD4E7F8" /><stop style="stop-color:#E2E5E9;stop-opacity:1;" offset="1.0" id="stopE2E5E9" /></linearGradient><linearGradient xmlns:xlink="http://www.w3.org/1999/xlink" xlink:href="#linearGradientFAFBFCFFFFCC" id="linearGradientFAFBFCFFFFCC_1965553216" x1="0" y1="210.0" x2="0" y2="270.0" gradientUnits="userSpaceOnUse" xlink:type="simple" xlink:actuate="onLoad" xlink:show="other" /><linearGradient id="linearGradientFAFBFCFFFFCC"><stop style="stop-color:#FAFBFC;stop-opacity:1;" offset="0.0" id="stopFAFBFC" /><stop style="stop-color:#FFFFCC;stop-opacity:1;" offset="1.0" id="stopFFFFCC" /></linearGradient><linearGradient xmlns:xlink="http://www.w3.org/1999/xlink" xlink:href="#linearGradientF8FBFEEDF5FCDEEDFAD4E7F8E2E5E9" id="linearGradientF8FBFEEDF5FCDEEDFAD4E7F8E2E5E9_807761536" x1="0" y1="222.0" x2="0" y2="328.0" gradientUnits="userSpaceOnUse" xlink:type="simple" xlink:actuate="onLoad" xlink:show="other" /><linearGradient xmlns:xlink="http://www.w3.org/1999/xlink" xlink:href="#linearGradientF8FBFEEDF5FCDEEDFAD4E7F8E2E5E9" id="linearGradientF8FBFEEDF5FCDEEDFAD4E7F8E2E5E9_856710057" x1="0" y1="430.0" x2="0" y2="536.0" gradientUnits="userSpaceOnUse" xlink:type="simple" xlink:actuate="onLoad" xlink:show="other" /><linearGradient xmlns:xlink="http://www.w3.org/1999/xlink" xlink:href="#linearGradientFAFBFCFFFFCC" id="linearGradientFAFBFCFFFFCC_23004372" x1="0" y1="206.0" x2="0" y2="266.0" gradientUnits="userSpaceOnUse" xlink:type="simple" xlink:actuate="onLoad" xlink:show="other" /><linearGradient xmlns:xlink="http://www.w3.org/1999/xlink" xlink:href="#linearGradientFAFBFCFFFFCC" id="linearGradientFAFBFCFFFFCC_1266710345" x1="0" y1="400.0" x2="0" y2="460.0" gradientUnits="userSpaceOnUse" xlink:type="simple" xlink:actuate="onLoad" xlink:show="other" /><linearGradient xmlns:xlink="http://www.w3.org/1999/xlink" xlink:href="#linearGradientFF6666FF9696FFB6B6" id="linearGradientFF6666FF9696FFB6B6_1342867919" x1="0" y1="239.0" x2="0" y2="274.0" gradientUnits="userSpaceOnUse" xlink:type="simple" xlink:actuate="onLoad" xlink:show="other" /><linearGradient id="linearGradientFF6666FF9696FFB6B6"><stop style="stop-color:#FF6666;stop-opacity:1;" offset="0.0" id="stopFF6666" /><stop style="stop-color:#FF9696;stop-opacity:1;" offset="0.5" id="stopFF9696" /><stop style="stop-color:#FFB6B6;stop-opacity:1;" offset="1.0" id="stopFFB6B6" /></linearGradient><linearGradient xmlns:xlink="http://www.w3.org/1999/xlink" xlink:href="#linearGradientFAFBFCFFFFCC" id="linearGradientFAFBFCFFFFCC_1635143028" x1="0" y1="30.0" x2="0" y2="90.0" gradientUnits="userSpaceOnUse" xlink:type="simple" xlink:actuate="onLoad" xlink:show="other" /></defs></svg>
