<?xml version="1.0" encoding="UTF-8"?>
<svg xmlns="http://www.w3.org/2000/svg" style="stroke-dasharray:none; shape-rendering:auto; font-family:'Arial'; text-rendering:auto; fill-opacity:1; color-interpolation:auto; color-rendering:auto; font-size:12; fill:black; stroke:black; image-rendering:auto; stroke-miterlimit:10; stroke-linecap:square; stroke-linejoin:miter; font-style:normal; stroke-width:1; stroke-dashoffset:0; font-weight:normal; stroke-opacity:1;" contentScriptType="text/ecmascript" preserveAspectRatio="xMidYMid meet" zoomAndPan="magnify" version="1.0" contentStyleType="text/css" xml:xlink="http://www.w3.org/1999/xlink" width="1041" height="411"><rect x="10" y="10" width="1031" height="401" ry="0" rx="0" style="stroke:#000000; fill:#FFFFFF" /><rect x="40" y="143" width="1001" height="133" ry="0" rx="0" style="stroke:#000000; fill:#82B0B7" /><g componentSequence="4"><text x="-209" y="47" transform="rotate(270)" text-anchor="middle" style="font-weight:bold;font-size:10px;stroke:none; fill:#434343"><tspan dy="14" x="-209">Analista</tspan></text></g><rect x="40" y="276" width="1001" height="135" ry="0" rx="0" style="stroke:#000000; fill:#C0C0C0" /><g componentSequence="3"><text x="-343" y="47" transform="rotate(270)" text-anchor="middle" style="font-weight:bold;font-size:10px;stroke:none; fill:#434343"><tspan dy="14" x="-343">Solicitante</tspan></text></g><rect x="40" y="10" width="1001" height="133" ry="0" rx="0" style="stroke:#000000; fill:#9F9F9F" /><g componentSequence="2"><text x="-76" y="47" transform="rotate(270)" text-anchor="middle" style="font-weight:bold;font-size:10px;stroke:none; fill:#434343"><tspan dy="14" x="-76">Gestor</tspan></text></g><g componentSequence="1"><text x="-210" y="17" transform="rotate(270)" text-anchor="middle" style="font-weight:bold;font-size:10px;stroke:none; fill:#434343"><tspan dy="14" x="-210">Pool</tspan></text></g><g sequence="4"><ellipse cx="107" cy="77" rx="17" ry="17" stroke-width="1" style="fill:url(#linearGradient66FF6696FF96B6FFB6_955771625);" stroke="336633" /></g><g sequence="5"><rect x="390" y="176" width="106" height="70" ry="5" rx="5" style="fill:url(#linearGradientF8FBFEEDF5FCDEEDFAD4E7F8E2E5E9_909116295);" stroke="191970" /></g><g componentSequence="5"><text x="443" y="200" text-anchor="middle" style="font-weight:bold;font-size:10px;stroke:none; fill:#333399"><tspan dy="14" x="443">Analisa Relatório</tspan></text></g><g sequence="7"><polygon points=" 640 190 670 160 700 190 670 220 640 190" style="fill:url(#linearGradientFAFBFCFFFFCC_839877017);" stroke="000000" /></g><g componentSequence="7"><text x="670" y="230" text-anchor="middle" style="font-weight:bold;font-size:10px;stroke:none; fill:#333399"><tspan dy="14" x="670">Aprovad</tspan><tspan dy="14" x="670">o</tspan></text></g><g sequence="9"><rect x="690" y="43" width="106" height="70" ry="5" rx="5" style="fill:url(#linearGradientF8FBFEEDF5FCDEEDFAD4E7F8E2E5E9_1997343164);" stroke="191970" /></g><g componentSequence="9"><text x="743" y="67" text-anchor="middle" style="font-weight:bold;font-size:10px;stroke:none; fill:#333399"><tspan dy="14" x="743">Ajusta Relatório</tspan></text></g><g sequence="13"><rect x="620" y="310" width="106" height="70" ry="5" rx="5" style="fill:url(#linearGradientF8FBFEEDF5FCDEEDFAD4E7F8E2E5E9_1890190614);" stroke="191970" /></g><g componentSequence="13"><text x="673" y="334" text-anchor="middle" style="font-weight:bold;font-size:10px;stroke:none; fill:#333399"><tspan dy="14" x="673">Revisa Relatório</tspan></text></g><g sequence="15"><polygon points=" 840 183 870 153 900 183 870 213 840 183" style="fill:url(#linearGradientFAFBFCFFFFCC_1177558207);" stroke="000000" /></g><g componentSequence="15"><text x="870" y="223" text-anchor="middle" style="font-weight:bold;font-size:10px;stroke:none; fill:#333399"><tspan dy="14" x="870">Revisão</tspan><tspan dy="14" x="870">Aprovad</tspan><tspan dy="14" x="870">a?</tspan></text></g><g sequence="18"><ellipse cx="977" cy="210" rx="17" ry="17" stroke-width="3" style="fill:url(#linearGradientFF6666FF9696FFB6B6_142429865);" stroke="993333" /></g><g sequence="20"><rect x="200" y="50" width="106" height="56" ry="5" rx="5" style="fill:url(#linearGradientF8FBFEEDF5FCDEEDFAD4E7F8E2E5E9_388167411);" stroke="191970" /></g><g componentSequence="20"><text x="253" y="67" text-anchor="middle" style="font-weight:bold;font-size:10px;stroke:none; fill:#333399"><tspan dy="14" x="253">Salvar Relatório</tspan></text></g><g sequence="22"><polygon points=" 200 197 230 167 260 197 230 227 200 197" style="fill:url(#linearGradientFAFBFCFFFFCC_931189684);" stroke="000000" /></g><g componentSequence="22"><text x="230" y="230" text-anchor="middle" style="font-weight:bold;font-size:10px;stroke:none; fill:#333399"><tspan dy="14" x="230">Salvar</tspan></text></g><g sequence="27"><polygon points=" 500 57 530 27 560 57 530 87 500 57" style="fill:url(#linearGradientFAFBFCFFFFCC_1897133087);" stroke="000000" /></g><g componentSequence="27"><text x="530" y="97" text-anchor="middle" style="font-weight:bold;font-size:10px;stroke:none; fill:#333399"><tspan dy="14" x="530">Exclusiv</tspan><tspan dy="14" x="530">o</tspan></text></g><g componentSequence="8"><text x="578" y="211" style="font-size:10px;font-weight:none;stroke:none; fill:#333399" text-anchor="left" /></g><g componentSequence="10"><text x="714" y="136" style="font-size:10px;font-weight:none;stroke:none; fill:#333399" text-anchor="left" /></g><g componentSequence="14"><text x="682" y="286" style="font-size:10px;font-weight:none;stroke:none; fill:#333399" text-anchor="left" /></g><g componentSequence="16"><text x="845" y="344" style="font-size:10px;font-weight:none;stroke:none; fill:#333399" text-anchor="left" /></g><g componentSequence="17"><text x="879" y="66" style="font-size:10px;font-weight:none;stroke:none; fill:#333399" text-anchor="left" /></g><g componentSequence="19"><text x="940" y="210" style="font-size:10px;font-weight:none;stroke:none; fill:#333399" text-anchor="left" /></g><g componentSequence="23"><text x="117" y="199" style="font-size:10px;font-weight:none;stroke:none; fill:#333399" text-anchor="left" /></g><g componentSequence="24"><text x="291" y="137" style="font-size:10px;font-weight:none;stroke:none; fill:#333399" text-anchor="left" /></g><g componentSequence="28"><text x="635" y="78" style="font-size:10px;font-weight:none;stroke:none; fill:#333399" text-anchor="left" /></g><g componentSequence="25"><text x="165" y="121" style="font-size:10px;font-weight:none;stroke:none; fill:#333399" text-anchor="left" /></g><g componentSequence="29"><text x="453" y="98" style="font-size:10px;font-weight:none;stroke:none; fill:#333399" text-anchor="left" /></g><g componentSequence="30"><text x="632" y="10" style="font-size:10px;font-weight:none;stroke:none; fill:#333399" text-anchor="left" /></g><g componentSequence="26"><text x="335" y="211" style="font-size:10px;font-weight:none;stroke:none; fill:#333399" text-anchor="left" /></g><path style="fill:none; stroke:#000000;stroke-width:1" d="M107.0 95.0 L107.0 210.0 L199.0 210.0" /><polygon style="fill:#000000; stroke:#000000;" points=" 189 205 199 210 189 215 191 210" /><path style="fill:none; stroke:#000000;stroke-width:1" d="M496.0 211.0 L639.0 211.0" /><polygon style="fill:#000000; stroke:#000000;" points=" 629 206 639 211 629 216 631 211" /><path style="fill:none; stroke:#000000;stroke-width:1" d="M260.0 211.0 L389.0 211.0" /><polygon style="fill:#000000; stroke:#000000;" points=" 379 206 389 211 379 216 381 211" /><path style="fill:none; stroke:#000000;stroke-width:1" d="M690.0 159.0 L692.0 154.0 L719.0 113.0" /><polygon style="fill:#000000; stroke:#000000;" points=" 709 119 719 113 718 124 715 120" /><path style="fill:none; stroke:#000000;stroke-width:1" d="M671.0 262.0 L672.0 309.0" /><polygon style="fill:#000000; stroke:#000000;" points=" 677 299 672 309 667 299 672 301" /><path style="fill:none; stroke:#000000;stroke-width:1" d="M869.0 152.0 L869.0 55.0 L796.0 68.0" /><polygon style="fill:#000000; stroke:#000000;" points=" 807 71 796 68 805 61 804 67" /><path style="fill:none; stroke:#000000;stroke-width:1" d="M726.0 344.0 L869.0 344.0 L869.0 269.0" /><polygon style="fill:#000000; stroke:#000000;" points=" 864 279 869 269 874 279 869 277" /><path style="fill:none; stroke:#000000;stroke-width:1" d="M900.0 210.0 L960.0 210.0" /><polygon style="fill:#000000; stroke:#000000;" points=" 950 205 960 210 950 215 952 210" /><path style="fill:none; stroke:#000000;stroke-width:1" d="M199.0 77.0 L155.0 77.0 L155.0 154.0 L199.0 187.0" /><polygon style="fill:#000000; stroke:#000000;" points=" 194 177 199 187 188 185 193 182" /><path style="fill:none; stroke:#000000;stroke-width:1" d="M260.0 167.0 L286.0 129.0 L271.0 106.0" /><polygon style="fill:#000000; stroke:#000000;" points=" 272 117 271 106 281 112 275 113" /><path style="fill:none; stroke:#000000;stroke-width:1" d="M689.0 78.0 L560.0 78.0" /><polygon style="fill:#000000; stroke:#000000;" points=" 570 83 560 78 570 73 568 78" /><path style="fill:none; stroke:#000000;stroke-width:1" d="M499.0 77.0 L443.0 77.0 L443.0 175.0" /><polygon style="fill:#000000; stroke:#000000;" points=" 448 165 443 175 438 165 443 167" /><path style="fill:none; stroke:#000000;stroke-width:1" d="M560.0 54.0 L620.0 9.0 L689.0 48.0" /><polygon style="fill:#000000; stroke:#000000;" points=" 683 39 689 48 678 47 682 44" /><defs><linearGradient xmlns:xlink="http://www.w3.org/1999/xlink" xlink:href="#linearGradient66FF6696FF96B6FFB6" id="linearGradient66FF6696FF96B6FFB6_955771625" x1="0" y1="60.0" x2="0" y2="95.0" gradientUnits="userSpaceOnUse" xlink:type="simple" xlink:actuate="onLoad" xlink:show="other" /><linearGradient id="linearGradient66FF6696FF96B6FFB6"><stop style="stop-color:#66FF66;stop-opacity:1;" offset="0.0" id="stop66FF66" /><stop style="stop-color:#96FF96;stop-opacity:1;" offset="0.5" id="stop96FF96" /><stop style="stop-color:#B6FFB6;stop-opacity:1;" offset="1.0" id="stopB6FFB6" /></linearGradient><linearGradient xmlns:xlink="http://www.w3.org/1999/xlink" xlink:href="#linearGradientF8FBFEEDF5FCDEEDFAD4E7F8E2E5E9" id="linearGradientF8FBFEEDF5FCDEEDFAD4E7F8E2E5E9_909116295" x1="0" y1="176.0" x2="0" y2="282.0" gradientUnits="userSpaceOnUse" xlink:type="simple" xlink:actuate="onLoad" xlink:show="other" /><linearGradient id="linearGradientF8FBFEEDF5FCDEEDFAD4E7F8E2E5E9"><stop style="stop-color:#F8FBFE;stop-opacity:1;" offset="0.0" id="stopF8FBFE" /><stop style="stop-color:#EDF5FC;stop-opacity:1;" offset="0.25" id="stopEDF5FC" /><stop style="stop-color:#DEEDFA;stop-opacity:1;" offset="0.5" id="stopDEEDFA" /><stop style="stop-color:#D4E7F8;stop-opacity:1;" offset="0.75" id="stopD4E7F8" /><stop style="stop-color:#E2E5E9;stop-opacity:1;" offset="1.0" id="stopE2E5E9" /></linearGradient><linearGradient xmlns:xlink="http://www.w3.org/1999/xlink" xlink:href="#linearGradientFAFBFCFFFFCC" id="linearGradientFAFBFCFFFFCC_839877017" x1="0" y1="160.0" x2="0" y2="220.0" gradientUnits="userSpaceOnUse" xlink:type="simple" xlink:actuate="onLoad" xlink:show="other" /><linearGradient id="linearGradientFAFBFCFFFFCC"><stop style="stop-color:#FAFBFC;stop-opacity:1;" offset="0.0" id="stopFAFBFC" /><stop style="stop-color:#FFFFCC;stop-opacity:1;" offset="1.0" id="stopFFFFCC" /></linearGradient><linearGradient xmlns:xlink="http://www.w3.org/1999/xlink" xlink:href="#linearGradientF8FBFEEDF5FCDEEDFAD4E7F8E2E5E9" id="linearGradientF8FBFEEDF5FCDEEDFAD4E7F8E2E5E9_1997343164" x1="0" y1="43.0" x2="0" y2="149.0" gradientUnits="userSpaceOnUse" xlink:type="simple" xlink:actuate="onLoad" xlink:show="other" /><linearGradient xmlns:xlink="http://www.w3.org/1999/xlink" xlink:href="#linearGradientF8FBFEEDF5FCDEEDFAD4E7F8E2E5E9" id="linearGradientF8FBFEEDF5FCDEEDFAD4E7F8E2E5E9_1890190614" x1="0" y1="310.0" x2="0" y2="416.0" gradientUnits="userSpaceOnUse" xlink:type="simple" xlink:actuate="onLoad" xlink:show="other" /><linearGradient xmlns:xlink="http://www.w3.org/1999/xlink" xlink:href="#linearGradientFAFBFCFFFFCC" id="linearGradientFAFBFCFFFFCC_1177558207" x1="0" y1="153.0" x2="0" y2="213.0" gradientUnits="userSpaceOnUse" xlink:type="simple" xlink:actuate="onLoad" xlink:show="other" /><linearGradient xmlns:xlink="http://www.w3.org/1999/xlink" xlink:href="#linearGradientFF6666FF9696FFB6B6" id="linearGradientFF6666FF9696FFB6B6_142429865" x1="0" y1="193.0" x2="0" y2="228.0" gradientUnits="userSpaceOnUse" xlink:type="simple" xlink:actuate="onLoad" xlink:show="other" /><linearGradient id="linearGradientFF6666FF9696FFB6B6"><stop style="stop-color:#FF6666;stop-opacity:1;" offset="0.0" id="stopFF6666" /><stop style="stop-color:#FF9696;stop-opacity:1;" offset="0.5" id="stopFF9696" /><stop style="stop-color:#FFB6B6;stop-opacity:1;" offset="1.0" id="stopFFB6B6" /></linearGradient><linearGradient xmlns:xlink="http://www.w3.org/1999/xlink" xlink:href="#linearGradientF8FBFEEDF5FCDEEDFAD4E7F8E2E5E9" id="linearGradientF8FBFEEDF5FCDEEDFAD4E7F8E2E5E9_388167411" x1="0" y1="50.0" x2="0" y2="156.0" gradientUnits="userSpaceOnUse" xlink:type="simple" xlink:actuate="onLoad" xlink:show="other" /><linearGradient xmlns:xlink="http://www.w3.org/1999/xlink" xlink:href="#linearGradientFAFBFCFFFFCC" id="linearGradientFAFBFCFFFFCC_931189684" x1="0" y1="167.0" x2="0" y2="227.0" gradientUnits="userSpaceOnUse" xlink:type="simple" xlink:actuate="onLoad" xlink:show="other" /><linearGradient xmlns:xlink="http://www.w3.org/1999/xlink" xlink:href="#linearGradientFAFBFCFFFFCC" id="linearGradientFAFBFCFFFFCC_1897133087" x1="0" y1="27.0" x2="0" y2="87.0" gradientUnits="userSpaceOnUse" xlink:type="simple" xlink:actuate="onLoad" xlink:show="other" /></defs></svg>
