<?xml version="1.0" encoding="UTF-8"?>
<svg xmlns="http://www.w3.org/2000/svg" style="stroke-dasharray:none; shape-rendering:auto; font-family:'Arial'; text-rendering:auto; fill-opacity:1; color-interpolation:auto; color-rendering:auto; font-size:12; fill:black; stroke:black; image-rendering:auto; stroke-miterlimit:10; stroke-linecap:square; stroke-linejoin:miter; font-style:normal; stroke-width:1; stroke-dashoffset:0; font-weight:normal; stroke-opacity:1;" contentScriptType="text/ecmascript" preserveAspectRatio="xMidYMid meet" zoomAndPan="magnify" version="1.0" contentStyleType="text/css" xml:xlink="http://www.w3.org/1999/xlink" width="1041" height="310"><rect x="10" y="10" width="1031" height="290" ry="0" rx="0" style="stroke:#000000; fill:#FFFFFF" /><rect x="40" y="202" width="1001" height="98" ry="0" rx="0" style="stroke:#000000; fill:#82B0B7" /><g componentSequence="4"><text x="-251" y="47" transform="rotate(270)" text-anchor="middle" style="font-weight:bold;font-size:10px;stroke:none; fill:#434343"><tspan dy="14" x="-251">GESTOR</tspan></text></g><rect x="40" y="106" width="1001" height="96" ry="0" rx="0" style="stroke:#000000; fill:#C0C0C0" /><g componentSequence="3"><text x="-154" y="47" transform="rotate(270)" text-anchor="middle" style="font-weight:bold;font-size:10px;stroke:none; fill:#434343"><tspan dy="14" x="-154">ANALISTA</tspan></text></g><rect x="40" y="10" width="1001" height="96" ry="0" rx="0" style="stroke:#000000; fill:#9F9F9F" /><g componentSequence="2"><text x="-58" y="47" transform="rotate(270)" text-anchor="middle" style="font-weight:bold;font-size:10px;stroke:none; fill:#434343"><tspan dy="14" x="-58">SOLICITANTE</tspan></text></g><g componentSequence="1"><text x="-155" y="17" transform="rotate(270)" text-anchor="middle" style="font-weight:bold;font-size:10px;stroke:none; fill:#434343"><tspan dy="14" x="-155">Pool</tspan></text></g><g sequence="4"><ellipse cx="137" cy="58" rx="17" ry="17" stroke-width="1" style="fill:url(#linearGradient66FF6696FF96B6FFB6_83556031);" stroke="336633" /></g><g sequence="5"><rect x="370" y="120" width="106" height="70" ry="5" rx="5" style="fill:url(#linearGradientF8FBFEEDF5FCDEEDFAD4E7F8E2E5E9_171771984);" stroke="191970" /></g><g componentSequence="5"><text x="423" y="135" text-anchor="middle" style="font-weight:bold;font-size:10px;stroke:none; fill:#333399"><tspan dy="14" x="423">ANALISA_RELA</tspan><tspan dy="14" x="423">TORIO</tspan></text></g><g sequence="7"><polygon points=" 520 134 550 104 580 134 550 164 520 134" style="fill:url(#linearGradientFAFBFCFFFFCC_235052495);" stroke="000000" /></g><g componentSequence="7"><text x="550" y="174" text-anchor="middle" style="font-weight:bold;font-size:10px;stroke:none; fill:#333399"><tspan dy="14" x="550">Aprovad</tspan><tspan dy="14" x="550">o</tspan></text></g><g sequence="9"><rect x="640" y="24" width="106" height="70" ry="5" rx="5" style="fill:url(#linearGradientF8FBFEEDF5FCDEEDFAD4E7F8E2E5E9_1258291819);" stroke="191970" /></g><g componentSequence="9"><text x="693" y="39" text-anchor="middle" style="font-weight:bold;font-size:10px;stroke:none; fill:#333399"><tspan dy="14" x="693">AJUSTA_RELAT</tspan><tspan dy="14" x="693">ORIO</tspan></text></g><g sequence="13"><rect x="630" y="217" width="106" height="70" ry="5" rx="5" style="fill:url(#linearGradientF8FBFEEDF5FCDEEDFAD4E7F8E2E5E9_412900026);" stroke="191970" /></g><g componentSequence="13"><text x="683" y="232" text-anchor="middle" style="font-weight:bold;font-size:10px;stroke:none; fill:#333399"><tspan dy="14" x="683">REVISA_RELAT</tspan><tspan dy="14" x="683">ORIO</tspan></text></g><g sequence="15"><polygon points=" 820 224 850 194 880 224 850 254 820 224" style="fill:url(#linearGradientFAFBFCFFFFCC_2055319153);" stroke="000000" /></g><g componentSequence="15"><text x="850" y="264" text-anchor="middle" style="font-weight:bold;font-size:10px;stroke:none; fill:#333399"><tspan dy="14" x="850">Revisão</tspan><tspan dy="14" x="850">_Aprova</tspan><tspan dy="14" x="850">da?</tspan></text></g><g sequence="18"><ellipse cx="997" cy="251" rx="17" ry="17" stroke-width="3" style="fill:url(#linearGradientFF6666FF9696FFB6B6_1626843147);" stroke="993333" /></g><g sequence="20"><rect x="90" y="127" width="106" height="70" ry="5" rx="5" style="fill:url(#linearGradientF8FBFEEDF5FCDEEDFAD4E7F8E2E5E9_724565284);" stroke="191970" /></g><g componentSequence="20"><text x="143" y="142" text-anchor="middle" style="font-weight:bold;font-size:10px;stroke:none; fill:#333399"><tspan dy="14" x="143">SALVAR_RELAT</tspan><tspan dy="14" x="143">ORIO</tspan></text></g><g sequence="22"><polygon points=" 250 134 280 104 310 134 280 164 250 134" style="fill:url(#linearGradientFAFBFCFFFFCC_1369193329);" stroke="000000" /></g><g componentSequence="22"><text x="280" y="174" text-anchor="middle" style="font-weight:bold;font-size:10px;stroke:none; fill:#333399"><tspan dy="14" x="280">Exclusiv</tspan><tspan dy="14" x="280">o</tspan></text></g><g componentSequence="8"><text x="508" y="155" style="font-size:10px;font-weight:none;stroke:none; fill:#333399" text-anchor="left" /></g><g componentSequence="10"><text x="637" y="136" style="font-size:10px;font-weight:none;stroke:none; fill:#333399" text-anchor="left" /></g><g componentSequence="11"><text x="511" y="59" style="font-size:10px;font-weight:none;stroke:none; fill:#333399" text-anchor="left" /></g><g componentSequence="14"><text x="555" y="251" style="font-size:10px;font-weight:none;stroke:none; fill:#333399" text-anchor="left" /></g><g componentSequence="16"><text x="788" y="252" style="font-size:10px;font-weight:none;stroke:none; fill:#333399" text-anchor="left" /></g><g componentSequence="17"><text x="860" y="74" style="font-size:10px;font-weight:none;stroke:none; fill:#333399" text-anchor="left" /></g><g componentSequence="19"><text x="940" y="251" style="font-size:10px;font-weight:none;stroke:none; fill:#333399" text-anchor="left" /></g><g componentSequence="21"><text x="150" y="101" style="font-size:10px;font-weight:none;stroke:none; fill:#333399" text-anchor="left" /></g><g componentSequence="23"><text x="233" y="158" style="font-size:10px;font-weight:none;stroke:none; fill:#333399" text-anchor="left" /></g><g componentSequence="24"><text x="350" y="155" style="font-size:10px;font-weight:none;stroke:none; fill:#333399" text-anchor="left" /></g><g componentSequence="25"><text x="218" y="73" style="font-size:10px;font-weight:none;stroke:none; fill:#333399" text-anchor="left" /></g><path style="fill:none; stroke:#000000;stroke-width:1" d="M138.0 75.0 L141.0 126.0" /><polygon style="fill:#000000; stroke:#000000;" points=" 145 116 141 126 135 116 141 118" /><path style="fill:none; stroke:#000000;stroke-width:1" d="M476.0 155.0 L519.0 155.0" /><polygon style="fill:#000000; stroke:#000000;" points=" 509 150 519 155 509 160 511 155" /><path style="fill:none; stroke:#000000;stroke-width:1" d="M639.0 59.0 L422.0 59.0 L422.0 119.0" /><polygon style="fill:#000000; stroke:#000000;" points=" 427 109 422 119 417 109 422 111" /><path style="fill:none; stroke:#000000;stroke-width:1" d="M310.0 155.0 L369.0 155.0" /><polygon style="fill:#000000; stroke:#000000;" points=" 359 150 369 155 359 160 361 155" /><path style="fill:none; stroke:#000000;stroke-width:1" d="M580.0 154.0 L612.0 154.0 L663.0 94.0" /><polygon style="fill:#000000; stroke:#000000;" points=" 653 98 663 94 660 105 658 100" /><path style="fill:none; stroke:#000000;stroke-width:1" d="M528.0 206.0 L509.0 251.0 L629.0 251.0" /><polygon style="fill:#000000; stroke:#000000;" points=" 619 246 629 251 619 256 621 251" /><path style="fill:none; stroke:#000000;stroke-width:1" d="M850.0 193.0 L850.0 59.0 L750.0 59.0 L746.0 59.0" /><polygon style="fill:#000000; stroke:#000000;" points=" 756 64 746 59 756 54 754 59" /><path style="fill:none; stroke:#000000;stroke-width:1" d="M736.0 252.0 L819.0 252.0" /><polygon style="fill:#000000; stroke:#000000;" points=" 809 247 819 252 809 257 811 252" /><path style="fill:none; stroke:#000000;stroke-width:1" d="M880.0 251.0 L980.0 251.0" /><polygon style="fill:#000000; stroke:#000000;" points=" 970 246 980 251 970 256 972 251" /><path style="fill:none; stroke:#000000;stroke-width:1" d="M196.0 159.0 L249.0 156.0" /><polygon style="fill:#000000; stroke:#000000;" points=" 239 152 249 156 239 162 241 156" /><path style="fill:none; stroke:#000000;stroke-width:1" d="M249.0 117.0 L210.0 70.0 L169.0 126.0" /><polygon style="fill:#000000; stroke:#000000;" points=" 179 121 169 126 171 115 174 120" /><defs><linearGradient xmlns:xlink="http://www.w3.org/1999/xlink" xlink:href="#linearGradient66FF6696FF96B6FFB6" id="linearGradient66FF6696FF96B6FFB6_83556031" x1="0" y1="41.0" x2="0" y2="76.0" gradientUnits="userSpaceOnUse" xlink:type="simple" xlink:actuate="onLoad" xlink:show="other" /><linearGradient id="linearGradient66FF6696FF96B6FFB6"><stop style="stop-color:#66FF66;stop-opacity:1;" offset="0.0" id="stop66FF66" /><stop style="stop-color:#96FF96;stop-opacity:1;" offset="0.5" id="stop96FF96" /><stop style="stop-color:#B6FFB6;stop-opacity:1;" offset="1.0" id="stopB6FFB6" /></linearGradient><linearGradient xmlns:xlink="http://www.w3.org/1999/xlink" xlink:href="#linearGradientF8FBFEEDF5FCDEEDFAD4E7F8E2E5E9" id="linearGradientF8FBFEEDF5FCDEEDFAD4E7F8E2E5E9_171771984" x1="0" y1="120.0" x2="0" y2="226.0" gradientUnits="userSpaceOnUse" xlink:type="simple" xlink:actuate="onLoad" xlink:show="other" /><linearGradient id="linearGradientF8FBFEEDF5FCDEEDFAD4E7F8E2E5E9"><stop style="stop-color:#F8FBFE;stop-opacity:1;" offset="0.0" id="stopF8FBFE" /><stop style="stop-color:#EDF5FC;stop-opacity:1;" offset="0.25" id="stopEDF5FC" /><stop style="stop-color:#DEEDFA;stop-opacity:1;" offset="0.5" id="stopDEEDFA" /><stop style="stop-color:#D4E7F8;stop-opacity:1;" offset="0.75" id="stopD4E7F8" /><stop style="stop-color:#E2E5E9;stop-opacity:1;" offset="1.0" id="stopE2E5E9" /></linearGradient><linearGradient xmlns:xlink="http://www.w3.org/1999/xlink" xlink:href="#linearGradientFAFBFCFFFFCC" id="linearGradientFAFBFCFFFFCC_235052495" x1="0" y1="104.0" x2="0" y2="164.0" gradientUnits="userSpaceOnUse" xlink:type="simple" xlink:actuate="onLoad" xlink:show="other" /><linearGradient id="linearGradientFAFBFCFFFFCC"><stop style="stop-color:#FAFBFC;stop-opacity:1;" offset="0.0" id="stopFAFBFC" /><stop style="stop-color:#FFFFCC;stop-opacity:1;" offset="1.0" id="stopFFFFCC" /></linearGradient><linearGradient xmlns:xlink="http://www.w3.org/1999/xlink" xlink:href="#linearGradientF8FBFEEDF5FCDEEDFAD4E7F8E2E5E9" id="linearGradientF8FBFEEDF5FCDEEDFAD4E7F8E2E5E9_1258291819" x1="0" y1="24.0" x2="0" y2="130.0" gradientUnits="userSpaceOnUse" xlink:type="simple" xlink:actuate="onLoad" xlink:show="other" /><linearGradient xmlns:xlink="http://www.w3.org/1999/xlink" xlink:href="#linearGradientF8FBFEEDF5FCDEEDFAD4E7F8E2E5E9" id="linearGradientF8FBFEEDF5FCDEEDFAD4E7F8E2E5E9_412900026" x1="0" y1="217.0" x2="0" y2="323.0" gradientUnits="userSpaceOnUse" xlink:type="simple" xlink:actuate="onLoad" xlink:show="other" /><linearGradient xmlns:xlink="http://www.w3.org/1999/xlink" xlink:href="#linearGradientFAFBFCFFFFCC" id="linearGradientFAFBFCFFFFCC_2055319153" x1="0" y1="194.0" x2="0" y2="254.0" gradientUnits="userSpaceOnUse" xlink:type="simple" xlink:actuate="onLoad" xlink:show="other" /><linearGradient xmlns:xlink="http://www.w3.org/1999/xlink" xlink:href="#linearGradientFF6666FF9696FFB6B6" id="linearGradientFF6666FF9696FFB6B6_1626843147" x1="0" y1="234.0" x2="0" y2="269.0" gradientUnits="userSpaceOnUse" xlink:type="simple" xlink:actuate="onLoad" xlink:show="other" /><linearGradient id="linearGradientFF6666FF9696FFB6B6"><stop style="stop-color:#FF6666;stop-opacity:1;" offset="0.0" id="stopFF6666" /><stop style="stop-color:#FF9696;stop-opacity:1;" offset="0.5" id="stopFF9696" /><stop style="stop-color:#FFB6B6;stop-opacity:1;" offset="1.0" id="stopFFB6B6" /></linearGradient><linearGradient xmlns:xlink="http://www.w3.org/1999/xlink" xlink:href="#linearGradientF8FBFEEDF5FCDEEDFAD4E7F8E2E5E9" id="linearGradientF8FBFEEDF5FCDEEDFAD4E7F8E2E5E9_724565284" x1="0" y1="127.0" x2="0" y2="233.0" gradientUnits="userSpaceOnUse" xlink:type="simple" xlink:actuate="onLoad" xlink:show="other" /><linearGradient xmlns:xlink="http://www.w3.org/1999/xlink" xlink:href="#linearGradientFAFBFCFFFFCC" id="linearGradientFAFBFCFFFFCC_1369193329" x1="0" y1="104.0" x2="0" y2="164.0" gradientUnits="userSpaceOnUse" xlink:type="simple" xlink:actuate="onLoad" xlink:show="other" /></defs></svg>
