<?xml version="1.0" encoding="UTF-8"?>
<svg xmlns="http://www.w3.org/2000/svg" style="stroke-dasharray:none; shape-rendering:auto; font-family:'Arial'; text-rendering:auto; fill-opacity:1; color-interpolation:auto; color-rendering:auto; font-size:12; fill:black; stroke:black; image-rendering:auto; stroke-miterlimit:10; stroke-linecap:square; stroke-linejoin:miter; font-style:normal; stroke-width:1; stroke-dashoffset:0; font-weight:normal; stroke-opacity:1;" contentScriptType="text/ecmascript" preserveAspectRatio="xMidYMid meet" zoomAndPan="magnify" version="1.0" contentStyleType="text/css" xml:xlink="http://www.w3.org/1999/xlink" width="1041" height="310"><rect x="10" y="10" width="1031" height="290" ry="0" rx="0" style="stroke:#000000; fill:#FFFFFF" /><rect x="40" y="106" width="1001" height="96" ry="0" rx="0" style="stroke:#000000; fill:#82B0B7" /><g componentSequence="4"><text x="-154" y="47" transform="rotate(270)" text-anchor="middle" style="font-weight:bold;font-size:10px;stroke:none; fill:#434343"><tspan dy="14" x="-154">Analista</tspan></text></g><rect x="40" y="10" width="1001" height="96" ry="0" rx="0" style="stroke:#000000; fill:#C0C0C0" /><g componentSequence="3"><text x="-58" y="47" transform="rotate(270)" text-anchor="middle" style="font-weight:bold;font-size:10px;stroke:none; fill:#434343"><tspan dy="14" x="-58">Solicitante</tspan></text></g><rect x="40" y="202" width="1001" height="98" ry="0" rx="0" style="stroke:#000000; fill:#9F9F9F" /><g componentSequence="2"><text x="-251" y="47" transform="rotate(270)" text-anchor="middle" style="font-weight:bold;font-size:10px;stroke:none; fill:#434343"><tspan dy="14" x="-251">Gestor</tspan></text></g><g componentSequence="1"><text x="-155" y="17" transform="rotate(270)" text-anchor="middle" style="font-weight:bold;font-size:10px;stroke:none; fill:#434343"><tspan dy="14" x="-155">Pool</tspan></text></g><g sequence="4"><ellipse cx="107" cy="58" rx="17" ry="17" stroke-width="1" style="fill:url(#linearGradient66FF6696FF96B6FFB6_570791023);" stroke="336633" /></g><g sequence="5"><rect x="420" y="120" width="106" height="70" ry="5" rx="5" style="fill:url(#linearGradientF8FBFEEDF5FCDEEDFAD4E7F8E2E5E9_750939743);" stroke="191970" /></g><g componentSequence="5"><text x="473" y="135" text-anchor="middle" style="font-weight:bold;font-size:10px;stroke:none; fill:#333399"><tspan dy="14" x="473">ANALISA_RELA</tspan><tspan dy="14" x="473">TORIO</tspan></text></g><g sequence="7"><polygon points=" 580 134 610 104 640 134 610 164 580 134" style="fill:url(#linearGradientFAFBFCFFFFCC_687734559);" stroke="000000" /></g><g componentSequence="7"><text x="610" y="174" text-anchor="middle" style="font-weight:bold;font-size:10px;stroke:none; fill:#333399"><tspan dy="14" x="610">Aprovad</tspan><tspan dy="14" x="610">o</tspan></text></g><g sequence="9"><rect x="640" y="24" width="106" height="70" ry="5" rx="5" style="fill:url(#linearGradientF8FBFEEDF5FCDEEDFAD4E7F8E2E5E9_1845453924);" stroke="191970" /></g><g componentSequence="9"><text x="693" y="39" text-anchor="middle" style="font-weight:bold;font-size:10px;stroke:none; fill:#333399"><tspan dy="14" x="693">AJUSTA_RELAT</tspan><tspan dy="14" x="693">ORIO</tspan></text></g><g sequence="13"><rect x="670" y="217" width="106" height="70" ry="5" rx="5" style="fill:url(#linearGradientF8FBFEEDF5FCDEEDFAD4E7F8E2E5E9_1666659160);" stroke="191970" /></g><g componentSequence="13"><text x="723" y="232" text-anchor="middle" style="font-weight:bold;font-size:10px;stroke:none; fill:#333399"><tspan dy="14" x="723">REVISA_RELAT</tspan><tspan dy="14" x="723">ORIO</tspan></text></g><g sequence="15"><polygon points=" 820 224 850 194 880 224 850 254 820 224" style="fill:url(#linearGradientFAFBFCFFFFCC_1549273595);" stroke="000000" /></g><g componentSequence="15"><text x="850" y="264" text-anchor="middle" style="font-weight:bold;font-size:10px;stroke:none; fill:#333399"><tspan dy="14" x="850">Revisão</tspan><tspan dy="14" x="850">_Aprova</tspan><tspan dy="14" x="850">da?</tspan></text></g><g sequence="18"><ellipse cx="997" cy="251" rx="17" ry="17" stroke-width="3" style="fill:url(#linearGradientFF6666FF9696FFB6B6_454688872);" stroke="993333" /></g><g sequence="20"><rect x="200" y="24" width="106" height="70" ry="5" rx="5" style="fill:url(#linearGradientF8FBFEEDF5FCDEEDFAD4E7F8E2E5E9_231775019);" stroke="191970" /></g><g componentSequence="20"><text x="253" y="39" text-anchor="middle" style="font-weight:bold;font-size:10px;stroke:none; fill:#333399"><tspan dy="14" x="253">SALVAR_RELAT</tspan><tspan dy="14" x="253">ORIO</tspan></text></g><g sequence="22"><polygon points=" 140 141 170 111 200 141 170 171 140 141" style="fill:url(#linearGradientFAFBFCFFFFCC_1464312890);" stroke="000000" /></g><g componentSequence="22"><text x="170" y="174" text-anchor="middle" style="font-weight:bold;font-size:10px;stroke:none; fill:#333399"><tspan dy="14" x="170">Salvar</tspan></text></g><g componentSequence="8"><text x="563" y="155" style="font-size:10px;font-weight:none;stroke:none; fill:#333399" text-anchor="left" /></g><g componentSequence="10"><text x="702" y="150" style="font-size:10px;font-weight:none;stroke:none; fill:#333399" text-anchor="left" /></g><g componentSequence="11"><text x="536" y="59" style="font-size:10px;font-weight:none;stroke:none; fill:#333399" text-anchor="left" /></g><g componentSequence="14"><text x="627" y="251" style="font-size:10px;font-weight:none;stroke:none; fill:#333399" text-anchor="left" /></g><g componentSequence="23"><text x="117" y="131" style="font-size:10px;font-weight:none;stroke:none; fill:#333399" text-anchor="left" /></g><g componentSequence="16"><text x="808" y="252" style="font-size:10px;font-weight:none;stroke:none; fill:#333399" text-anchor="left" /></g><g componentSequence="24"><text x="257" y="133" style="font-size:10px;font-weight:none;stroke:none; fill:#333399" text-anchor="left" /></g><g componentSequence="17"><text x="860" y="74" style="font-size:10px;font-weight:none;stroke:none; fill:#333399" text-anchor="left" /></g><g componentSequence="25"><text x="180" y="70" style="font-size:10px;font-weight:none;stroke:none; fill:#333399" text-anchor="left" /></g><g componentSequence="19"><text x="940" y="251" style="font-size:10px;font-weight:none;stroke:none; fill:#333399" text-anchor="left" /></g><g componentSequence="26"><text x="320" y="155" style="font-size:10px;font-weight:none;stroke:none; fill:#333399" text-anchor="left" /></g><path style="fill:none; stroke:#000000;stroke-width:1" d="M526.0 155.0 L579.0 155.0" /><polygon style="fill:#000000; stroke:#000000;" points=" 569 150 579 155 569 160 571 155" /><path style="fill:none; stroke:#000000;stroke-width:1" d="M639.0 59.0 L472.0 59.0 L472.0 119.0" /><polygon style="fill:#000000; stroke:#000000;" points=" 477 109 472 119 467 109 472 111" /><path style="fill:none; stroke:#000000;stroke-width:1" d="M640.0 154.0 L692.0 154.0 L692.0 94.0" /><polygon style="fill:#000000; stroke:#000000;" points=" 687 104 692 94 697 104 692 102" /><path style="fill:none; stroke:#000000;stroke-width:1" d="M609.0 206.0 L609.0 251.0 L669.0 251.0" /><polygon style="fill:#000000; stroke:#000000;" points=" 659 246 669 251 659 256 661 251" /><path style="fill:none; stroke:#000000;stroke-width:1" d="M850.0 193.0 L850.0 59.0 L750.0 59.0 L746.0 59.0" /><polygon style="fill:#000000; stroke:#000000;" points=" 756 64 746 59 756 54 754 59" /><path style="fill:none; stroke:#000000;stroke-width:1" d="M776.0 252.0 L819.0 252.0" /><polygon style="fill:#000000; stroke:#000000;" points=" 809 247 819 252 809 257 811 252" /><path style="fill:none; stroke:#000000;stroke-width:1" d="M880.0 251.0 L980.0 251.0" /><polygon style="fill:#000000; stroke:#000000;" points=" 970 246 980 251 970 256 972 251" /><path style="fill:none; stroke:#000000;stroke-width:1" d="M107.0 76.0 L107.0 154.0 L139.0 154.0" /><polygon style="fill:#000000; stroke:#000000;" points=" 129 149 139 154 129 159 131 154" /><path style="fill:none; stroke:#000000;stroke-width:1" d="M200.0 146.0 L260.0 129.0 L256.0 94.0" /><polygon style="fill:#000000; stroke:#000000;" points=" 252 105 256 94 262 103 257 102" /><path style="fill:none; stroke:#000000;stroke-width:1" d="M199.0 59.0 L170.0 59.0 L170.0 110.0" /><polygon style="fill:#000000; stroke:#000000;" points=" 175 100 170 110 165 100 170 102" /><path style="fill:none; stroke:#000000;stroke-width:1" d="M200.0 155.0 L419.0 155.0" /><polygon style="fill:#000000; stroke:#000000;" points=" 409 150 419 155 409 160 411 155" /><defs><linearGradient xmlns:xlink="http://www.w3.org/1999/xlink" xlink:href="#linearGradient66FF6696FF96B6FFB6" id="linearGradient66FF6696FF96B6FFB6_570791023" x1="0" y1="41.0" x2="0" y2="76.0" gradientUnits="userSpaceOnUse" xlink:type="simple" xlink:actuate="onLoad" xlink:show="other" /><linearGradient id="linearGradient66FF6696FF96B6FFB6"><stop style="stop-color:#66FF66;stop-opacity:1;" offset="0.0" id="stop66FF66" /><stop style="stop-color:#96FF96;stop-opacity:1;" offset="0.5" id="stop96FF96" /><stop style="stop-color:#B6FFB6;stop-opacity:1;" offset="1.0" id="stopB6FFB6" /></linearGradient><linearGradient xmlns:xlink="http://www.w3.org/1999/xlink" xlink:href="#linearGradientF8FBFEEDF5FCDEEDFAD4E7F8E2E5E9" id="linearGradientF8FBFEEDF5FCDEEDFAD4E7F8E2E5E9_750939743" x1="0" y1="120.0" x2="0" y2="226.0" gradientUnits="userSpaceOnUse" xlink:type="simple" xlink:actuate="onLoad" xlink:show="other" /><linearGradient id="linearGradientF8FBFEEDF5FCDEEDFAD4E7F8E2E5E9"><stop style="stop-color:#F8FBFE;stop-opacity:1;" offset="0.0" id="stopF8FBFE" /><stop style="stop-color:#EDF5FC;stop-opacity:1;" offset="0.25" id="stopEDF5FC" /><stop style="stop-color:#DEEDFA;stop-opacity:1;" offset="0.5" id="stopDEEDFA" /><stop style="stop-color:#D4E7F8;stop-opacity:1;" offset="0.75" id="stopD4E7F8" /><stop style="stop-color:#E2E5E9;stop-opacity:1;" offset="1.0" id="stopE2E5E9" /></linearGradient><linearGradient xmlns:xlink="http://www.w3.org/1999/xlink" xlink:href="#linearGradientFAFBFCFFFFCC" id="linearGradientFAFBFCFFFFCC_687734559" x1="0" y1="104.0" x2="0" y2="164.0" gradientUnits="userSpaceOnUse" xlink:type="simple" xlink:actuate="onLoad" xlink:show="other" /><linearGradient id="linearGradientFAFBFCFFFFCC"><stop style="stop-color:#FAFBFC;stop-opacity:1;" offset="0.0" id="stopFAFBFC" /><stop style="stop-color:#FFFFCC;stop-opacity:1;" offset="1.0" id="stopFFFFCC" /></linearGradient><linearGradient xmlns:xlink="http://www.w3.org/1999/xlink" xlink:href="#linearGradientF8FBFEEDF5FCDEEDFAD4E7F8E2E5E9" id="linearGradientF8FBFEEDF5FCDEEDFAD4E7F8E2E5E9_1845453924" x1="0" y1="24.0" x2="0" y2="130.0" gradientUnits="userSpaceOnUse" xlink:type="simple" xlink:actuate="onLoad" xlink:show="other" /><linearGradient xmlns:xlink="http://www.w3.org/1999/xlink" xlink:href="#linearGradientF8FBFEEDF5FCDEEDFAD4E7F8E2E5E9" id="linearGradientF8FBFEEDF5FCDEEDFAD4E7F8E2E5E9_1666659160" x1="0" y1="217.0" x2="0" y2="323.0" gradientUnits="userSpaceOnUse" xlink:type="simple" xlink:actuate="onLoad" xlink:show="other" /><linearGradient xmlns:xlink="http://www.w3.org/1999/xlink" xlink:href="#linearGradientFAFBFCFFFFCC" id="linearGradientFAFBFCFFFFCC_1549273595" x1="0" y1="194.0" x2="0" y2="254.0" gradientUnits="userSpaceOnUse" xlink:type="simple" xlink:actuate="onLoad" xlink:show="other" /><linearGradient xmlns:xlink="http://www.w3.org/1999/xlink" xlink:href="#linearGradientFF6666FF9696FFB6B6" id="linearGradientFF6666FF9696FFB6B6_454688872" x1="0" y1="234.0" x2="0" y2="269.0" gradientUnits="userSpaceOnUse" xlink:type="simple" xlink:actuate="onLoad" xlink:show="other" /><linearGradient id="linearGradientFF6666FF9696FFB6B6"><stop style="stop-color:#FF6666;stop-opacity:1;" offset="0.0" id="stopFF6666" /><stop style="stop-color:#FF9696;stop-opacity:1;" offset="0.5" id="stopFF9696" /><stop style="stop-color:#FFB6B6;stop-opacity:1;" offset="1.0" id="stopFFB6B6" /></linearGradient><linearGradient xmlns:xlink="http://www.w3.org/1999/xlink" xlink:href="#linearGradientF8FBFEEDF5FCDEEDFAD4E7F8E2E5E9" id="linearGradientF8FBFEEDF5FCDEEDFAD4E7F8E2E5E9_231775019" x1="0" y1="24.0" x2="0" y2="130.0" gradientUnits="userSpaceOnUse" xlink:type="simple" xlink:actuate="onLoad" xlink:show="other" /><linearGradient xmlns:xlink="http://www.w3.org/1999/xlink" xlink:href="#linearGradientFAFBFCFFFFCC" id="linearGradientFAFBFCFFFFCC_1464312890" x1="0" y1="111.0" x2="0" y2="171.0" gradientUnits="userSpaceOnUse" xlink:type="simple" xlink:actuate="onLoad" xlink:show="other" /></defs></svg>
