<?xml version="1.0" encoding="UTF-8"?>
<svg xmlns="http://www.w3.org/2000/svg" style="stroke-dasharray:none; shape-rendering:auto; font-family:'Arial'; text-rendering:auto; fill-opacity:1; color-interpolation:auto; color-rendering:auto; font-size:12; fill:black; stroke:black; image-rendering:auto; stroke-miterlimit:10; stroke-linecap:square; stroke-linejoin:miter; font-style:normal; stroke-width:1; stroke-dashoffset:0; font-weight:normal; stroke-opacity:1;" contentScriptType="text/ecmascript" preserveAspectRatio="xMidYMid meet" zoomAndPan="magnify" version="1.0" contentStyleType="text/css" xml:xlink="http://www.w3.org/1999/xlink" width="1091" height="401"><rect x="10" y="10" width="1081" height="391" ry="0" rx="0" style="stroke:#000000; fill:#FFFFFF" /><rect x="40" y="270" width="1051" height="131" ry="0" rx="0" style="stroke:#000000; fill:#82B0B7" /><g componentSequence="9"><text x="-335" y="47" transform="rotate(270)" text-anchor="middle" style="font-weight:bold;font-size:10px;stroke:none; fill:#434343"><tspan dy="14" x="-335">Comite</tspan></text></g><rect x="40" y="140" width="1051" height="130" ry="0" rx="0" style="stroke:#000000; fill:#C0C0C0" /><g componentSequence="3"><text x="-205" y="47" transform="rotate(270)" text-anchor="middle" style="font-weight:bold;font-size:10px;stroke:none; fill:#434343"><tspan dy="14" x="-205">Garantia GTS</tspan></text></g><rect x="40" y="10" width="1051" height="130" ry="0" rx="0" style="stroke:#000000; fill:#9F9F9F" /><g componentSequence="2"><text x="-75" y="47" transform="rotate(270)" text-anchor="middle" style="font-weight:bold;font-size:10px;stroke:none; fill:#434343"><tspan dy="14" x="-75">Revanda</tspan></text></g><g componentSequence="1"><text x="-205" y="17" transform="rotate(270)" text-anchor="middle" style="font-weight:bold;font-size:10px;stroke:none; fill:#434343"><tspan dy="14" x="-205">Solicitação de Garantias</tspan></text></g><g sequence="4"><ellipse cx="107" cy="58" rx="17" ry="17" stroke-width="1" style="fill:url(#linearGradient66FF6696FF96B6FFB6_345998889);" stroke="336633" /></g><g sequence="7"><rect x="230" y="179" width="106" height="56" ry="5" rx="5" style="fill:url(#linearGradientF8FBFEEDF5FCDEEDFAD4E7F8E2E5E9_442002122);" stroke="191970" /></g><g componentSequence="7"><text x="283" y="196" text-anchor="middle" style="font-weight:bold;font-size:10px;stroke:none; fill:#333399"><tspan dy="14" x="283">Pré Análise</tspan></text></g><g sequence="10"><polygon points=" 460 186 490 156 520 186 490 216 460 186" style="fill:url(#linearGradientFAFBFCFFFFCC_510127449);" stroke="000000" /></g><g componentSequence="10"><text x="490" y="226" text-anchor="middle" style="font-weight:bold;font-size:10px;stroke:none; fill:#333399"><tspan dy="14" x="490">Exclusiv</tspan><tspan dy="14" x="490">o</tspan></text></g><g sequence="12"><rect x="440" y="302" width="106" height="70" ry="5" rx="5" style="fill:url(#linearGradientF8FBFEEDF5FCDEEDFAD4E7F8E2E5E9_1533370609);" stroke="191970" /></g><g componentSequence="12"><text x="493" y="326" text-anchor="middle" style="font-weight:bold;font-size:10px;stroke:none; fill:#333399"><tspan dy="14" x="493">Comite / Anlálise</tspan></text></g><g sequence="14"><polygon points=" 650 316 680 286 710 316 680 346 650 316" style="fill:url(#linearGradientFAFBFCFFFFCC_866323322);" stroke="000000" /></g><g componentSequence="14"><text x="680" y="356" text-anchor="middle" style="font-weight:bold;font-size:10px;stroke:none; fill:#333399"><tspan dy="14" x="680">Exclusiv</tspan><tspan dy="14" x="680">o</tspan></text></g><g sequence="17"><rect x="580" y="210" width="106" height="56" ry="5" rx="5" style="fill:url(#linearGradientF8FBFEEDF5FCDEEDFAD4E7F8E2E5E9_1786001918);" stroke="191970" /></g><g componentSequence="17"><text x="633" y="227" text-anchor="middle" style="font-weight:bold;font-size:10px;stroke:none; fill:#333399"><tspan dy="14" x="633">Envio</tspan></text></g><g sequence="23"><ellipse cx="977" cy="247" rx="17" ry="17" stroke-width="3" style="fill:url(#linearGradientFF6666FF9696FFB6B6_1264061644);" stroke="993333" /></g><g sequence="25"><rect x="430" y="49" width="106" height="56" ry="5" rx="5" style="fill:url(#linearGradientF8FBFEEDF5FCDEEDFAD4E7F8E2E5E9_994746302);" stroke="191970" /></g><g componentSequence="25"><text x="483" y="66" text-anchor="middle" style="font-weight:bold;font-size:10px;stroke:none; fill:#333399"><tspan dy="14" x="483">Atividade</tspan></text></g><g sequence="31"><ellipse cx="607" cy="107" rx="17" ry="17" stroke-width="3" style="fill:url(#linearGradientFF6666FF9696FFB6B6_278506358);" stroke="993333" /></g><g sequence="34"><rect x="690" y="140" width="106" height="56" ry="5" rx="5" style="fill:url(#linearGradientF8FBFEEDF5FCDEEDFAD4E7F8E2E5E9_1533659986);" stroke="191970" /></g><g componentSequence="34"><text x="743" y="157" text-anchor="middle" style="font-weight:bold;font-size:10px;stroke:none; fill:#333399"><tspan dy="14" x="743">Pagamento</tspan></text></g><g sequence="36"><polygon points=" 840 240 870 210 900 240 870 270 840 240" style="fill:url(#linearGradientFAFBFCFFFFCC_1348240031);" stroke="000000" /></g><g componentSequence="36"><text x="870" y="280" text-anchor="middle" style="font-weight:bold;font-size:10px;stroke:none; fill:#333399"><tspan dy="14" x="870">Exclusiv</tspan><tspan dy="14" x="870">o</tspan></text></g><g componentSequence="11"><text x="408" y="207" style="font-size:10px;font-weight:none;stroke:none; fill:#333399" text-anchor="left" /></g><g componentSequence="13"><text x="502" y="280" style="font-size:10px;font-weight:none;stroke:none; fill:#333399" text-anchor="left" /></g><g componentSequence="15"><text x="608" y="337" style="font-size:10px;font-weight:none;stroke:none; fill:#333399" text-anchor="left" /></g><g componentSequence="18"><text x="758" y="319" style="font-size:10px;font-weight:none;stroke:none; fill:#333399" text-anchor="left" /></g><g componentSequence="19"><text x="560" y="220" style="font-size:10px;font-weight:none;stroke:none; fill:#333399" text-anchor="left" /></g><g componentSequence="27"><text x="92" y="307" style="font-size:10px;font-weight:none;stroke:none; fill:#333399" text-anchor="left" /></g><g componentSequence="28"><text x="315" y="76" style="font-size:10px;font-weight:none;stroke:none; fill:#333399" text-anchor="left" /></g><g componentSequence="29"><text x="496" y="130" style="font-size:10px;font-weight:none;stroke:none; fill:#333399" text-anchor="left" /></g><g componentSequence="30"><text x="611" y="377" style="font-size:10px;font-weight:none;stroke:none; fill:#333399" text-anchor="left" /></g><g componentSequence="32"><text x="565" y="152" style="font-size:10px;font-weight:none;stroke:none; fill:#333399" text-anchor="left" /></g><g componentSequence="33"><text x="117" y="202" style="font-size:10px;font-weight:none;stroke:none; fill:#333399" text-anchor="left" /></g><g componentSequence="35"><text x="612" y="168" style="font-size:10px;font-weight:none;stroke:none; fill:#333399" text-anchor="left" /></g><g componentSequence="37"><text x="773" y="251" style="font-size:10px;font-weight:none;stroke:none; fill:#333399" text-anchor="left" /></g><g componentSequence="38"><text x="821" y="217" style="font-size:10px;font-weight:none;stroke:none; fill:#333399" text-anchor="left" /></g><g componentSequence="39"><text x="940" y="253" style="font-size:10px;font-weight:none;stroke:none; fill:#333399" text-anchor="left" /></g><g componentSequence="41"><text x="895" y="187" style="font-size:10px;font-weight:none;stroke:none; fill:#333399" text-anchor="left" /></g><g componentSequence="40"><text x="1040" y="295" style="font-size:10px;font-weight:none;stroke:none; fill:#333399" text-anchor="left" /></g><path style="fill:none; stroke:#000000;stroke-width:1" d="M107.0 76.0 L107.0 206.0 L229.0 206.0" /><polygon style="fill:#000000; stroke:#000000;" points=" 219 201 229 206 219 211 221 206" /><path style="fill:none; stroke:#000000;stroke-width:1" d="M336.0 207.0 L459.0 207.0" /><polygon style="fill:#000000; stroke:#000000;" points=" 449 202 459 207 449 212 451 207" /><path style="fill:none; stroke:#000000;stroke-width:1" d="M429.0 76.0 L282.0 76.0 L282.0 178.0" /><polygon style="fill:#000000; stroke:#000000;" points=" 287 168 282 178 277 168 282 170" /><path style="fill:none; stroke:#000000;stroke-width:1" d="M491.0 258.0 L492.0 301.0" /><polygon style="fill:#000000; stroke:#000000;" points=" 497 291 492 301 487 291 492 293" /><path style="fill:none; stroke:#000000;stroke-width:1" d="M520.0 213.0 L579.0 226.0" /><polygon style="fill:#000000; stroke:#000000;" points=" 570 219 579 226 568 229 571 224" /><path style="fill:none; stroke:#000000;stroke-width:1" d="M487.0 155.0 L484.0 105.0" /><polygon style="fill:#000000; stroke:#000000;" points=" 480 115 484 105 490 115 484 113" /><path style="fill:none; stroke:#000000;stroke-width:1" d="M520.0 181.0 L594.0 118.0" /><polygon style="fill:#000000; stroke:#000000;" points=" 583 121 594 118 590 128 588 123" /><path style="fill:none; stroke:#000000;stroke-width:1" d="M520.0 195.0 L590.0 168.0 L689.0 168.0" /><polygon style="fill:#000000; stroke:#000000;" points=" 679 163 689 168 679 173 681 168" /><path style="fill:none; stroke:#000000;stroke-width:1" d="M546.0 337.0 L649.0 337.0" /><polygon style="fill:#000000; stroke:#000000;" points=" 639 332 649 337 639 342 641 337" /><path style="fill:none; stroke:#000000;stroke-width:1" d="M649.0 371.0 L633.0 389.0 L546.0 356.0" /><polygon style="fill:#000000; stroke:#000000;" points=" 554 364 546 356 557 355 553 359" /><path style="fill:none; stroke:#000000;stroke-width:1" d="M710.0 336.0 L772.0 336.0 L673.0 266.0" /><polygon style="fill:#000000; stroke:#000000;" points=" 678 276 673 266 684 268 680 271" /><path style="fill:none; stroke:#000000;stroke-width:1" d="M685.0 388.0 L685.0 393.0 L82.0 393.0 L82.0 31.0 L483.0 31.0 L483.0 48.0" /><polygon style="fill:#000000; stroke:#000000;" points=" 488 38 483 48 478 38 483 40" /><path style="fill:none; stroke:#000000;stroke-width:1" d="M710.0 336.0 L1030.0 335.0 L1030.0 168.0 L796.0 168.0" /><polygon style="fill:#000000; stroke:#000000;" points=" 806 173 796 168 806 163 804 168" /><path style="fill:none; stroke:#000000;stroke-width:1" d="M686.0 243.0 L839.0 258.0" /><polygon style="fill:#000000; stroke:#000000;" points=" 830 252 839 258 829 262 831 257" /><path style="fill:none; stroke:#000000;stroke-width:1" d="M900.0 257.0 L960.0 249.0" /><polygon style="fill:#000000; stroke:#000000;" points=" 949 245 960 249 951 255 952 250" /><path style="fill:none; stroke:#000000;stroke-width:1" d="M839.0 238.0 L781.0 196.0" /><polygon style="fill:#000000; stroke:#000000;" points=" 786 206 781 196 792 198 787 201" /><path style="fill:none; stroke:#000000;stroke-width:1" d="M796.0 175.0 L924.0 193.0 L965.0 235.0" /><polygon style="fill:#000000; stroke:#000000;" points=" 962 224 965 235 954 231 959 229" /><defs><linearGradient xmlns:xlink="http://www.w3.org/1999/xlink" xlink:href="#linearGradient66FF6696FF96B6FFB6" id="linearGradient66FF6696FF96B6FFB6_345998889" x1="0" y1="41.0" x2="0" y2="76.0" gradientUnits="userSpaceOnUse" xlink:type="simple" xlink:actuate="onLoad" xlink:show="other" /><linearGradient id="linearGradient66FF6696FF96B6FFB6"><stop style="stop-color:#66FF66;stop-opacity:1;" offset="0.0" id="stop66FF66" /><stop style="stop-color:#96FF96;stop-opacity:1;" offset="0.5" id="stop96FF96" /><stop style="stop-color:#B6FFB6;stop-opacity:1;" offset="1.0" id="stopB6FFB6" /></linearGradient><linearGradient xmlns:xlink="http://www.w3.org/1999/xlink" xlink:href="#linearGradientF8FBFEEDF5FCDEEDFAD4E7F8E2E5E9" id="linearGradientF8FBFEEDF5FCDEEDFAD4E7F8E2E5E9_442002122" x1="0" y1="179.0" x2="0" y2="285.0" gradientUnits="userSpaceOnUse" xlink:type="simple" xlink:actuate="onLoad" xlink:show="other" /><linearGradient id="linearGradientF8FBFEEDF5FCDEEDFAD4E7F8E2E5E9"><stop style="stop-color:#F8FBFE;stop-opacity:1;" offset="0.0" id="stopF8FBFE" /><stop style="stop-color:#EDF5FC;stop-opacity:1;" offset="0.25" id="stopEDF5FC" /><stop style="stop-color:#DEEDFA;stop-opacity:1;" offset="0.5" id="stopDEEDFA" /><stop style="stop-color:#D4E7F8;stop-opacity:1;" offset="0.75" id="stopD4E7F8" /><stop style="stop-color:#E2E5E9;stop-opacity:1;" offset="1.0" id="stopE2E5E9" /></linearGradient><linearGradient xmlns:xlink="http://www.w3.org/1999/xlink" xlink:href="#linearGradientFAFBFCFFFFCC" id="linearGradientFAFBFCFFFFCC_510127449" x1="0" y1="156.0" x2="0" y2="216.0" gradientUnits="userSpaceOnUse" xlink:type="simple" xlink:actuate="onLoad" xlink:show="other" /><linearGradient id="linearGradientFAFBFCFFFFCC"><stop style="stop-color:#FAFBFC;stop-opacity:1;" offset="0.0" id="stopFAFBFC" /><stop style="stop-color:#FFFFCC;stop-opacity:1;" offset="1.0" id="stopFFFFCC" /></linearGradient><linearGradient xmlns:xlink="http://www.w3.org/1999/xlink" xlink:href="#linearGradientF8FBFEEDF5FCDEEDFAD4E7F8E2E5E9" id="linearGradientF8FBFEEDF5FCDEEDFAD4E7F8E2E5E9_1533370609" x1="0" y1="302.0" x2="0" y2="408.0" gradientUnits="userSpaceOnUse" xlink:type="simple" xlink:actuate="onLoad" xlink:show="other" /><linearGradient xmlns:xlink="http://www.w3.org/1999/xlink" xlink:href="#linearGradientFAFBFCFFFFCC" id="linearGradientFAFBFCFFFFCC_866323322" x1="0" y1="286.0" x2="0" y2="346.0" gradientUnits="userSpaceOnUse" xlink:type="simple" xlink:actuate="onLoad" xlink:show="other" /><linearGradient xmlns:xlink="http://www.w3.org/1999/xlink" xlink:href="#linearGradientF8FBFEEDF5FCDEEDFAD4E7F8E2E5E9" id="linearGradientF8FBFEEDF5FCDEEDFAD4E7F8E2E5E9_1786001918" x1="0" y1="210.0" x2="0" y2="316.0" gradientUnits="userSpaceOnUse" xlink:type="simple" xlink:actuate="onLoad" xlink:show="other" /><linearGradient xmlns:xlink="http://www.w3.org/1999/xlink" xlink:href="#linearGradientFF6666FF9696FFB6B6" id="linearGradientFF6666FF9696FFB6B6_1264061644" x1="0" y1="230.0" x2="0" y2="265.0" gradientUnits="userSpaceOnUse" xlink:type="simple" xlink:actuate="onLoad" xlink:show="other" /><linearGradient id="linearGradientFF6666FF9696FFB6B6"><stop style="stop-color:#FF6666;stop-opacity:1;" offset="0.0" id="stopFF6666" /><stop style="stop-color:#FF9696;stop-opacity:1;" offset="0.5" id="stopFF9696" /><stop style="stop-color:#FFB6B6;stop-opacity:1;" offset="1.0" id="stopFFB6B6" /></linearGradient><linearGradient xmlns:xlink="http://www.w3.org/1999/xlink" xlink:href="#linearGradientF8FBFEEDF5FCDEEDFAD4E7F8E2E5E9" id="linearGradientF8FBFEEDF5FCDEEDFAD4E7F8E2E5E9_994746302" x1="0" y1="49.0" x2="0" y2="155.0" gradientUnits="userSpaceOnUse" xlink:type="simple" xlink:actuate="onLoad" xlink:show="other" /><linearGradient xmlns:xlink="http://www.w3.org/1999/xlink" xlink:href="#linearGradientFF6666FF9696FFB6B6" id="linearGradientFF6666FF9696FFB6B6_278506358" x1="0" y1="90.0" x2="0" y2="125.0" gradientUnits="userSpaceOnUse" xlink:type="simple" xlink:actuate="onLoad" xlink:show="other" /><linearGradient xmlns:xlink="http://www.w3.org/1999/xlink" xlink:href="#linearGradientF8FBFEEDF5FCDEEDFAD4E7F8E2E5E9" id="linearGradientF8FBFEEDF5FCDEEDFAD4E7F8E2E5E9_1533659986" x1="0" y1="140.0" x2="0" y2="246.0" gradientUnits="userSpaceOnUse" xlink:type="simple" xlink:actuate="onLoad" xlink:show="other" /><linearGradient xmlns:xlink="http://www.w3.org/1999/xlink" xlink:href="#linearGradientFAFBFCFFFFCC" id="linearGradientFAFBFCFFFFCC_1348240031" x1="0" y1="210.0" x2="0" y2="270.0" gradientUnits="userSpaceOnUse" xlink:type="simple" xlink:actuate="onLoad" xlink:show="other" /></defs></svg>
