<?xml version="1.0" encoding="UTF-8"?>
<svg xmlns="http://www.w3.org/2000/svg" style="stroke-dasharray:none; shape-rendering:auto; font-family:'Arial'; text-rendering:auto; fill-opacity:1; color-interpolation:auto; color-rendering:auto; font-size:12; fill:black; stroke:black; image-rendering:auto; stroke-miterlimit:10; stroke-linecap:square; stroke-linejoin:miter; font-style:normal; stroke-width:1; stroke-dashoffset:0; font-weight:normal; stroke-opacity:1;" contentScriptType="text/ecmascript" preserveAspectRatio="xMidYMid meet" zoomAndPan="magnify" version="1.0" contentStyleType="text/css" xml:xlink="http://www.w3.org/1999/xlink" width="1331" height="511"><rect x="10" y="10" width="1321" height="501" ry="0" rx="0" style="stroke:#000000; fill:#FFFFFF" /><rect x="40" y="10" width="1291" height="250" ry="0" rx="0" style="stroke:#000000; fill:#C0C0C0" /><g componentSequence="3"><text x="-135" y="47" transform="rotate(270)" text-anchor="middle" style="font-weight:bold;font-size:10px;stroke:none; fill:#434343"><tspan dy="14" x="-135">Assignee</tspan></text></g><rect x="40" y="260" width="1291" height="251" ry="0" rx="0" style="stroke:#000000; fill:#9F9F9F" /><g componentSequence="2"><text x="-385" y="47" transform="rotate(270)" text-anchor="middle" style="font-weight:bold;font-size:10px;stroke:none; fill:#434343"><tspan dy="14" x="-385">s</tspan></text></g><g componentSequence="1"><text x="-260" y="17" transform="rotate(270)" text-anchor="middle" style="font-weight:bold;font-size:10px;stroke:none; fill:#434343"><tspan dy="14" x="-260">Pool</tspan></text></g><g sequence="4"><ellipse cx="117" cy="137" rx="17" ry="17" stroke-width="1" style="fill:url(#linearGradient66FF6696FF96B6FFB6_1937211036);" stroke="336633" /></g><g sequence="10"><rect x="620" y="354" width="106" height="70" ry="5" rx="5" style="fill:url(#linearGradientF8FBFEEDF5FCDEEDFAD4E7F8E2E5E9_2108722818);" stroke="191970" /></g><g componentSequence="10"><text x="673" y="369" text-anchor="middle" style="font-weight:bold;font-size:10px;stroke:none; fill:#333399"><tspan dy="14" x="673">Pesquisa_Pos_S</tspan><tspan dy="14" x="673">afra</tspan></text></g><g sequence="18"><rect x="290" y="103" width="106" height="70" ry="5" rx="5" style="fill:url(#linearGradientF8FBFEEDF5FCDEEDFAD4E7F8E2E5E9_2039420396);" stroke="191970" /></g><g componentSequence="18"><text x="343" y="118" text-anchor="middle" style="font-weight:bold;font-size:10px;stroke:none; fill:#333399"><tspan dy="14" x="343">Registro_Ocorrê</tspan><tspan dy="14" x="343">ncias</tspan></text></g><g sequence="20"><polygon points=" 500 117 530 87 560 117 530 147 500 117" style="fill:url(#linearGradientFAFBFCFFFFCC_1015907513);" stroke="000000" /></g><g componentSequence="20"><text x="530" y="157" text-anchor="middle" style="font-weight:bold;font-size:10px;stroke:none; fill:#333399"><tspan dy="14" x="530">Finalizou</tspan><tspan dy="14" x="530">as</tspan><tspan dy="14" x="530">Ocor...</tspan></text></g><g sequence="26"><rect x="800" y="103" width="106" height="70" ry="5" rx="5" style="fill:url(#linearGradientF8FBFEEDF5FCDEEDFAD4E7F8E2E5E9_1959169578);" stroke="191970" /></g><g componentSequence="26"><text x="853" y="118" text-anchor="middle" style="font-weight:bold;font-size:10px;stroke:none; fill:#333399"><tspan dy="14" x="853">Ocorrência_Pos</tspan><tspan dy="14" x="853">_Safra</tspan></text></g><g sequence="28"><ellipse cx="1217" cy="227" rx="17" ry="17" stroke-width="3" style="fill:url(#linearGradientFF6666FF9696FFB6B6_226220718);" stroke="993333" /></g><g sequence="30"><polygon points=" 1060 110 1090 80 1120 110 1090 140 1060 110" style="fill:url(#linearGradientFAFBFCFFFFCC_215649944);" stroke="000000" /></g><g componentSequence="30"><text x="1090" y="150" text-anchor="middle" style="font-weight:bold;font-size:10px;stroke:none; fill:#333399"><tspan dy="14" x="1090">Finalizou</tspan><tspan dy="14" x="1090">_Ocorrê</tspan><tspan dy="14" x="1090">ncias...</tspan></text></g><g sequence="42"><ellipse cx="705" cy="71" rx="17" ry="17" stroke-width="3" style="fill:url(#linearGradientFF6666FF9696FFB6B6_1554152438);" stroke="993333" /></g><g sequence="44"><polygon points=" 820 361 850 331 880 361 850 391 820 361" style="fill:url(#linearGradientFAFBFCFFFFCC_475339158);" stroke="000000" /></g><g componentSequence="44"><text x="850" y="401" text-anchor="middle" style="font-weight:bold;font-size:10px;stroke:none; fill:#333399"><tspan dy="14" x="850">finaliza</tspan><tspan dy="14" x="850">pós</tspan><tspan dy="14" x="850">safra?</tspan></text></g><g sequence="49"><polygon points=" 190 375 220 345 250 375 220 405 190 375" style="fill:url(#linearGradientFAFBFCFFFFCC_1328029208);" stroke="000000" /></g><g componentSequence="49"><text x="220" y="408" text-anchor="middle" style="font-weight:bold;font-size:10px;stroke:none; fill:#333399"><tspan dy="14" x="220">contato?</tspan></text></g><g sequence="54"><ellipse cx="448" cy="466" rx="17" ry="17" stroke-width="3" style="fill:url(#linearGradientFF6666FF9696FFB6B6_400484139);" stroke="993333" /></g><g componentSequence="21"><text x="458" y="138" style="font-size:10px;font-weight:none;stroke:none; fill:#333399" text-anchor="left" /></g><g componentSequence="22"><text x="682" y="189" style="font-size:10px;font-weight:none;stroke:none; fill:#333399" text-anchor="left"><tspan dy="14" x="682">sim</tspan></text></g><g componentSequence="23"><text x="456" y="56" style="font-size:10px;font-weight:none;stroke:none; fill:#333399" text-anchor="left"><tspan dy="14" x="456">Não</tspan></text></g><g componentSequence="31"><text x="993" y="138" style="font-size:10px;font-weight:none;stroke:none; fill:#333399" text-anchor="left" /></g><g componentSequence="32"><text x="1215" y="137" style="font-size:10px;font-weight:none;stroke:none; fill:#333399" text-anchor="left"><tspan dy="14" x="1215">Sim</tspan></text></g><g componentSequence="33"><text x="994" y="63" style="font-size:10px;font-weight:none;stroke:none; fill:#333399" text-anchor="left"><tspan dy="14" x="994">Não</tspan></text></g><g componentSequence="43"><text x="623" y="71" style="font-size:10px;font-weight:none;stroke:none; fill:#333399" text-anchor="left" /></g><g componentSequence="45"><text x="783" y="389" style="font-size:10px;font-weight:none;stroke:none; fill:#333399" text-anchor="left" /></g><g componentSequence="46"><text x="861" y="252" style="font-size:10px;font-weight:none;stroke:none; fill:#333399" text-anchor="left" /></g><g componentSequence="47"><text x="1131" y="390" style="font-size:10px;font-weight:none;stroke:none; fill:#333399" text-anchor="left" /></g><g componentSequence="48"><text x="776" y="484" style="font-size:10px;font-weight:none;stroke:none; fill:#333399" text-anchor="left" /></g><g componentSequence="50"><text x="127" y="308" style="font-size:10px;font-weight:none;stroke:none; fill:#333399" text-anchor="left" /></g><g componentSequence="51"><text x="445" y="389" style="font-size:10px;font-weight:none;stroke:none; fill:#333399" text-anchor="left" /></g><g componentSequence="52"><text x="353" y="304" style="font-size:10px;font-weight:none;stroke:none; fill:#333399" text-anchor="left" /></g><g componentSequence="53"><text x="232" y="197" style="font-size:10px;font-weight:none;stroke:none; fill:#333399" text-anchor="left" /></g><g componentSequence="55"><text x="319" y="466" style="font-size:10px;font-weight:none;stroke:none; fill:#333399" text-anchor="left" /></g><path style="fill:none; stroke:#000000;stroke-width:1" d="M726.0 389.0 L819.0 389.0" /><polygon style="fill:#000000; stroke:#000000;" points=" 809 384 819 389 809 394 811 389" /><path style="fill:none; stroke:#000000;stroke-width:1" d="M560.0 137.0 L672.0 137.0 L672.0 353.0" /><polygon style="fill:#000000; stroke:#000000;" points=" 677 343 672 353 667 343 672 345" /><path style="fill:none; stroke:#000000;stroke-width:1" d="M819.0 426.0 L769.0 487.0 L707.0 424.0" /><polygon style="fill:#000000; stroke:#000000;" points=" 710 435 707 424 718 428 713 430" /><path style="fill:none; stroke:#000000;stroke-width:1" d="M396.0 138.0 L499.0 138.0" /><polygon style="fill:#000000; stroke:#000000;" points=" 489 133 499 138 489 143 491 138" /><path style="fill:none; stroke:#000000;stroke-width:1" d="M499.0 107.0 L447.0 55.0 L387.0 102.0" /><polygon style="fill:#000000; stroke:#000000;" points=" 398 100 387 102 392 92 393 97" /><path style="fill:none; stroke:#000000;stroke-width:1" d="M549.0 86.0 L555.0 71.0 L687.0 71.0" /><polygon style="fill:#000000; stroke:#000000;" points=" 677 66 687 71 677 76 679 71" /><path style="fill:none; stroke:#000000;stroke-width:1" d="M906.0 138.0 L1059.0 138.0" /><polygon style="fill:#000000; stroke:#000000;" points=" 1049 133 1059 138 1049 143 1051 138" /><path style="fill:none; stroke:#000000;stroke-width:1" d="M1059.0 116.0 L979.0 60.0 L906.0 105.0" /><polygon style="fill:#000000; stroke:#000000;" points=" 917 104 906 105 912 95 913 101" /><path style="fill:none; stroke:#000000;stroke-width:1" d="M850.0 330.0 L852.0 173.0" /><polygon style="fill:#000000; stroke:#000000;" points=" 847 183 852 173 857 183 852 181" /><path style="fill:none; stroke:#000000;stroke-width:1" d="M1120.0 137.0 L1217.0 137.0 L1217.0 209.0" /><polygon style="fill:#000000; stroke:#000000;" points=" 1222 199 1217 209 1212 199 1217 201" /><path style="fill:none; stroke:#000000;stroke-width:1" d="M880.0 389.0 L1217.0 391.0 L1217.0 245.0" /><polygon style="fill:#000000; stroke:#000000;" points=" 1212 255 1217 245 1222 255 1217 253" /><path style="fill:none; stroke:#000000;stroke-width:1" d="M117.0 155.0 L117.0 388.0 L189.0 388.0" /><polygon style="fill:#000000; stroke:#000000;" points=" 179 383 189 388 179 393 181 388" /><path style="fill:none; stroke:#000000;stroke-width:1" d="M250.0 389.0 L619.0 389.0" /><polygon style="fill:#000000; stroke:#000000;" points=" 609 384 619 389 609 394 611 389" /><path style="fill:none; stroke:#000000;stroke-width:1" d="M250.0 375.0 L343.0 332.0 L343.0 173.0" /><polygon style="fill:#000000; stroke:#000000;" points=" 338 183 343 173 348 183 343 181" /><path style="fill:none; stroke:#000000;stroke-width:1" d="M220.0 344.0 L223.0 137.0 L135.0 137.0" /><polygon style="fill:#000000; stroke:#000000;" points=" 145 142 135 137 145 132 143 137" /><path style="fill:none; stroke:#000000;stroke-width:1" d="M220.0 433.0 L220.0 466.0 L430.0 466.0" /><polygon style="fill:#000000; stroke:#000000;" points=" 420 461 430 466 420 471 422 466" /><defs><linearGradient xmlns:xlink="http://www.w3.org/1999/xlink" xlink:href="#linearGradient66FF6696FF96B6FFB6" id="linearGradient66FF6696FF96B6FFB6_1937211036" x1="0" y1="120.0" x2="0" y2="155.0" gradientUnits="userSpaceOnUse" xlink:type="simple" xlink:actuate="onLoad" xlink:show="other" /><linearGradient id="linearGradient66FF6696FF96B6FFB6"><stop style="stop-color:#66FF66;stop-opacity:1;" offset="0.0" id="stop66FF66" /><stop style="stop-color:#96FF96;stop-opacity:1;" offset="0.5" id="stop96FF96" /><stop style="stop-color:#B6FFB6;stop-opacity:1;" offset="1.0" id="stopB6FFB6" /></linearGradient><linearGradient xmlns:xlink="http://www.w3.org/1999/xlink" xlink:href="#linearGradientF8FBFEEDF5FCDEEDFAD4E7F8E2E5E9" id="linearGradientF8FBFEEDF5FCDEEDFAD4E7F8E2E5E9_2108722818" x1="0" y1="354.0" x2="0" y2="460.0" gradientUnits="userSpaceOnUse" xlink:type="simple" xlink:actuate="onLoad" xlink:show="other" /><linearGradient id="linearGradientF8FBFEEDF5FCDEEDFAD4E7F8E2E5E9"><stop style="stop-color:#F8FBFE;stop-opacity:1;" offset="0.0" id="stopF8FBFE" /><stop style="stop-color:#EDF5FC;stop-opacity:1;" offset="0.25" id="stopEDF5FC" /><stop style="stop-color:#DEEDFA;stop-opacity:1;" offset="0.5" id="stopDEEDFA" /><stop style="stop-color:#D4E7F8;stop-opacity:1;" offset="0.75" id="stopD4E7F8" /><stop style="stop-color:#E2E5E9;stop-opacity:1;" offset="1.0" id="stopE2E5E9" /></linearGradient><linearGradient xmlns:xlink="http://www.w3.org/1999/xlink" xlink:href="#linearGradientF8FBFEEDF5FCDEEDFAD4E7F8E2E5E9" id="linearGradientF8FBFEEDF5FCDEEDFAD4E7F8E2E5E9_2039420396" x1="0" y1="103.0" x2="0" y2="209.0" gradientUnits="userSpaceOnUse" xlink:type="simple" xlink:actuate="onLoad" xlink:show="other" /><linearGradient xmlns:xlink="http://www.w3.org/1999/xlink" xlink:href="#linearGradientFAFBFCFFFFCC" id="linearGradientFAFBFCFFFFCC_1015907513" x1="0" y1="87.0" x2="0" y2="147.0" gradientUnits="userSpaceOnUse" xlink:type="simple" xlink:actuate="onLoad" xlink:show="other" /><linearGradient id="linearGradientFAFBFCFFFFCC"><stop style="stop-color:#FAFBFC;stop-opacity:1;" offset="0.0" id="stopFAFBFC" /><stop style="stop-color:#FFFFCC;stop-opacity:1;" offset="1.0" id="stopFFFFCC" /></linearGradient><linearGradient xmlns:xlink="http://www.w3.org/1999/xlink" xlink:href="#linearGradientF8FBFEEDF5FCDEEDFAD4E7F8E2E5E9" id="linearGradientF8FBFEEDF5FCDEEDFAD4E7F8E2E5E9_1959169578" x1="0" y1="103.0" x2="0" y2="209.0" gradientUnits="userSpaceOnUse" xlink:type="simple" xlink:actuate="onLoad" xlink:show="other" /><linearGradient xmlns:xlink="http://www.w3.org/1999/xlink" xlink:href="#linearGradientFF6666FF9696FFB6B6" id="linearGradientFF6666FF9696FFB6B6_226220718" x1="0" y1="210.0" x2="0" y2="245.0" gradientUnits="userSpaceOnUse" xlink:type="simple" xlink:actuate="onLoad" xlink:show="other" /><linearGradient id="linearGradientFF6666FF9696FFB6B6"><stop style="stop-color:#FF6666;stop-opacity:1;" offset="0.0" id="stopFF6666" /><stop style="stop-color:#FF9696;stop-opacity:1;" offset="0.5" id="stopFF9696" /><stop style="stop-color:#FFB6B6;stop-opacity:1;" offset="1.0" id="stopFFB6B6" /></linearGradient><linearGradient xmlns:xlink="http://www.w3.org/1999/xlink" xlink:href="#linearGradientFAFBFCFFFFCC" id="linearGradientFAFBFCFFFFCC_215649944" x1="0" y1="80.0" x2="0" y2="140.0" gradientUnits="userSpaceOnUse" xlink:type="simple" xlink:actuate="onLoad" xlink:show="other" /><linearGradient xmlns:xlink="http://www.w3.org/1999/xlink" xlink:href="#linearGradientFF6666FF9696FFB6B6" id="linearGradientFF6666FF9696FFB6B6_1554152438" x1="0" y1="54.0" x2="0" y2="89.0" gradientUnits="userSpaceOnUse" xlink:type="simple" xlink:actuate="onLoad" xlink:show="other" /><linearGradient xmlns:xlink="http://www.w3.org/1999/xlink" xlink:href="#linearGradientFAFBFCFFFFCC" id="linearGradientFAFBFCFFFFCC_475339158" x1="0" y1="331.0" x2="0" y2="391.0" gradientUnits="userSpaceOnUse" xlink:type="simple" xlink:actuate="onLoad" xlink:show="other" /><linearGradient xmlns:xlink="http://www.w3.org/1999/xlink" xlink:href="#linearGradientFAFBFCFFFFCC" id="linearGradientFAFBFCFFFFCC_1328029208" x1="0" y1="345.0" x2="0" y2="405.0" gradientUnits="userSpaceOnUse" xlink:type="simple" xlink:actuate="onLoad" xlink:show="other" /><linearGradient xmlns:xlink="http://www.w3.org/1999/xlink" xlink:href="#linearGradientFF6666FF9696FFB6B6" id="linearGradientFF6666FF9696FFB6B6_400484139" x1="0" y1="449.0" x2="0" y2="484.0" gradientUnits="userSpaceOnUse" xlink:type="simple" xlink:actuate="onLoad" xlink:show="other" /></defs></svg>
