<?xml version="1.0" encoding="UTF-8"?>
<svg xmlns="http://www.w3.org/2000/svg" style="stroke-dasharray:none; shape-rendering:auto; font-family:'Arial'; text-rendering:auto; fill-opacity:1; color-interpolation:auto; color-rendering:auto; font-size:12; fill:black; stroke:black; image-rendering:auto; stroke-miterlimit:10; stroke-linecap:square; stroke-linejoin:miter; font-style:normal; stroke-width:1; stroke-dashoffset:0; font-weight:normal; stroke-opacity:1;" contentScriptType="text/ecmascript" preserveAspectRatio="xMidYMid meet" zoomAndPan="magnify" version="1.0" contentStyleType="text/css" xml:xlink="http://www.w3.org/1999/xlink" width="1331" height="511"><rect x="10" y="10" width="1321" height="501" ry="0" rx="0" style="stroke:#000000; fill:#FFFFFF" /><rect x="40" y="260" width="1291" height="251" ry="0" rx="0" style="stroke:#000000; fill:#C0C0C0" /><g componentSequence="3"><text x="-385" y="47" transform="rotate(270)" text-anchor="middle" style="font-weight:bold;font-size:10px;stroke:none; fill:#434343"><tspan dy="14" x="-385">Assignee</tspan></text></g><rect x="40" y="10" width="1291" height="250" ry="0" rx="0" style="stroke:#000000; fill:#9F9F9F" /><g componentSequence="2"><text x="-135" y="47" transform="rotate(270)" text-anchor="middle" style="font-weight:bold;font-size:10px;stroke:none; fill:#434343"><tspan dy="14" x="-135">s</tspan></text></g><g componentSequence="1"><text x="-260" y="17" transform="rotate(270)" text-anchor="middle" style="font-weight:bold;font-size:10px;stroke:none; fill:#434343"><tspan dy="14" x="-260">Pool</tspan></text></g><g sequence="4"><ellipse cx="97" cy="137" rx="17" ry="17" stroke-width="1" style="fill:url(#linearGradient66FF6696FF96B6FFB6_792692424);" stroke="336633" /></g><g sequence="10"><rect x="620" y="354" width="106" height="70" ry="5" rx="5" style="fill:url(#linearGradientF8FBFEEDF5FCDEEDFAD4E7F8E2E5E9_569929055);" stroke="191970" /></g><g componentSequence="10"><text x="673" y="369" text-anchor="middle" style="font-weight:bold;font-size:10px;stroke:none; fill:#333399"><tspan dy="14" x="673">Pesquisa_Pos_S</tspan><tspan dy="14" x="673">afra</tspan></text></g><g sequence="18"><rect x="290" y="103" width="106" height="70" ry="5" rx="5" style="fill:url(#linearGradientF8FBFEEDF5FCDEEDFAD4E7F8E2E5E9_633859512);" stroke="191970" /></g><g componentSequence="18"><text x="343" y="118" text-anchor="middle" style="font-weight:bold;font-size:10px;stroke:none; fill:#333399"><tspan dy="14" x="343">Registro_Ocorrê</tspan><tspan dy="14" x="343">ncias</tspan></text></g><g sequence="20"><polygon points=" 500 110 530 80 560 110 530 140 500 110" style="fill:url(#linearGradientFAFBFCFFFFCC_1623549796);" stroke="000000" /></g><g componentSequence="20"><text x="530" y="150" text-anchor="middle" style="font-weight:bold;font-size:10px;stroke:none; fill:#333399"><tspan dy="14" x="530">Finalizou</tspan><tspan dy="14" x="530">as</tspan><tspan dy="14" x="530">Ocor...</tspan></text></g><g sequence="26"><rect x="800" y="103" width="106" height="70" ry="5" rx="5" style="fill:url(#linearGradientF8FBFEEDF5FCDEEDFAD4E7F8E2E5E9_866100338);" stroke="191970" /></g><g componentSequence="26"><text x="853" y="118" text-anchor="middle" style="font-weight:bold;font-size:10px;stroke:none; fill:#333399"><tspan dy="14" x="853">Ocorrência_Pos</tspan><tspan dy="14" x="853">_Safra</tspan></text></g><g sequence="28"><ellipse cx="1217" cy="227" rx="17" ry="17" stroke-width="3" style="fill:url(#linearGradientFF6666FF9696FFB6B6_1374660043);" stroke="993333" /></g><g sequence="30"><polygon points=" 1070 110 1100 80 1130 110 1100 140 1070 110" style="fill:url(#linearGradientFAFBFCFFFFCC_1264531555);" stroke="000000" /></g><g componentSequence="30"><text x="1100" y="150" text-anchor="middle" style="font-weight:bold;font-size:10px;stroke:none; fill:#333399"><tspan dy="14" x="1100">Finalizou</tspan><tspan dy="14" x="1100">_Ocorrê</tspan><tspan dy="14" x="1100">ncias...</tspan></text></g><g sequence="42"><ellipse cx="705" cy="71" rx="17" ry="17" stroke-width="3" style="fill:url(#linearGradientFF6666FF9696FFB6B6_15374379);" stroke="993333" /></g><g sequence="44"><polygon points=" 820 361 850 331 880 361 850 391 820 361" style="fill:url(#linearGradientFAFBFCFFFFCC_1318584432);" stroke="000000" /></g><g componentSequence="44"><text x="850" y="401" text-anchor="middle" style="font-weight:bold;font-size:10px;stroke:none; fill:#333399"><tspan dy="14" x="850">finaliza</tspan><tspan dy="14" x="850">pós</tspan><tspan dy="14" x="850">safra?</tspan></text></g><g sequence="49"><polygon points=" 160 375 190 345 220 375 190 405 160 375" style="fill:url(#linearGradientFAFBFCFFFFCC_1660237205);" stroke="000000" /></g><g componentSequence="49"><text x="190" y="408" text-anchor="middle" style="font-weight:bold;font-size:10px;stroke:none; fill:#333399"><tspan dy="14" x="190">contato?</tspan></text></g><g sequence="54"><ellipse cx="448" cy="466" rx="17" ry="17" stroke-width="3" style="fill:url(#linearGradientFF6666FF9696FFB6B6_1348179336);" stroke="993333" /></g><g sequence="56"><rect x="280" y="260" width="106" height="70" ry="5" rx="5" style="fill:url(#linearGradientF8FBFEEDF5FCDEEDFAD4E7F8E2E5E9_77882472);" stroke="191970" /></g><g componentSequence="56"><text x="333" y="275" text-anchor="middle" style="font-weight:bold;font-size:10px;stroke:none; fill:#333399"><tspan dy="14" x="333">Aguardando_Col</tspan><tspan dy="14" x="333">heita</tspan></text></g><g sequence="58"><polygon points=" 458 274 488 244 518 274 488 304 458 274" style="fill:url(#linearGradientFAFBFCFFFFCC_179404556);" stroke="000000" /></g><g componentSequence="58"><text x="488" y="314" text-anchor="middle" style="font-weight:bold;font-size:10px;stroke:none; fill:#333399"><tspan dy="14" x="488">Finalizou</tspan><tspan dy="14" x="488">_Colheita</tspan></text></g><g componentSequence="21"><text x="458" y="138" style="font-size:10px;font-weight:none;stroke:none; fill:#333399" text-anchor="left" /></g><g componentSequence="22"><text x="682" y="189" style="font-size:10px;font-weight:none;stroke:none; fill:#333399" text-anchor="left"><tspan dy="14" x="682">sim</tspan></text></g><g componentSequence="23"><text x="456" y="56" style="font-size:10px;font-weight:none;stroke:none; fill:#333399" text-anchor="left"><tspan dy="14" x="456">Não</tspan></text></g><g componentSequence="31"><text x="998" y="138" style="font-size:10px;font-weight:none;stroke:none; fill:#333399" text-anchor="left" /></g><g componentSequence="32"><text x="1220" y="137" style="font-size:10px;font-weight:none;stroke:none; fill:#333399" text-anchor="left"><tspan dy="14" x="1220">Sim</tspan></text></g><g componentSequence="33"><text x="998" y="66" style="font-size:10px;font-weight:none;stroke:none; fill:#333399" text-anchor="left"><tspan dy="14" x="998">Não</tspan></text></g><g componentSequence="43"><text x="627" y="71" style="font-size:10px;font-weight:none;stroke:none; fill:#333399" text-anchor="left" /></g><g componentSequence="45"><text x="783" y="389" style="font-size:10px;font-weight:none;stroke:none; fill:#333399" text-anchor="left" /></g><g componentSequence="46"><text x="861" y="252" style="font-size:10px;font-weight:none;stroke:none; fill:#333399" text-anchor="left" /></g><g componentSequence="47"><text x="1131" y="390" style="font-size:10px;font-weight:none;stroke:none; fill:#333399" text-anchor="left" /></g><g componentSequence="48"><text x="776" y="484" style="font-size:10px;font-weight:none;stroke:none; fill:#333399" text-anchor="left" /></g><g componentSequence="50"><text x="107" y="303" style="font-size:10px;font-weight:none;stroke:none; fill:#333399" text-anchor="left" /></g><g componentSequence="51"><text x="430" y="389" style="font-size:10px;font-weight:none;stroke:none; fill:#333399" text-anchor="left" /></g><g componentSequence="52"><text x="230" y="232" style="font-size:10px;font-weight:none;stroke:none; fill:#333399" text-anchor="left" /></g><g componentSequence="53"><text x="193" y="208" style="font-size:10px;font-weight:none;stroke:none; fill:#333399" text-anchor="left" /></g><g componentSequence="55"><text x="302" y="466" style="font-size:10px;font-weight:none;stroke:none; fill:#333399" text-anchor="left" /></g><g componentSequence="57"><text x="260" y="350" style="font-size:10px;font-weight:none;stroke:none; fill:#333399" text-anchor="left" /></g><g componentSequence="59"><text x="432" y="295" style="font-size:10px;font-weight:none;stroke:none; fill:#333399" text-anchor="left" /></g><g componentSequence="60"><text x="609" y="295" style="font-size:10px;font-weight:none;stroke:none; fill:#333399" text-anchor="left" /></g><g componentSequence="61"><text x="448" y="211" style="font-size:10px;font-weight:none;stroke:none; fill:#333399" text-anchor="left" /></g><g componentSequence="62"><text x="409" y="372" style="font-size:10px;font-weight:none;stroke:none; fill:#333399" text-anchor="left" /></g><path style="fill:none; stroke:#000000;stroke-width:1" d="M97.0 155.0 L97.0 388.0 L159.0 388.0" /><polygon style="fill:#000000; stroke:#000000;" points=" 149 383 159 388 149 393 151 388" /><path style="fill:none; stroke:#000000;stroke-width:1" d="M188.0 344.0 L180.0 137.0 L115.0 137.0" /><polygon style="fill:#000000; stroke:#000000;" points=" 125 142 115 137 125 132 123 137" /><path style="fill:none; stroke:#000000;stroke-width:1" d="M726.0 389.0 L819.0 389.0" /><polygon style="fill:#000000; stroke:#000000;" points=" 809 384 819 389 809 394 811 389" /><path style="fill:none; stroke:#000000;stroke-width:1" d="M560.0 137.0 L672.0 137.0 L672.0 353.0" /><polygon style="fill:#000000; stroke:#000000;" points=" 677 343 672 353 667 343 672 345" /><path style="fill:none; stroke:#000000;stroke-width:1" d="M819.0 426.0 L769.0 487.0 L707.0 424.0" /><polygon style="fill:#000000; stroke:#000000;" points=" 710 435 707 424 718 428 713 430" /><path style="fill:none; stroke:#000000;stroke-width:1" d="M220.0 389.0 L619.0 389.0" /><polygon style="fill:#000000; stroke:#000000;" points=" 609 384 619 389 609 394 611 389" /><path style="fill:none; stroke:#000000;stroke-width:1" d="M518.0 295.0 L611.0 295.0 L649.0 353.0" /><polygon style="fill:#000000; stroke:#000000;" points=" 648 342 649 353 639 347 645 346" /><path style="fill:none; stroke:#000000;stroke-width:1" d="M396.0 138.0 L499.0 138.0" /><polygon style="fill:#000000; stroke:#000000;" points=" 489 133 499 138 489 143 491 138" /><path style="fill:none; stroke:#000000;stroke-width:1" d="M499.0 107.0 L447.0 55.0 L387.0 102.0" /><polygon style="fill:#000000; stroke:#000000;" points=" 398 100 387 102 392 92 393 97" /><path style="fill:none; stroke:#000000;stroke-width:1" d="M198.0 344.0 L229.0 183.0 L289.0 159.0" /><polygon style="fill:#000000; stroke:#000000;" points=" 278 158 289 159 282 167 282 162" /><path style="fill:none; stroke:#000000;stroke-width:1" d="M552.0 79.0 L555.0 71.0 L687.0 71.0" /><polygon style="fill:#000000; stroke:#000000;" points=" 677 66 687 71 677 76 679 71" /><path style="fill:none; stroke:#000000;stroke-width:1" d="M499.0 162.0 L377.0 259.0" /><polygon style="fill:#000000; stroke:#000000;" points=" 388 257 377 259 382 249 383 254" /><path style="fill:none; stroke:#000000;stroke-width:1" d="M906.0 138.0 L1069.0 138.0" /><polygon style="fill:#000000; stroke:#000000;" points=" 1059 133 1069 138 1059 143 1061 138" /><path style="fill:none; stroke:#000000;stroke-width:1" d="M1069.0 118.0 L979.0 60.0 L906.0 105.0" /><polygon style="fill:#000000; stroke:#000000;" points=" 917 104 906 105 912 95 913 101" /><path style="fill:none; stroke:#000000;stroke-width:1" d="M850.0 330.0 L852.0 173.0" /><polygon style="fill:#000000; stroke:#000000;" points=" 847 183 852 173 857 183 852 181" /><path style="fill:none; stroke:#000000;stroke-width:1" d="M1130.0 137.0 L1217.0 137.0 L1217.0 209.0" /><polygon style="fill:#000000; stroke:#000000;" points=" 1222 199 1217 209 1212 199 1217 201" /><path style="fill:none; stroke:#000000;stroke-width:1" d="M880.0 389.0 L1217.0 391.0 L1217.0 245.0" /><polygon style="fill:#000000; stroke:#000000;" points=" 1212 255 1217 245 1222 255 1217 253" /><path style="fill:none; stroke:#000000;stroke-width:1" d="M189.0 433.0 L188.0 466.0 L430.0 466.0" /><polygon style="fill:#000000; stroke:#000000;" points=" 420 461 430 466 420 471 422 466" /><path style="fill:none; stroke:#000000;stroke-width:1" d="M220.0 369.0 L279.0 330.0" /><polygon style="fill:#000000; stroke:#000000;" points=" 268 331 279 330 273 340 272 334" /><path style="fill:none; stroke:#000000;stroke-width:1" d="M386.0 295.0 L457.0 295.0" /><polygon style="fill:#000000; stroke:#000000;" points=" 447 290 457 295 447 300 449 295" /><path style="fill:none; stroke:#000000;stroke-width:1" d="M483.0 346.0 L481.0 372.0 L332.0 372.0 L332.0 330.0" /><polygon style="fill:#000000; stroke:#000000;" points=" 327 340 332 330 337 340 332 338" /><defs><linearGradient xmlns:xlink="http://www.w3.org/1999/xlink" xlink:href="#linearGradient66FF6696FF96B6FFB6" id="linearGradient66FF6696FF96B6FFB6_792692424" x1="0" y1="120.0" x2="0" y2="155.0" gradientUnits="userSpaceOnUse" xlink:type="simple" xlink:actuate="onLoad" xlink:show="other" /><linearGradient id="linearGradient66FF6696FF96B6FFB6"><stop style="stop-color:#66FF66;stop-opacity:1;" offset="0.0" id="stop66FF66" /><stop style="stop-color:#96FF96;stop-opacity:1;" offset="0.5" id="stop96FF96" /><stop style="stop-color:#B6FFB6;stop-opacity:1;" offset="1.0" id="stopB6FFB6" /></linearGradient><linearGradient xmlns:xlink="http://www.w3.org/1999/xlink" xlink:href="#linearGradientF8FBFEEDF5FCDEEDFAD4E7F8E2E5E9" id="linearGradientF8FBFEEDF5FCDEEDFAD4E7F8E2E5E9_569929055" x1="0" y1="354.0" x2="0" y2="460.0" gradientUnits="userSpaceOnUse" xlink:type="simple" xlink:actuate="onLoad" xlink:show="other" /><linearGradient id="linearGradientF8FBFEEDF5FCDEEDFAD4E7F8E2E5E9"><stop style="stop-color:#F8FBFE;stop-opacity:1;" offset="0.0" id="stopF8FBFE" /><stop style="stop-color:#EDF5FC;stop-opacity:1;" offset="0.25" id="stopEDF5FC" /><stop style="stop-color:#DEEDFA;stop-opacity:1;" offset="0.5" id="stopDEEDFA" /><stop style="stop-color:#D4E7F8;stop-opacity:1;" offset="0.75" id="stopD4E7F8" /><stop style="stop-color:#E2E5E9;stop-opacity:1;" offset="1.0" id="stopE2E5E9" /></linearGradient><linearGradient xmlns:xlink="http://www.w3.org/1999/xlink" xlink:href="#linearGradientF8FBFEEDF5FCDEEDFAD4E7F8E2E5E9" id="linearGradientF8FBFEEDF5FCDEEDFAD4E7F8E2E5E9_633859512" x1="0" y1="103.0" x2="0" y2="209.0" gradientUnits="userSpaceOnUse" xlink:type="simple" xlink:actuate="onLoad" xlink:show="other" /><linearGradient xmlns:xlink="http://www.w3.org/1999/xlink" xlink:href="#linearGradientFAFBFCFFFFCC" id="linearGradientFAFBFCFFFFCC_1623549796" x1="0" y1="80.0" x2="0" y2="140.0" gradientUnits="userSpaceOnUse" xlink:type="simple" xlink:actuate="onLoad" xlink:show="other" /><linearGradient id="linearGradientFAFBFCFFFFCC"><stop style="stop-color:#FAFBFC;stop-opacity:1;" offset="0.0" id="stopFAFBFC" /><stop style="stop-color:#FFFFCC;stop-opacity:1;" offset="1.0" id="stopFFFFCC" /></linearGradient><linearGradient xmlns:xlink="http://www.w3.org/1999/xlink" xlink:href="#linearGradientF8FBFEEDF5FCDEEDFAD4E7F8E2E5E9" id="linearGradientF8FBFEEDF5FCDEEDFAD4E7F8E2E5E9_866100338" x1="0" y1="103.0" x2="0" y2="209.0" gradientUnits="userSpaceOnUse" xlink:type="simple" xlink:actuate="onLoad" xlink:show="other" /><linearGradient xmlns:xlink="http://www.w3.org/1999/xlink" xlink:href="#linearGradientFF6666FF9696FFB6B6" id="linearGradientFF6666FF9696FFB6B6_1374660043" x1="0" y1="210.0" x2="0" y2="245.0" gradientUnits="userSpaceOnUse" xlink:type="simple" xlink:actuate="onLoad" xlink:show="other" /><linearGradient id="linearGradientFF6666FF9696FFB6B6"><stop style="stop-color:#FF6666;stop-opacity:1;" offset="0.0" id="stopFF6666" /><stop style="stop-color:#FF9696;stop-opacity:1;" offset="0.5" id="stopFF9696" /><stop style="stop-color:#FFB6B6;stop-opacity:1;" offset="1.0" id="stopFFB6B6" /></linearGradient><linearGradient xmlns:xlink="http://www.w3.org/1999/xlink" xlink:href="#linearGradientFAFBFCFFFFCC" id="linearGradientFAFBFCFFFFCC_1264531555" x1="0" y1="80.0" x2="0" y2="140.0" gradientUnits="userSpaceOnUse" xlink:type="simple" xlink:actuate="onLoad" xlink:show="other" /><linearGradient xmlns:xlink="http://www.w3.org/1999/xlink" xlink:href="#linearGradientFF6666FF9696FFB6B6" id="linearGradientFF6666FF9696FFB6B6_15374379" x1="0" y1="54.0" x2="0" y2="89.0" gradientUnits="userSpaceOnUse" xlink:type="simple" xlink:actuate="onLoad" xlink:show="other" /><linearGradient xmlns:xlink="http://www.w3.org/1999/xlink" xlink:href="#linearGradientFAFBFCFFFFCC" id="linearGradientFAFBFCFFFFCC_1318584432" x1="0" y1="331.0" x2="0" y2="391.0" gradientUnits="userSpaceOnUse" xlink:type="simple" xlink:actuate="onLoad" xlink:show="other" /><linearGradient xmlns:xlink="http://www.w3.org/1999/xlink" xlink:href="#linearGradientFAFBFCFFFFCC" id="linearGradientFAFBFCFFFFCC_1660237205" x1="0" y1="345.0" x2="0" y2="405.0" gradientUnits="userSpaceOnUse" xlink:type="simple" xlink:actuate="onLoad" xlink:show="other" /><linearGradient xmlns:xlink="http://www.w3.org/1999/xlink" xlink:href="#linearGradientFF6666FF9696FFB6B6" id="linearGradientFF6666FF9696FFB6B6_1348179336" x1="0" y1="449.0" x2="0" y2="484.0" gradientUnits="userSpaceOnUse" xlink:type="simple" xlink:actuate="onLoad" xlink:show="other" /><linearGradient xmlns:xlink="http://www.w3.org/1999/xlink" xlink:href="#linearGradientF8FBFEEDF5FCDEEDFAD4E7F8E2E5E9" id="linearGradientF8FBFEEDF5FCDEEDFAD4E7F8E2E5E9_77882472" x1="0" y1="260.0" x2="0" y2="366.0" gradientUnits="userSpaceOnUse" xlink:type="simple" xlink:actuate="onLoad" xlink:show="other" /><linearGradient xmlns:xlink="http://www.w3.org/1999/xlink" xlink:href="#linearGradientFAFBFCFFFFCC" id="linearGradientFAFBFCFFFFCC_179404556" x1="0" y1="244.0" x2="0" y2="304.0" gradientUnits="userSpaceOnUse" xlink:type="simple" xlink:actuate="onLoad" xlink:show="other" /></defs></svg>
