<?xml version="1.0" encoding="UTF-8"?>
<svg xmlns="http://www.w3.org/2000/svg" style="stroke-dasharray:none; shape-rendering:auto; font-family:'Arial'; text-rendering:auto; fill-opacity:1; color-interpolation:auto; color-rendering:auto; font-size:12; fill:black; stroke:black; image-rendering:auto; stroke-miterlimit:10; stroke-linecap:square; stroke-linejoin:miter; font-style:normal; stroke-width:1; stroke-dashoffset:0; font-weight:normal; stroke-opacity:1;" contentScriptType="text/ecmascript" preserveAspectRatio="xMidYMid meet" zoomAndPan="magnify" version="1.0" contentStyleType="text/css" xml:xlink="http://www.w3.org/1999/xlink" width="1331" height="300"><rect x="10" y="10" width="1321" height="290" ry="0" rx="0" style="stroke:#000000; fill:#FFFFFF" /><rect x="40" y="155" width="1291" height="145" ry="0" rx="0" style="stroke:#000000; fill:#C0C0C0" /><g componentSequence="3"><text x="-227" y="47" transform="rotate(270)" text-anchor="middle" style="font-weight:bold;font-size:10px;stroke:none; fill:#434343"><tspan dy="14" x="-227">Assignee</tspan></text></g><rect x="40" y="10" width="1291" height="145" ry="0" rx="0" style="stroke:#000000; fill:#9F9F9F" /><g componentSequence="2"><text x="-82" y="47" transform="rotate(270)" text-anchor="middle" style="font-weight:bold;font-size:10px;stroke:none; fill:#434343"><tspan dy="14" x="-82">s</tspan></text></g><g componentSequence="1"><text x="-155" y="17" transform="rotate(270)" text-anchor="middle" style="font-weight:bold;font-size:10px;stroke:none; fill:#434343"><tspan dy="14" x="-155">Pool</tspan></text></g><g sequence="4"><ellipse cx="107" cy="83" rx="17" ry="17" stroke-width="1" style="fill:url(#linearGradient66FF6696FF96B6FFB6_1383177264);" stroke="336633" /></g><g sequence="10"><rect x="620" y="194" width="106" height="70" ry="5" rx="5" style="fill:url(#linearGradientF8FBFEEDF5FCDEEDFAD4E7F8E2E5E9_1555458062);" stroke="191970" /></g><g componentSequence="10"><text x="673" y="209" text-anchor="middle" style="font-weight:bold;font-size:10px;stroke:none; fill:#333399"><tspan dy="14" x="673">Pesquisa_Pos_S</tspan><tspan dy="14" x="673">afra</tspan></text></g><g sequence="12"><polygon points=" 810 201 840 171 870 201 840 231 810 201" style="fill:url(#linearGradientFAFBFCFFFFCC_1485436736);" stroke="000000" /></g><g componentSequence="12"><text x="840" y="241" text-anchor="middle" style="font-weight:bold;font-size:10px;stroke:none; fill:#333399"><tspan dy="14" x="840">Ocorren</tspan><tspan dy="14" x="840">cia_Pos_</tspan><tspan dy="14" x="840">safra</tspan></text></g><g sequence="18"><rect x="330" y="50" width="106" height="70" ry="5" rx="5" style="fill:url(#linearGradientF8FBFEEDF5FCDEEDFAD4E7F8E2E5E9_495673909);" stroke="191970" /></g><g componentSequence="18"><text x="383" y="65" text-anchor="middle" style="font-weight:bold;font-size:10px;stroke:none; fill:#333399"><tspan dy="14" x="383">Registro_Ocorrê</tspan><tspan dy="14" x="383">ncias</tspan></text></g><g sequence="20"><polygon points=" 500 63 530 33 560 63 530 93 500 63" style="fill:url(#linearGradientFAFBFCFFFFCC_1137049000);" stroke="000000" /></g><g componentSequence="20"><text x="530" y="103" text-anchor="middle" style="font-weight:bold;font-size:10px;stroke:none; fill:#333399"><tspan dy="14" x="530">Finaliz</tspan><tspan dy="14" x="530">ou as</tspan><tspan dy="14" x="530">Oco...</tspan></text></g><g sequence="26"><rect x="790" y="56" width="106" height="70" ry="5" rx="5" style="fill:url(#linearGradientF8FBFEEDF5FCDEEDFAD4E7F8E2E5E9_744233926);" stroke="191970" /></g><g componentSequence="26"><text x="843" y="71" text-anchor="middle" style="font-weight:bold;font-size:10px;stroke:none; fill:#333399"><tspan dy="14" x="843">Ocorrência_Pos</tspan><tspan dy="14" x="843">_Safra</tspan></text></g><g sequence="28"><ellipse cx="1097" cy="228" rx="17" ry="17" stroke-width="3" style="fill:url(#linearGradientFF6666FF9696FFB6B6_1006164730);" stroke="993333" /></g><g sequence="30"><polygon points=" 960 70 990 40 1020 70 990 100 960 70" style="fill:url(#linearGradientFAFBFCFFFFCC_2107940218);" stroke="000000" /></g><g componentSequence="30"><text x="990" y="110" text-anchor="middle" style="font-weight:bold;font-size:10px;stroke:none; fill:#333399"><tspan dy="14" x="990">Finalizou</tspan><tspan dy="14" x="990">_Ocorrê</tspan><tspan dy="14" x="990">ncias...</tspan></text></g><g sequence="34"><polygon points=" 230 208 260 178 290 208 260 238 230 208" style="fill:url(#linearGradientFAFBFCFFFFCC_299894747);" stroke="000000" /></g><g componentSequence="34"><text x="260" y="248" text-anchor="middle" style="font-weight:bold;font-size:10px;stroke:none; fill:#333399"><tspan dy="14" x="260">Exclusiv</tspan><tspan dy="14" x="260">o</tspan></text></g><g componentSequence="13"><text x="778" y="229" style="font-size:10px;font-weight:none;stroke:none; fill:#333399" text-anchor="left" /></g><g componentSequence="21"><text x="478" y="88" style="font-size:10px;font-weight:none;stroke:none; fill:#333399" text-anchor="left" /></g><g componentSequence="22"><text x="680" y="84" style="font-size:10px;font-weight:none;stroke:none; fill:#333399" text-anchor="left"><tspan dy="14" x="680">sim</tspan></text></g><g componentSequence="23"><text x="474" y="22" style="font-size:10px;font-weight:none;stroke:none; fill:#333399" text-anchor="left"><tspan dy="14" x="474">Não</tspan></text></g><g componentSequence="27"><text x="852" y="148" style="font-size:10px;font-weight:none;stroke:none; fill:#333399" text-anchor="left" /></g><g componentSequence="29"><text x="985" y="228" style="font-size:10px;font-weight:none;stroke:none; fill:#333399" text-anchor="left" /></g><g componentSequence="31"><text x="938" y="91" style="font-size:10px;font-weight:none;stroke:none; fill:#333399" text-anchor="left" /></g><g componentSequence="32"><text x="1107" y="112" style="font-size:10px;font-weight:none;stroke:none; fill:#333399" text-anchor="left"><tspan dy="14" x="1107">Sim</tspan></text></g><g componentSequence="33"><text x="930" y="18" style="font-size:10px;font-weight:none;stroke:none; fill:#333399" text-anchor="left"><tspan dy="14" x="930">Não</tspan></text></g><g componentSequence="35"><text x="117" y="226" style="font-size:10px;font-weight:none;stroke:none; fill:#333399" text-anchor="left" /></g><g componentSequence="37"><text x="249" y="83" style="font-size:10px;font-weight:none;stroke:none; fill:#333399" text-anchor="left" /></g><g componentSequence="38"><text x="465" y="229" style="font-size:10px;font-weight:none;stroke:none; fill:#333399" text-anchor="left" /></g><g componentSequence="39"><text x="374" y="187" style="font-size:10px;font-weight:none;stroke:none; fill:#333399" text-anchor="left" /></g><path style="fill:none; stroke:#000000;stroke-width:1" d="M107.0 101.0 L107.0 228.0 L229.0 228.0" /><polygon style="fill:#000000; stroke:#000000;" points=" 219 223 229 228 219 233 221 228" /><path style="fill:none; stroke:#000000;stroke-width:1" d="M259.0 177.0 L259.0 83.0 L125.0 83.0" /><polygon style="fill:#000000; stroke:#000000;" points=" 135 88 125 83 135 78 133 83" /><path style="fill:none; stroke:#000000;stroke-width:1" d="M726.0 229.0 L809.0 229.0" /><polygon style="fill:#000000; stroke:#000000;" points=" 799 224 809 229 799 234 801 229" /><path style="fill:none; stroke:#000000;stroke-width:1" d="M560.0 89.0 L672.0 84.0 L672.0 193.0" /><polygon style="fill:#000000; stroke:#000000;" points=" 677 183 672 193 667 183 672 185" /><path style="fill:none; stroke:#000000;stroke-width:1" d="M841.0 170.0 L842.0 126.0" /><polygon style="fill:#000000; stroke:#000000;" points=" 837 136 842 126 847 136 842 134" /><path style="fill:none; stroke:#000000;stroke-width:1" d="M870.0 228.0 L1080.0 228.0" /><polygon style="fill:#000000; stroke:#000000;" points=" 1070 223 1080 228 1070 233 1072 228" /><path style="fill:none; stroke:#000000;stroke-width:1" d="M436.0 87.0 L499.0 89.0" /><polygon style="fill:#000000; stroke:#000000;" points=" 489 84 499 89 489 94 491 89" /><path style="fill:none; stroke:#000000;stroke-width:1" d="M499.0 59.0 L461.0 19.0 L425.0 49.0" /><polygon style="fill:#000000; stroke:#000000;" points=" 436 46 425 49 429 39 431 44" /><path style="fill:none; stroke:#000000;stroke-width:1" d="M896.0 91.0 L959.0 91.0" /><polygon style="fill:#000000; stroke:#000000;" points=" 949 86 959 91 949 96 951 91" /><path style="fill:none; stroke:#000000;stroke-width:1" d="M959.0 59.0 L919.0 17.0 L879.0 55.0" /><polygon style="fill:#000000; stroke:#000000;" points=" 890 52 879 55 883 44 885 49" /><path style="fill:none; stroke:#000000;stroke-width:1" d="M1020.0 91.0 L1097.0 91.0 L1097.0 210.0" /><polygon style="fill:#000000; stroke:#000000;" points=" 1102 200 1097 210 1092 200 1097 202" /><path style="fill:none; stroke:#000000;stroke-width:1" d="M290.0 229.0 L619.0 229.0" /><polygon style="fill:#000000; stroke:#000000;" points=" 609 224 619 229 609 234 611 229" /><path style="fill:none; stroke:#000000;stroke-width:1" d="M290.0 216.0 L383.0 179.0 L383.0 120.0" /><polygon style="fill:#000000; stroke:#000000;" points=" 378 130 383 120 388 130 383 128" /><defs><linearGradient xmlns:xlink="http://www.w3.org/1999/xlink" xlink:href="#linearGradient66FF6696FF96B6FFB6" id="linearGradient66FF6696FF96B6FFB6_1383177264" x1="0" y1="66.0" x2="0" y2="101.0" gradientUnits="userSpaceOnUse" xlink:type="simple" xlink:actuate="onLoad" xlink:show="other" /><linearGradient id="linearGradient66FF6696FF96B6FFB6"><stop style="stop-color:#66FF66;stop-opacity:1;" offset="0.0" id="stop66FF66" /><stop style="stop-color:#96FF96;stop-opacity:1;" offset="0.5" id="stop96FF96" /><stop style="stop-color:#B6FFB6;stop-opacity:1;" offset="1.0" id="stopB6FFB6" /></linearGradient><linearGradient xmlns:xlink="http://www.w3.org/1999/xlink" xlink:href="#linearGradientF8FBFEEDF5FCDEEDFAD4E7F8E2E5E9" id="linearGradientF8FBFEEDF5FCDEEDFAD4E7F8E2E5E9_1555458062" x1="0" y1="194.0" x2="0" y2="300.0" gradientUnits="userSpaceOnUse" xlink:type="simple" xlink:actuate="onLoad" xlink:show="other" /><linearGradient id="linearGradientF8FBFEEDF5FCDEEDFAD4E7F8E2E5E9"><stop style="stop-color:#F8FBFE;stop-opacity:1;" offset="0.0" id="stopF8FBFE" /><stop style="stop-color:#EDF5FC;stop-opacity:1;" offset="0.25" id="stopEDF5FC" /><stop style="stop-color:#DEEDFA;stop-opacity:1;" offset="0.5" id="stopDEEDFA" /><stop style="stop-color:#D4E7F8;stop-opacity:1;" offset="0.75" id="stopD4E7F8" /><stop style="stop-color:#E2E5E9;stop-opacity:1;" offset="1.0" id="stopE2E5E9" /></linearGradient><linearGradient xmlns:xlink="http://www.w3.org/1999/xlink" xlink:href="#linearGradientFAFBFCFFFFCC" id="linearGradientFAFBFCFFFFCC_1485436736" x1="0" y1="171.0" x2="0" y2="231.0" gradientUnits="userSpaceOnUse" xlink:type="simple" xlink:actuate="onLoad" xlink:show="other" /><linearGradient id="linearGradientFAFBFCFFFFCC"><stop style="stop-color:#FAFBFC;stop-opacity:1;" offset="0.0" id="stopFAFBFC" /><stop style="stop-color:#FFFFCC;stop-opacity:1;" offset="1.0" id="stopFFFFCC" /></linearGradient><linearGradient xmlns:xlink="http://www.w3.org/1999/xlink" xlink:href="#linearGradientF8FBFEEDF5FCDEEDFAD4E7F8E2E5E9" id="linearGradientF8FBFEEDF5FCDEEDFAD4E7F8E2E5E9_495673909" x1="0" y1="50.0" x2="0" y2="156.0" gradientUnits="userSpaceOnUse" xlink:type="simple" xlink:actuate="onLoad" xlink:show="other" /><linearGradient xmlns:xlink="http://www.w3.org/1999/xlink" xlink:href="#linearGradientFAFBFCFFFFCC" id="linearGradientFAFBFCFFFFCC_1137049000" x1="0" y1="33.0" x2="0" y2="93.0" gradientUnits="userSpaceOnUse" xlink:type="simple" xlink:actuate="onLoad" xlink:show="other" /><linearGradient xmlns:xlink="http://www.w3.org/1999/xlink" xlink:href="#linearGradientF8FBFEEDF5FCDEEDFAD4E7F8E2E5E9" id="linearGradientF8FBFEEDF5FCDEEDFAD4E7F8E2E5E9_744233926" x1="0" y1="56.0" x2="0" y2="162.0" gradientUnits="userSpaceOnUse" xlink:type="simple" xlink:actuate="onLoad" xlink:show="other" /><linearGradient xmlns:xlink="http://www.w3.org/1999/xlink" xlink:href="#linearGradientFF6666FF9696FFB6B6" id="linearGradientFF6666FF9696FFB6B6_1006164730" x1="0" y1="211.0" x2="0" y2="246.0" gradientUnits="userSpaceOnUse" xlink:type="simple" xlink:actuate="onLoad" xlink:show="other" /><linearGradient id="linearGradientFF6666FF9696FFB6B6"><stop style="stop-color:#FF6666;stop-opacity:1;" offset="0.0" id="stopFF6666" /><stop style="stop-color:#FF9696;stop-opacity:1;" offset="0.5" id="stopFF9696" /><stop style="stop-color:#FFB6B6;stop-opacity:1;" offset="1.0" id="stopFFB6B6" /></linearGradient><linearGradient xmlns:xlink="http://www.w3.org/1999/xlink" xlink:href="#linearGradientFAFBFCFFFFCC" id="linearGradientFAFBFCFFFFCC_2107940218" x1="0" y1="40.0" x2="0" y2="100.0" gradientUnits="userSpaceOnUse" xlink:type="simple" xlink:actuate="onLoad" xlink:show="other" /><linearGradient xmlns:xlink="http://www.w3.org/1999/xlink" xlink:href="#linearGradientFAFBFCFFFFCC" id="linearGradientFAFBFCFFFFCC_299894747" x1="0" y1="178.0" x2="0" y2="238.0" gradientUnits="userSpaceOnUse" xlink:type="simple" xlink:actuate="onLoad" xlink:show="other" /></defs></svg>
