<?xml version="1.0" encoding="UTF-8"?>
<svg xmlns="http://www.w3.org/2000/svg" style="stroke-dasharray:none; shape-rendering:auto; font-family:'Arial'; text-rendering:auto; fill-opacity:1; color-interpolation:auto; color-rendering:auto; font-size:12; fill:black; stroke:black; image-rendering:auto; stroke-miterlimit:10; stroke-linecap:square; stroke-linejoin:miter; font-style:normal; stroke-width:1; stroke-dashoffset:0; font-weight:normal; stroke-opacity:1;" contentScriptType="text/ecmascript" preserveAspectRatio="xMidYMid meet" zoomAndPan="magnify" version="1.0" contentStyleType="text/css" xml:xlink="http://www.w3.org/1999/xlink" width="1331" height="300"><rect x="10" y="10" width="1321" height="290" ry="0" rx="0" style="stroke:#000000; fill:#FFFFFF" /><rect x="40" y="155" width="1291" height="145" ry="0" rx="0" style="stroke:#000000; fill:#C0C0C0" /><g componentSequence="3"><text x="-227" y="47" transform="rotate(270)" text-anchor="middle" style="font-weight:bold;font-size:10px;stroke:none; fill:#434343"><tspan dy="14" x="-227">Assignee</tspan></text></g><rect x="40" y="10" width="1291" height="145" ry="0" rx="0" style="stroke:#000000; fill:#9F9F9F" /><g componentSequence="2"><text x="-82" y="47" transform="rotate(270)" text-anchor="middle" style="font-weight:bold;font-size:10px;stroke:none; fill:#434343"><tspan dy="14" x="-82">s</tspan></text></g><g componentSequence="1"><text x="-155" y="17" transform="rotate(270)" text-anchor="middle" style="font-weight:bold;font-size:10px;stroke:none; fill:#434343"><tspan dy="14" x="-155">Pool</tspan></text></g><g sequence="4"><ellipse cx="97" cy="83" rx="17" ry="17" stroke-width="1" style="fill:url(#linearGradient66FF6696FF96B6FFB6_1551863420);" stroke="336633" /></g><g sequence="5"><rect x="100" y="194" width="105" height="70" ry="5" rx="5" style="fill:url(#linearGradientF8FBFEEDF5FCDEEDFAD4E7F8E2E5E9_1387817859);" stroke="191970" /></g><g componentSequence="5"><text x="152" y="209" text-anchor="middle" style="font-weight:bold;font-size:10px;stroke:none; fill:#333399"><tspan dy="14" x="152">Inicio_da_Pesqui</tspan><tspan dy="14" x="152">sa</tspan></text></g><g sequence="7"><polygon points=" 350 201 380 171 410 201 380 231 350 201" style="fill:url(#linearGradientFAFBFCFFFFCC_1451746572);" stroke="000000" /></g><g componentSequence="7"><text x="380" y="241" text-anchor="middle" style="font-weight:bold;font-size:10px;stroke:none; fill:#333399"><tspan dy="14" x="380">Teve_Oc</tspan><tspan dy="14" x="380">orrencia</tspan><tspan dy="14" x="380">?</tspan></text></g><g sequence="10"><rect x="620" y="194" width="105" height="70" ry="5" rx="5" style="fill:url(#linearGradientF8FBFEEDF5FCDEEDFAD4E7F8E2E5E9_327508408);" stroke="191970" /></g><g componentSequence="10"><text x="672" y="209" text-anchor="middle" style="font-weight:bold;font-size:10px;stroke:none; fill:#333399"><tspan dy="14" x="672">Pesquisa_Pos_</tspan><tspan dy="14" x="672">Safra</tspan></text></g><g sequence="12"><polygon points=" 810 201 840 171 870 201 840 231 810 201" style="fill:url(#linearGradientFAFBFCFFFFCC_866714074);" stroke="000000" /></g><g componentSequence="12"><text x="840" y="241" text-anchor="middle" style="font-weight:bold;font-size:10px;stroke:none; fill:#333399"><tspan dy="14" x="840">Ocorren</tspan><tspan dy="14" x="840">cia_Pos_</tspan><tspan dy="14" x="840">safra</tspan></text></g><g sequence="14"><polygon points=" 240 70 270 40 300 70 270 100 240 70" style="fill:url(#linearGradientFAFBFCFFFFCC_584880223);" stroke="000000" /></g><g componentSequence="14"><text x="270" y="103" text-anchor="middle" style="font-weight:bold;font-size:10px;stroke:none; fill:#333399"><tspan dy="14" x="270">Contato?</tspan></text></g><g sequence="18"><rect x="330" y="50" width="105" height="70" ry="5" rx="5" style="fill:url(#linearGradientF8FBFEEDF5FCDEEDFAD4E7F8E2E5E9_1260039821);" stroke="191970" /></g><g componentSequence="18"><text x="382" y="65" text-anchor="middle" style="font-weight:bold;font-size:10px;stroke:none; fill:#333399"><tspan dy="14" x="382">Registro_Ocorrê</tspan><tspan dy="14" x="382">ncias</tspan></text></g><g sequence="20"><polygon points=" 500 63 530 33 560 63 530 93 500 63" style="fill:url(#linearGradientFAFBFCFFFFCC_1940561655);" stroke="000000" /></g><g componentSequence="20"><text x="530" y="103" text-anchor="middle" style="font-weight:bold;font-size:10px;stroke:none; fill:#333399"><tspan dy="14" x="530">Finalizou</tspan><tspan dy="14" x="530">as</tspan><tspan dy="14" x="530">Ocor...</tspan></text></g><g sequence="26"><rect x="790" y="56" width="105" height="70" ry="5" rx="5" style="fill:url(#linearGradientF8FBFEEDF5FCDEEDFAD4E7F8E2E5E9_142014089);" stroke="191970" /></g><g componentSequence="26"><text x="842" y="71" text-anchor="middle" style="font-weight:bold;font-size:10px;stroke:none; fill:#333399"><tspan dy="14" x="842">Ocorrência_Pos</tspan><tspan dy="14" x="842">_Safra</tspan></text></g><g sequence="28"><ellipse cx="1097" cy="228" rx="17" ry="17" stroke-width="3" style="fill:url(#linearGradientFF6666FF9696FFB6B6_1315885488);" stroke="993333" /></g><g sequence="30"><polygon points=" 960 70 990 40 1020 70 990 100 960 70" style="fill:url(#linearGradientFAFBFCFFFFCC_1344167990);" stroke="000000" /></g><g componentSequence="30"><text x="990" y="110" text-anchor="middle" style="font-weight:bold;font-size:10px;stroke:none; fill:#333399"><tspan dy="14" x="990">Finalizou</tspan><tspan dy="14" x="990">_Ocorrê</tspan><tspan dy="14" x="990">ncias...</tspan></text></g><g componentSequence="8"><text x="287" y="229" style="font-size:10px;font-weight:none;stroke:none; fill:#333399" text-anchor="left" /></g><g componentSequence="11"><text x="505" y="229" style="font-size:10px;font-weight:none;stroke:none; fill:#333399" text-anchor="left"><tspan dy="14" x="505">Não</tspan></text></g><g componentSequence="13"><text x="777" y="229" style="font-size:10px;font-weight:none;stroke:none; fill:#333399" text-anchor="left" /></g><g componentSequence="15"><text x="187" y="83" style="font-size:10px;font-weight:none;stroke:none; fill:#333399" text-anchor="left" /></g><g componentSequence="16"><text x="188" y="137" style="font-size:10px;font-weight:none;stroke:none; fill:#333399" text-anchor="left"><tspan dy="14" x="188">Sim</tspan></text></g><g componentSequence="17"><text x="160" y="50" style="font-size:10px;font-weight:none;stroke:none; fill:#333399" text-anchor="left"><tspan dy="14" x="160">Não</tspan></text></g><g componentSequence="19"><text x="392" y="145" style="font-size:10px;font-weight:none;stroke:none; fill:#333399" text-anchor="left"><tspan dy="14" x="392">Sim</tspan></text></g><g componentSequence="21"><text x="477" y="84" style="font-size:10px;font-weight:none;stroke:none; fill:#333399" text-anchor="left" /></g><g componentSequence="22"><text x="610" y="90" style="font-size:10px;font-weight:none;stroke:none; fill:#333399" text-anchor="left"><tspan dy="14" x="610">sim</tspan></text></g><g componentSequence="23"><text x="451" y="31" style="font-size:10px;font-weight:none;stroke:none; fill:#333399" text-anchor="left"><tspan dy="14" x="451">Não</tspan></text></g><g componentSequence="27"><text x="852" y="148" style="font-size:10px;font-weight:none;stroke:none; fill:#333399" text-anchor="left" /></g><g componentSequence="29"><text x="985" y="228" style="font-size:10px;font-weight:none;stroke:none; fill:#333399" text-anchor="left" /></g><g componentSequence="31"><text x="937" y="91" style="font-size:10px;font-weight:none;stroke:none; fill:#333399" text-anchor="left" /></g><g componentSequence="32"><text x="1107" y="112" style="font-size:10px;font-weight:none;stroke:none; fill:#333399" text-anchor="left"><tspan dy="14" x="1107">Sim</tspan></text></g><g componentSequence="33"><text x="930" y="18" style="font-size:10px;font-weight:none;stroke:none; fill:#333399" text-anchor="left"><tspan dy="14" x="930">Não</tspan></text></g><path style="fill:none; stroke:#000000;stroke-width:1" d="M114.0 83.0 L239.0 83.0" /><polygon style="fill:#000000; stroke:#000000;" points=" 229 78 239 83 229 88 231 83" /><path style="fill:none; stroke:#000000;stroke-width:1" d="M239.0 71.0 L171.0 42.0 L112.0 75.0" /><polygon style="fill:#000000; stroke:#000000;" points=" 123 74 112 75 118 66 119 71" /><path style="fill:none; stroke:#000000;stroke-width:1" d="M205.0 229.0 L349.0 229.0" /><polygon style="fill:#000000; stroke:#000000;" points=" 339 224 349 229 339 234 341 229" /><path style="fill:none; stroke:#000000;stroke-width:1" d="M239.0 101.0 L152.0 152.0 L152.0 193.0" /><polygon style="fill:#000000; stroke:#000000;" points=" 157 183 152 193 147 183 152 185" /><path style="fill:none; stroke:#000000;stroke-width:1" d="M410.0 229.0 L619.0 229.0" /><polygon style="fill:#000000; stroke:#000000;" points=" 609 224 619 229 609 234 611 229" /><path style="fill:none; stroke:#000000;stroke-width:1" d="M381.0 170.0 L382.0 120.0" /><polygon style="fill:#000000; stroke:#000000;" points=" 377 130 382 120 387 130 382 128" /><path style="fill:none; stroke:#000000;stroke-width:1" d="M725.0 229.0 L809.0 229.0" /><polygon style="fill:#000000; stroke:#000000;" points=" 799 224 809 229 799 234 801 229" /><path style="fill:none; stroke:#000000;stroke-width:1" d="M560.0 84.0 L672.0 84.0 L672.0 193.0" /><polygon style="fill:#000000; stroke:#000000;" points=" 677 183 672 193 667 183 672 185" /><path style="fill:none; stroke:#000000;stroke-width:1" d="M841.0 170.0 L841.0 126.0" /><polygon style="fill:#000000; stroke:#000000;" points=" 836 136 841 126 846 136 841 134" /><path style="fill:none; stroke:#000000;stroke-width:1" d="M870.0 228.0 L1080.0 228.0" /><polygon style="fill:#000000; stroke:#000000;" points=" 1070 223 1080 228 1070 233 1072 228" /><path style="fill:none; stroke:#000000;stroke-width:1" d="M435.0 84.0 L499.0 84.0" /><polygon style="fill:#000000; stroke:#000000;" points=" 489 79 499 84 489 89 491 84" /><path style="fill:none; stroke:#000000;stroke-width:1" d="M499.0 55.0 L461.0 19.0 L425.0 49.0" /><polygon style="fill:#000000; stroke:#000000;" points=" 436 46 425 49 429 39 431 44" /><path style="fill:none; stroke:#000000;stroke-width:1" d="M895.0 91.0 L959.0 91.0" /><polygon style="fill:#000000; stroke:#000000;" points=" 949 86 959 91 949 96 951 91" /><path style="fill:none; stroke:#000000;stroke-width:1" d="M959.0 59.0 L919.0 17.0 L879.0 55.0" /><polygon style="fill:#000000; stroke:#000000;" points=" 890 52 879 55 883 44 885 49" /><path style="fill:none; stroke:#000000;stroke-width:1" d="M1020.0 91.0 L1097.0 91.0 L1097.0 210.0" /><polygon style="fill:#000000; stroke:#000000;" points=" 1102 200 1097 210 1092 200 1097 202" /><defs><linearGradient xmlns:xlink="http://www.w3.org/1999/xlink" xlink:href="#linearGradient66FF6696FF96B6FFB6" id="linearGradient66FF6696FF96B6FFB6_1551863420" x1="0" y1="66.0" x2="0" y2="101.0" gradientUnits="userSpaceOnUse" xlink:type="simple" xlink:actuate="onLoad" xlink:show="other" /><linearGradient id="linearGradient66FF6696FF96B6FFB6"><stop style="stop-color:#66FF66;stop-opacity:1;" offset="0.0" id="stop66FF66" /><stop style="stop-color:#96FF96;stop-opacity:1;" offset="0.5" id="stop96FF96" /><stop style="stop-color:#B6FFB6;stop-opacity:1;" offset="1.0" id="stopB6FFB6" /></linearGradient><linearGradient xmlns:xlink="http://www.w3.org/1999/xlink" xlink:href="#linearGradientF8FBFEEDF5FCDEEDFAD4E7F8E2E5E9" id="linearGradientF8FBFEEDF5FCDEEDFAD4E7F8E2E5E9_1387817859" x1="0" y1="194.0" x2="0" y2="299.0" gradientUnits="userSpaceOnUse" xlink:type="simple" xlink:actuate="onLoad" xlink:show="other" /><linearGradient id="linearGradientF8FBFEEDF5FCDEEDFAD4E7F8E2E5E9"><stop style="stop-color:#F8FBFE;stop-opacity:1;" offset="0.0" id="stopF8FBFE" /><stop style="stop-color:#EDF5FC;stop-opacity:1;" offset="0.25" id="stopEDF5FC" /><stop style="stop-color:#DEEDFA;stop-opacity:1;" offset="0.5" id="stopDEEDFA" /><stop style="stop-color:#D4E7F8;stop-opacity:1;" offset="0.75" id="stopD4E7F8" /><stop style="stop-color:#E2E5E9;stop-opacity:1;" offset="1.0" id="stopE2E5E9" /></linearGradient><linearGradient xmlns:xlink="http://www.w3.org/1999/xlink" xlink:href="#linearGradientFAFBFCFFFFCC" id="linearGradientFAFBFCFFFFCC_1451746572" x1="0" y1="171.0" x2="0" y2="231.0" gradientUnits="userSpaceOnUse" xlink:type="simple" xlink:actuate="onLoad" xlink:show="other" /><linearGradient id="linearGradientFAFBFCFFFFCC"><stop style="stop-color:#FAFBFC;stop-opacity:1;" offset="0.0" id="stopFAFBFC" /><stop style="stop-color:#FFFFCC;stop-opacity:1;" offset="1.0" id="stopFFFFCC" /></linearGradient><linearGradient xmlns:xlink="http://www.w3.org/1999/xlink" xlink:href="#linearGradientF8FBFEEDF5FCDEEDFAD4E7F8E2E5E9" id="linearGradientF8FBFEEDF5FCDEEDFAD4E7F8E2E5E9_327508408" x1="0" y1="194.0" x2="0" y2="299.0" gradientUnits="userSpaceOnUse" xlink:type="simple" xlink:actuate="onLoad" xlink:show="other" /><linearGradient xmlns:xlink="http://www.w3.org/1999/xlink" xlink:href="#linearGradientFAFBFCFFFFCC" id="linearGradientFAFBFCFFFFCC_866714074" x1="0" y1="171.0" x2="0" y2="231.0" gradientUnits="userSpaceOnUse" xlink:type="simple" xlink:actuate="onLoad" xlink:show="other" /><linearGradient xmlns:xlink="http://www.w3.org/1999/xlink" xlink:href="#linearGradientFAFBFCFFFFCC" id="linearGradientFAFBFCFFFFCC_584880223" x1="0" y1="40.0" x2="0" y2="100.0" gradientUnits="userSpaceOnUse" xlink:type="simple" xlink:actuate="onLoad" xlink:show="other" /><linearGradient xmlns:xlink="http://www.w3.org/1999/xlink" xlink:href="#linearGradientF8FBFEEDF5FCDEEDFAD4E7F8E2E5E9" id="linearGradientF8FBFEEDF5FCDEEDFAD4E7F8E2E5E9_1260039821" x1="0" y1="50.0" x2="0" y2="155.0" gradientUnits="userSpaceOnUse" xlink:type="simple" xlink:actuate="onLoad" xlink:show="other" /><linearGradient xmlns:xlink="http://www.w3.org/1999/xlink" xlink:href="#linearGradientFAFBFCFFFFCC" id="linearGradientFAFBFCFFFFCC_1940561655" x1="0" y1="33.0" x2="0" y2="93.0" gradientUnits="userSpaceOnUse" xlink:type="simple" xlink:actuate="onLoad" xlink:show="other" /><linearGradient xmlns:xlink="http://www.w3.org/1999/xlink" xlink:href="#linearGradientF8FBFEEDF5FCDEEDFAD4E7F8E2E5E9" id="linearGradientF8FBFEEDF5FCDEEDFAD4E7F8E2E5E9_142014089" x1="0" y1="56.0" x2="0" y2="161.0" gradientUnits="userSpaceOnUse" xlink:type="simple" xlink:actuate="onLoad" xlink:show="other" /><linearGradient xmlns:xlink="http://www.w3.org/1999/xlink" xlink:href="#linearGradientFF6666FF9696FFB6B6" id="linearGradientFF6666FF9696FFB6B6_1315885488" x1="0" y1="211.0" x2="0" y2="246.0" gradientUnits="userSpaceOnUse" xlink:type="simple" xlink:actuate="onLoad" xlink:show="other" /><linearGradient id="linearGradientFF6666FF9696FFB6B6"><stop style="stop-color:#FF6666;stop-opacity:1;" offset="0.0" id="stopFF6666" /><stop style="stop-color:#FF9696;stop-opacity:1;" offset="0.5" id="stopFF9696" /><stop style="stop-color:#FFB6B6;stop-opacity:1;" offset="1.0" id="stopFFB6B6" /></linearGradient><linearGradient xmlns:xlink="http://www.w3.org/1999/xlink" xlink:href="#linearGradientFAFBFCFFFFCC" id="linearGradientFAFBFCFFFFCC_1344167990" x1="0" y1="40.0" x2="0" y2="100.0" gradientUnits="userSpaceOnUse" xlink:type="simple" xlink:actuate="onLoad" xlink:show="other" /></defs></svg>
