<?xml version="1.0" encoding="UTF-8"?>
<svg xmlns="http://www.w3.org/2000/svg" style="stroke-dasharray:none; shape-rendering:auto; font-family:'Arial'; text-rendering:auto; fill-opacity:1; color-interpolation:auto; color-rendering:auto; font-size:12; fill:black; stroke:black; image-rendering:auto; stroke-miterlimit:10; stroke-linecap:square; stroke-linejoin:miter; font-style:normal; stroke-width:1; stroke-dashoffset:0; font-weight:normal; stroke-opacity:1;" contentScriptType="text/ecmascript" preserveAspectRatio="xMidYMid meet" zoomAndPan="magnify" version="1.0" contentStyleType="text/css" xml:xlink="http://www.w3.org/1999/xlink" width="981" height="371"><rect x="10" y="50" width="971" height="321" ry="0" rx="0" style="stroke:#000000; fill:#FFFFFF" /><rect x="40" y="50" width="941" height="321" ry="0" rx="0" style="stroke:#000000; fill:#9F9F9F" /><g componentSequence="2"><text x="-210" y="47" transform="rotate(270)" text-anchor="middle" style="font-weight:bold;font-size:10px;stroke:none; fill:#434343"><tspan dy="14" x="-210">Reporter</tspan></text></g><g componentSequence="1"><text x="-210" y="17" transform="rotate(270)" text-anchor="middle" style="font-weight:bold;font-size:10px;stroke:none; fill:#434343"><tspan dy="14" x="-210">Pool</tspan></text></g><g sequence="4"><ellipse cx="97" cy="194" rx="17" ry="17" stroke-width="1" style="fill:url(#linearGradient66FF6696FF96B6FFB6_596089250);" stroke="336633" /></g><g sequence="5"><ellipse cx="937" cy="257" rx="17" ry="17" stroke-width="3" style="fill:url(#linearGradientFF6666FF9696FFB6B6_759198626);" stroke="993333" /></g><g sequence="11"><rect x="490" y="160" width="106" height="70" ry="5" rx="5" style="fill:url(#linearGradientF8FBFEEDF5FCDEEDFAD4E7F8E2E5E9_696251090);" stroke="191970" /></g><g componentSequence="11"><text x="543" y="175" text-anchor="middle" style="font-weight:bold;font-size:10px;stroke:none; fill:#333399"><tspan dy="14" x="543">Analise do</tspan><tspan dy="14" x="543">Documento</tspan></text></g><g sequence="17"><rect x="620" y="290" width="106" height="56" ry="5" rx="5" style="fill:url(#linearGradientF8FBFEEDF5FCDEEDFAD4E7F8E2E5E9_1820162457);" stroke="191970" /></g><g componentSequence="17"><text x="673" y="307" text-anchor="middle" style="font-weight:bold;font-size:10px;stroke:none; fill:#333399"><tspan dy="14" x="673">Aguardando</tspan></text></g><g sequence="19"><polygon points=" 740 174 770 144 800 174 770 204 740 174" style="fill:url(#linearGradientFAFBFCFFFFCC_1940436797);" stroke="000000" /></g><g componentSequence="19"><text x="770" y="214" text-anchor="middle" style="font-weight:bold;font-size:10px;stroke:none; fill:#333399"><tspan dy="14" x="770">Exclusiv</tspan><tspan dy="14" x="770">o</tspan></text></g><g sequence="26"><ellipse cx="927" cy="117" rx="17" ry="17" stroke-width="3" style="fill:url(#linearGradientFF6666FF9696FFB6B6_1566250889);" stroke="993333" /></g><g sequence="26"><polygon points=" 918 113 923 108 928 113 933 108 938 113 933 118 938 123 933 128 928 123 923 128 918 123 923 118" style="stroke:none; fill:#993333" /></g><g sequence="31"><rect x="240" y="160" width="106" height="70" ry="5" rx="5" style="fill:url(#linearGradientF8FBFEEDF5FCDEEDFAD4E7F8E2E5E9_191137682);" stroke="191970" /></g><g componentSequence="31"><text x="293" y="175" text-anchor="middle" style="font-weight:bold;font-size:10px;stroke:none; fill:#333399"><tspan dy="14" x="293">Aguardando</tspan><tspan dy="14" x="293">Atendimento</tspan></text></g><g componentSequence="20"><text x="678" y="195" style="font-size:10px;font-weight:none;stroke:none; fill:#333399" text-anchor="left" /></g><g componentSequence="23"><text x="870" y="228" style="font-size:10px;font-weight:none;stroke:none; fill:#333399" text-anchor="left" /></g><g componentSequence="24"><text x="727" y="262" style="font-size:10px;font-weight:none;stroke:none; fill:#333399" text-anchor="left" /></g><g componentSequence="25"><text x="780" y="304" style="font-size:10px;font-weight:none;stroke:none; fill:#333399" text-anchor="left" /></g><g componentSequence="27"><text x="865" y="153" style="font-size:10px;font-weight:none;stroke:none; fill:#333399" text-anchor="left" /></g><g componentSequence="32"><text x="187" y="194" style="font-size:10px;font-weight:none;stroke:none; fill:#333399" text-anchor="left" /></g><g componentSequence="34"><text x="428" y="195" style="font-size:10px;font-weight:none;stroke:none; fill:#333399" text-anchor="left" /></g><path style="fill:none; stroke:#000000;stroke-width:1" d="M114.0 194.0 L239.0 194.0" /><polygon style="fill:#000000; stroke:#000000;" points=" 229 189 239 194 229 199 231 194" /><path style="fill:none; stroke:#000000;stroke-width:1" d="M800.0 206.0 L921.0 251.0" /><polygon style="fill:#000000; stroke:#000000;" points=" 913 243 921 251 910 252 914 248" /><path style="fill:none; stroke:#000000;stroke-width:1" d="M596.0 195.0 L739.0 195.0" /><polygon style="fill:#000000; stroke:#000000;" points=" 729 190 739 195 729 200 731 195" /><path style="fill:none; stroke:#000000;stroke-width:1" d="M346.0 195.0 L489.0 195.0" /><polygon style="fill:#000000; stroke:#000000;" points=" 479 190 489 195 479 200 481 195" /><path style="fill:none; stroke:#000000;stroke-width:1" d="M726.0 318.0 L770.0 318.0 L770.0 246.0" /><polygon style="fill:#000000; stroke:#000000;" points=" 765 256 770 246 775 256 770 254" /><path style="fill:none; stroke:#000000;stroke-width:1" d="M739.0 234.0 L695.0 289.0" /><polygon style="fill:#000000; stroke:#000000;" points=" 705 284 695 289 697 278 700 283" /><path style="fill:none; stroke:#000000;stroke-width:1" d="M800.0 179.0 L911.0 125.0" /><polygon style="fill:#000000; stroke:#000000;" points=" 900 125 911 125 904 134 904 128" /><defs><linearGradient xmlns:xlink="http://www.w3.org/1999/xlink" xlink:href="#linearGradient66FF6696FF96B6FFB6" id="linearGradient66FF6696FF96B6FFB6_596089250" x1="0" y1="177.0" x2="0" y2="212.0" gradientUnits="userSpaceOnUse" xlink:type="simple" xlink:actuate="onLoad" xlink:show="other" /><linearGradient id="linearGradient66FF6696FF96B6FFB6"><stop style="stop-color:#66FF66;stop-opacity:1;" offset="0.0" id="stop66FF66" /><stop style="stop-color:#96FF96;stop-opacity:1;" offset="0.5" id="stop96FF96" /><stop style="stop-color:#B6FFB6;stop-opacity:1;" offset="1.0" id="stopB6FFB6" /></linearGradient><linearGradient xmlns:xlink="http://www.w3.org/1999/xlink" xlink:href="#linearGradientFF6666FF9696FFB6B6" id="linearGradientFF6666FF9696FFB6B6_759198626" x1="0" y1="240.0" x2="0" y2="275.0" gradientUnits="userSpaceOnUse" xlink:type="simple" xlink:actuate="onLoad" xlink:show="other" /><linearGradient id="linearGradientFF6666FF9696FFB6B6"><stop style="stop-color:#FF6666;stop-opacity:1;" offset="0.0" id="stopFF6666" /><stop style="stop-color:#FF9696;stop-opacity:1;" offset="0.5" id="stopFF9696" /><stop style="stop-color:#FFB6B6;stop-opacity:1;" offset="1.0" id="stopFFB6B6" /></linearGradient><linearGradient xmlns:xlink="http://www.w3.org/1999/xlink" xlink:href="#linearGradientF8FBFEEDF5FCDEEDFAD4E7F8E2E5E9" id="linearGradientF8FBFEEDF5FCDEEDFAD4E7F8E2E5E9_696251090" x1="0" y1="160.0" x2="0" y2="266.0" gradientUnits="userSpaceOnUse" xlink:type="simple" xlink:actuate="onLoad" xlink:show="other" /><linearGradient id="linearGradientF8FBFEEDF5FCDEEDFAD4E7F8E2E5E9"><stop style="stop-color:#F8FBFE;stop-opacity:1;" offset="0.0" id="stopF8FBFE" /><stop style="stop-color:#EDF5FC;stop-opacity:1;" offset="0.25" id="stopEDF5FC" /><stop style="stop-color:#DEEDFA;stop-opacity:1;" offset="0.5" id="stopDEEDFA" /><stop style="stop-color:#D4E7F8;stop-opacity:1;" offset="0.75" id="stopD4E7F8" /><stop style="stop-color:#E2E5E9;stop-opacity:1;" offset="1.0" id="stopE2E5E9" /></linearGradient><linearGradient xmlns:xlink="http://www.w3.org/1999/xlink" xlink:href="#linearGradientF8FBFEEDF5FCDEEDFAD4E7F8E2E5E9" id="linearGradientF8FBFEEDF5FCDEEDFAD4E7F8E2E5E9_1820162457" x1="0" y1="290.0" x2="0" y2="396.0" gradientUnits="userSpaceOnUse" xlink:type="simple" xlink:actuate="onLoad" xlink:show="other" /><linearGradient xmlns:xlink="http://www.w3.org/1999/xlink" xlink:href="#linearGradientFAFBFCFFFFCC" id="linearGradientFAFBFCFFFFCC_1940436797" x1="0" y1="144.0" x2="0" y2="204.0" gradientUnits="userSpaceOnUse" xlink:type="simple" xlink:actuate="onLoad" xlink:show="other" /><linearGradient id="linearGradientFAFBFCFFFFCC"><stop style="stop-color:#FAFBFC;stop-opacity:1;" offset="0.0" id="stopFAFBFC" /><stop style="stop-color:#FFFFCC;stop-opacity:1;" offset="1.0" id="stopFFFFCC" /></linearGradient><linearGradient xmlns:xlink="http://www.w3.org/1999/xlink" xlink:href="#linearGradientFF6666FF9696FFB6B6" id="linearGradientFF6666FF9696FFB6B6_1566250889" x1="0" y1="100.0" x2="0" y2="135.0" gradientUnits="userSpaceOnUse" xlink:type="simple" xlink:actuate="onLoad" xlink:show="other" /><linearGradient xmlns:xlink="http://www.w3.org/1999/xlink" xlink:href="#linearGradientF8FBFEEDF5FCDEEDFAD4E7F8E2E5E9" id="linearGradientF8FBFEEDF5FCDEEDFAD4E7F8E2E5E9_191137682" x1="0" y1="160.0" x2="0" y2="266.0" gradientUnits="userSpaceOnUse" xlink:type="simple" xlink:actuate="onLoad" xlink:show="other" /></defs></svg>
