<?xml version="1.0" encoding="UTF-8"?>
<svg xmlns="http://www.w3.org/2000/svg" style="stroke-dasharray:none; shape-rendering:auto; font-family:'Arial'; text-rendering:auto; fill-opacity:1; color-interpolation:auto; color-rendering:auto; font-size:12; fill:black; stroke:black; image-rendering:auto; stroke-miterlimit:10; stroke-linecap:square; stroke-linejoin:miter; font-style:normal; stroke-width:1; stroke-dashoffset:0; font-weight:normal; stroke-opacity:1;" contentScriptType="text/ecmascript" preserveAspectRatio="xMidYMid meet" zoomAndPan="magnify" version="1.0" contentStyleType="text/css" xml:xlink="http://www.w3.org/1999/xlink" width="971" height="310"><rect x="10" y="10" width="961" height="290" ry="0" rx="0" style="stroke:#000000; fill:#FFFFFF" /><rect x="40" y="106" width="931" height="96" ry="0" rx="0" style="stroke:#000000; fill:#ADC9AC" /><g componentSequence="4"><text x="-154" y="47" transform="rotate(270)" text-anchor="middle" style="font-weight:bold;font-size:10px;stroke:none; fill:#434343"><tspan dy="14" x="-154">Gestor</tspan></text></g><rect x="40" y="202" width="931" height="98" ry="0" rx="0" style="stroke:#000000; fill:#82B0B7" /><g componentSequence="3"><text x="-251" y="47" transform="rotate(270)" text-anchor="middle" style="font-weight:bold;font-size:10px;stroke:none; fill:#434343"><tspan dy="14" x="-251">Analista</tspan></text></g><rect x="40" y="10" width="931" height="96" ry="0" rx="0" style="stroke:#000000; fill:#9F9F9F" /><g componentSequence="2"><text x="-58" y="47" transform="rotate(270)" text-anchor="middle" style="font-weight:bold;font-size:10px;stroke:none; fill:#434343"><tspan dy="14" x="-58">Solicitante</tspan></text></g><g componentSequence="1"><text x="-155" y="17" transform="rotate(270)" text-anchor="middle" style="font-weight:bold;font-size:10px;stroke:none; fill:#434343"><tspan dy="14" x="-155">Pool</tspan></text></g><g sequence="4"><ellipse cx="117" cy="58" rx="17" ry="17" stroke-width="1" style="fill:url(#linearGradient66FF6696FF96B6FFB6_1582001013);" stroke="336633" /></g><g sequence="5"><rect x="310" y="120" width="106" height="70" ry="5" rx="5" style="fill:url(#linearGradientF8FBFEEDF5FCDEEDFAD4E7F8E2E5E9_1351388876);" stroke="191970" /></g><g componentSequence="5"><text x="363" y="135" text-anchor="middle" style="font-weight:bold;font-size:10px;stroke:none; fill:#333399"><tspan dy="14" x="363">ANALISA_RELA</tspan><tspan dy="14" x="363">TORIO</tspan></text></g><g sequence="15"><ellipse cx="917" cy="251" rx="17" ry="17" stroke-width="3" style="fill:url(#linearGradientFF6666FF9696FFB6B6_1421017093);" stroke="993333" /></g><g sequence="16"><polygon points=" 460 134 490 104 520 134 490 164 460 134" style="fill:url(#linearGradientFAFBFCFFFFCC_296846583);" stroke="000000" /></g><g componentSequence="16"><text x="490" y="174" text-anchor="middle" style="font-weight:bold;font-size:10px;stroke:none; fill:#333399"><tspan dy="14" x="490">Aprovad</tspan><tspan dy="14" x="490">o?</tspan></text></g><g sequence="23"><rect x="550" y="217" width="106" height="70" ry="5" rx="5" style="fill:url(#linearGradientF8FBFEEDF5FCDEEDFAD4E7F8E2E5E9_337925495);" stroke="191970" /></g><g componentSequence="23"><text x="603" y="232" text-anchor="middle" style="font-weight:bold;font-size:10px;stroke:none; fill:#333399"><tspan dy="14" x="603">REVISA_RELAT</tspan><tspan dy="14" x="603">ORIO</tspan></text></g><g sequence="26"><polygon points=" 780 224 810 194 840 224 810 254 780 224" style="fill:url(#linearGradientFAFBFCFFFFCC_552227793);" stroke="000000" /></g><g componentSequence="26"><text x="810" y="264" text-anchor="middle" style="font-weight:bold;font-size:10px;stroke:none; fill:#333399"><tspan dy="14" x="810">Revisão</tspan><tspan dy="14" x="810">_Aprova</tspan><tspan dy="14" x="810">da?</tspan></text></g><g sequence="30"><rect x="590" y="24" width="106" height="70" ry="5" rx="5" style="fill:url(#linearGradientF8FBFEEDF5FCDEEDFAD4E7F8E2E5E9_1821760737);" stroke="191970" /></g><g componentSequence="30"><text x="643" y="39" text-anchor="middle" style="font-weight:bold;font-size:10px;stroke:none; fill:#333399"><tspan dy="14" x="643">AJUSTA_RELAT</tspan><tspan dy="14" x="643">ORIO</tspan></text></g><g sequence="34"><rect x="70" y="120" width="106" height="70" ry="5" rx="5" style="fill:url(#linearGradientF8FBFEEDF5FCDEEDFAD4E7F8E2E5E9_1906211768);" stroke="191970" /></g><g componentSequence="34"><text x="123" y="135" text-anchor="middle" style="font-weight:bold;font-size:10px;stroke:none; fill:#333399"><tspan dy="14" x="123">SALVAR_RELAT</tspan><tspan dy="14" x="123">ORIO</tspan></text></g><g sequence="36"><polygon points=" 210 134 240 104 270 134 240 164 210 134" style="fill:url(#linearGradientFAFBFCFFFFCC_1202128657);" stroke="000000" /></g><g componentSequence="36"><text x="240" y="167" text-anchor="middle" style="font-weight:bold;font-size:10px;stroke:none; fill:#333399"><tspan dy="14" x="240">Enviar</tspan></text></g><g componentSequence="17"><text x="448" y="155" style="font-size:10px;font-weight:none;stroke:none; fill:#333399" text-anchor="left" /></g><g componentSequence="24"><text x="507" y="251" style="font-size:10px;font-weight:none;stroke:none; fill:#333399" text-anchor="left" /></g><g componentSequence="27"><text x="880" y="251" style="font-size:10px;font-weight:none;stroke:none; fill:#333399" text-anchor="left" /></g><g componentSequence="29"><text x="728" y="252" style="font-size:10px;font-weight:none;stroke:none; fill:#333399" text-anchor="left" /></g><g componentSequence="31"><text x="819" y="69" style="font-size:10px;font-weight:none;stroke:none; fill:#333399" text-anchor="left" /></g><g componentSequence="32"><text x="621" y="154" style="font-size:10px;font-weight:none;stroke:none; fill:#333399" text-anchor="left" /></g><g componentSequence="33"><text x="455" y="58" style="font-size:10px;font-weight:none;stroke:none; fill:#333399" text-anchor="left" /></g><g componentSequence="35"><text x="129" y="98" style="font-size:10px;font-weight:none;stroke:none; fill:#333399" text-anchor="left" /></g><g componentSequence="37"><text x="203" y="151" style="font-size:10px;font-weight:none;stroke:none; fill:#333399" text-anchor="left" /></g><g componentSequence="38"><text x="300" y="150" style="font-size:10px;font-weight:none;stroke:none; fill:#333399" text-anchor="left" /></g><g componentSequence="39"><text x="229" y="74" style="font-size:10px;font-weight:none;stroke:none; fill:#333399" text-anchor="left" /></g><path style="fill:none; stroke:#000000;stroke-width:1" d="M118.0 75.0 L120.0 119.0" /><polygon style="fill:#000000; stroke:#000000;" points=" 125 109 120 119 115 109 120 111" /><path style="fill:none; stroke:#000000;stroke-width:1" d="M416.0 155.0 L459.0 155.0" /><polygon style="fill:#000000; stroke:#000000;" points=" 449 150 459 155 449 160 451 155" /><path style="fill:none; stroke:#000000;stroke-width:1" d="M589.0 58.0 L362.0 58.0 L362.0 119.0" /><polygon style="fill:#000000; stroke:#000000;" points=" 367 109 362 119 357 109 362 111" /><path style="fill:none; stroke:#000000;stroke-width:1" d="M270.0 149.0 L309.0 152.0" /><polygon style="fill:#000000; stroke:#000000;" points=" 299 146 309 152 299 156 301 151" /><path style="fill:none; stroke:#000000;stroke-width:1" d="M840.0 251.0 L900.0 251.0" /><polygon style="fill:#000000; stroke:#000000;" points=" 890 246 900 251 890 256 892 251" /><path style="fill:none; stroke:#000000;stroke-width:1" d="M489.0 206.0 L489.0 251.0 L549.0 251.0" /><polygon style="fill:#000000; stroke:#000000;" points=" 539 246 549 251 539 256 541 251" /><path style="fill:none; stroke:#000000;stroke-width:1" d="M520.0 154.0 L642.0 154.0 L642.0 94.0" /><polygon style="fill:#000000; stroke:#000000;" points=" 637 104 642 94 647 104 642 102" /><path style="fill:none; stroke:#000000;stroke-width:1" d="M656.0 252.0 L779.0 252.0" /><polygon style="fill:#000000; stroke:#000000;" points=" 769 247 779 252 769 257 771 252" /><path style="fill:none; stroke:#000000;stroke-width:1" d="M809.0 193.0 L809.0 58.0 L710.0 58.0 L696.0 58.0" /><polygon style="fill:#000000; stroke:#000000;" points=" 706 63 696 58 706 53 704 58" /><path style="fill:none; stroke:#000000;stroke-width:1" d="M176.0 152.0 L209.0 149.0" /><polygon style="fill:#000000; stroke:#000000;" points=" 199 145 209 149 199 155 201 150" /><path style="fill:none; stroke:#000000;stroke-width:1" d="M239.0 103.0 L239.0 58.0 L165.0 119.0" /><polygon style="fill:#000000; stroke:#000000;" points=" 176 116 165 119 170 109 171 114" /><defs><linearGradient xmlns:xlink="http://www.w3.org/1999/xlink" xlink:href="#linearGradient66FF6696FF96B6FFB6" id="linearGradient66FF6696FF96B6FFB6_1582001013" x1="0" y1="41.0" x2="0" y2="76.0" gradientUnits="userSpaceOnUse" xlink:type="simple" xlink:actuate="onLoad" xlink:show="other" /><linearGradient id="linearGradient66FF6696FF96B6FFB6"><stop style="stop-color:#66FF66;stop-opacity:1;" offset="0.0" id="stop66FF66" /><stop style="stop-color:#96FF96;stop-opacity:1;" offset="0.5" id="stop96FF96" /><stop style="stop-color:#B6FFB6;stop-opacity:1;" offset="1.0" id="stopB6FFB6" /></linearGradient><linearGradient xmlns:xlink="http://www.w3.org/1999/xlink" xlink:href="#linearGradientF8FBFEEDF5FCDEEDFAD4E7F8E2E5E9" id="linearGradientF8FBFEEDF5FCDEEDFAD4E7F8E2E5E9_1351388876" x1="0" y1="120.0" x2="0" y2="226.0" gradientUnits="userSpaceOnUse" xlink:type="simple" xlink:actuate="onLoad" xlink:show="other" /><linearGradient id="linearGradientF8FBFEEDF5FCDEEDFAD4E7F8E2E5E9"><stop style="stop-color:#F8FBFE;stop-opacity:1;" offset="0.0" id="stopF8FBFE" /><stop style="stop-color:#EDF5FC;stop-opacity:1;" offset="0.25" id="stopEDF5FC" /><stop style="stop-color:#DEEDFA;stop-opacity:1;" offset="0.5" id="stopDEEDFA" /><stop style="stop-color:#D4E7F8;stop-opacity:1;" offset="0.75" id="stopD4E7F8" /><stop style="stop-color:#E2E5E9;stop-opacity:1;" offset="1.0" id="stopE2E5E9" /></linearGradient><linearGradient xmlns:xlink="http://www.w3.org/1999/xlink" xlink:href="#linearGradientFF6666FF9696FFB6B6" id="linearGradientFF6666FF9696FFB6B6_1421017093" x1="0" y1="234.0" x2="0" y2="269.0" gradientUnits="userSpaceOnUse" xlink:type="simple" xlink:actuate="onLoad" xlink:show="other" /><linearGradient id="linearGradientFF6666FF9696FFB6B6"><stop style="stop-color:#FF6666;stop-opacity:1;" offset="0.0" id="stopFF6666" /><stop style="stop-color:#FF9696;stop-opacity:1;" offset="0.5" id="stopFF9696" /><stop style="stop-color:#FFB6B6;stop-opacity:1;" offset="1.0" id="stopFFB6B6" /></linearGradient><linearGradient xmlns:xlink="http://www.w3.org/1999/xlink" xlink:href="#linearGradientFAFBFCFFFFCC" id="linearGradientFAFBFCFFFFCC_296846583" x1="0" y1="104.0" x2="0" y2="164.0" gradientUnits="userSpaceOnUse" xlink:type="simple" xlink:actuate="onLoad" xlink:show="other" /><linearGradient id="linearGradientFAFBFCFFFFCC"><stop style="stop-color:#FAFBFC;stop-opacity:1;" offset="0.0" id="stopFAFBFC" /><stop style="stop-color:#FFFFCC;stop-opacity:1;" offset="1.0" id="stopFFFFCC" /></linearGradient><linearGradient xmlns:xlink="http://www.w3.org/1999/xlink" xlink:href="#linearGradientF8FBFEEDF5FCDEEDFAD4E7F8E2E5E9" id="linearGradientF8FBFEEDF5FCDEEDFAD4E7F8E2E5E9_337925495" x1="0" y1="217.0" x2="0" y2="323.0" gradientUnits="userSpaceOnUse" xlink:type="simple" xlink:actuate="onLoad" xlink:show="other" /><linearGradient xmlns:xlink="http://www.w3.org/1999/xlink" xlink:href="#linearGradientFAFBFCFFFFCC" id="linearGradientFAFBFCFFFFCC_552227793" x1="0" y1="194.0" x2="0" y2="254.0" gradientUnits="userSpaceOnUse" xlink:type="simple" xlink:actuate="onLoad" xlink:show="other" /><linearGradient xmlns:xlink="http://www.w3.org/1999/xlink" xlink:href="#linearGradientF8FBFEEDF5FCDEEDFAD4E7F8E2E5E9" id="linearGradientF8FBFEEDF5FCDEEDFAD4E7F8E2E5E9_1821760737" x1="0" y1="24.0" x2="0" y2="130.0" gradientUnits="userSpaceOnUse" xlink:type="simple" xlink:actuate="onLoad" xlink:show="other" /><linearGradient xmlns:xlink="http://www.w3.org/1999/xlink" xlink:href="#linearGradientF8FBFEEDF5FCDEEDFAD4E7F8E2E5E9" id="linearGradientF8FBFEEDF5FCDEEDFAD4E7F8E2E5E9_1906211768" x1="0" y1="120.0" x2="0" y2="226.0" gradientUnits="userSpaceOnUse" xlink:type="simple" xlink:actuate="onLoad" xlink:show="other" /><linearGradient xmlns:xlink="http://www.w3.org/1999/xlink" xlink:href="#linearGradientFAFBFCFFFFCC" id="linearGradientFAFBFCFFFFCC_1202128657" x1="0" y1="104.0" x2="0" y2="164.0" gradientUnits="userSpaceOnUse" xlink:type="simple" xlink:actuate="onLoad" xlink:show="other" /></defs></svg>
