<?xml version="1.0" encoding="UTF-8"?>
<svg xmlns="http://www.w3.org/2000/svg" style="stroke-dasharray:none; shape-rendering:auto; font-family:'Arial'; text-rendering:auto; fill-opacity:1; color-interpolation:auto; color-rendering:auto; font-size:12; fill:black; stroke:black; image-rendering:auto; stroke-miterlimit:10; stroke-linecap:square; stroke-linejoin:miter; font-style:normal; stroke-width:1; stroke-dashoffset:0; font-weight:normal; stroke-opacity:1;" contentScriptType="text/ecmascript" preserveAspectRatio="xMidYMid meet" zoomAndPan="magnify" version="1.0" contentStyleType="text/css" xml:xlink="http://www.w3.org/1999/xlink" width="971" height="317"><rect x="10" y="10" width="961" height="290" ry="0" rx="0" style="stroke:#000000; fill:#FFFFFF" /><rect x="40" y="106" width="931" height="96" ry="0" rx="0" style="stroke:#000000; fill:#ADC9AC" /><g componentSequence="22"><text x="-154" y="47" transform="rotate(270)" text-anchor="middle" style="font-weight:bold;font-size:10px;stroke:none; fill:#434343"><tspan dy="14" x="-154">Gestor</tspan></text></g><rect x="40" y="10" width="931" height="96" ry="0" rx="0" style="stroke:#000000; fill:#82B0B7" /><g componentSequence="7"><text x="-58" y="47" transform="rotate(270)" text-anchor="middle" style="font-weight:bold;font-size:10px;stroke:none; fill:#434343"><tspan dy="14" x="-58">Analista</tspan></text></g><rect x="40" y="202" width="931" height="98" ry="0" rx="0" style="stroke:#000000; fill:#9F9F9F" /><g componentSequence="2"><text x="-251" y="47" transform="rotate(270)" text-anchor="middle" style="font-weight:bold;font-size:10px;stroke:none; fill:#434343"><tspan dy="14" x="-251">Solicitante</tspan></text></g><g componentSequence="1"><text x="-155" y="17" transform="rotate(270)" text-anchor="middle" style="font-weight:bold;font-size:10px;stroke:none; fill:#434343"><tspan dy="14" x="-155">Pool</tspan></text></g><g sequence="4"><ellipse cx="117" cy="58" rx="17" ry="17" stroke-width="1" style="fill:url(#linearGradient66FF6696FF96B6FFB6_1666954265);" stroke="336633" /></g><g sequence="5"><rect x="180" y="120" width="106" height="70" ry="5" rx="5" style="fill:url(#linearGradientF8FBFEEDF5FCDEEDFAD4E7F8E2E5E9_1838958082);" stroke="191970" /></g><g componentSequence="5"><text x="233" y="135" text-anchor="middle" style="font-weight:bold;font-size:10px;stroke:none; fill:#333399"><tspan dy="14" x="233">ANALISA_RELA</tspan><tspan dy="14" x="233">TORIO</tspan></text></g><g sequence="15"><ellipse cx="857" cy="251" rx="17" ry="17" stroke-width="3" style="fill:url(#linearGradientFF6666FF9696FFB6B6_1772347241);" stroke="993333" /></g><g sequence="16"><polygon points=" 350 134 380 104 410 134 380 164 350 134" style="fill:url(#linearGradientFAFBFCFFFFCC_748768313);" stroke="000000" /></g><g componentSequence="16"><text x="380" y="174" text-anchor="middle" style="font-weight:bold;font-size:10px;stroke:none; fill:#333399"><tspan dy="14" x="380">Aprovad</tspan><tspan dy="14" x="380">o?</tspan></text></g><g sequence="23"><rect x="470" y="217" width="106" height="70" ry="5" rx="5" style="fill:url(#linearGradientF8FBFEEDF5FCDEEDFAD4E7F8E2E5E9_316989128);" stroke="191970" /></g><g componentSequence="23"><text x="523" y="232" text-anchor="middle" style="font-weight:bold;font-size:10px;stroke:none; fill:#333399"><tspan dy="14" x="523">REVISA_RELAT</tspan><tspan dy="14" x="523">ORIO</tspan></text></g><g sequence="26"><polygon points=" 680 231 710 201 740 231 710 261 680 231" style="fill:url(#linearGradientFAFBFCFFFFCC_491202240);" stroke="000000" /></g><g componentSequence="26"><text x="710" y="271" text-anchor="middle" style="font-weight:bold;font-size:10px;stroke:none; fill:#333399"><tspan dy="14" x="710">Revisão</tspan><tspan dy="14" x="710">_Aprova</tspan><tspan dy="14" x="710">da?</tspan></text></g><g sequence="30"><rect x="450" y="24" width="105" height="70" ry="5" rx="5" style="fill:url(#linearGradientF8FBFEEDF5FCDEEDFAD4E7F8E2E5E9_1793649302);" stroke="191970" /></g><g componentSequence="30"><text x="502" y="39" text-anchor="middle" style="font-weight:bold;font-size:10px;stroke:none; fill:#333399"><tspan dy="14" x="502">AJUSTA_RELAT</tspan><tspan dy="14" x="502">ORIO</tspan></text></g><g componentSequence="6"><text x="127" y="147" style="font-size:10px;font-weight:none;stroke:none; fill:#333399" text-anchor="left" /></g><g componentSequence="17"><text x="328" y="155" style="font-size:10px;font-weight:none;stroke:none; fill:#333399" text-anchor="left" /></g><g componentSequence="24"><text x="412" y="251" style="font-size:10px;font-weight:none;stroke:none; fill:#333399" text-anchor="left" /></g><g componentSequence="27"><text x="800" y="255" style="font-size:10px;font-weight:none;stroke:none; fill:#333399" text-anchor="left" /></g><g componentSequence="29"><text x="638" y="256" style="font-size:10px;font-weight:none;stroke:none; fill:#333399" text-anchor="left" /></g><g componentSequence="31"><text x="714" y="58" style="font-size:10px;font-weight:none;stroke:none; fill:#333399" text-anchor="left" /></g><g componentSequence="32"><text x="496" y="154" style="font-size:10px;font-weight:none;stroke:none; fill:#333399" text-anchor="left" /></g><g componentSequence="33"><text x="321" y="58" style="font-size:10px;font-weight:none;stroke:none; fill:#333399" text-anchor="left" /></g><path style="fill:none; stroke:#000000;stroke-width:1" d="M117.0 76.0 L117.0 155.0 L179.0 155.0" /><polygon style="fill:#000000; stroke:#000000;" points=" 169 150 179 155 169 160 171 155" /><path style="fill:none; stroke:#000000;stroke-width:1" d="M286.0 155.0 L349.0 155.0" /><polygon style="fill:#000000; stroke:#000000;" points=" 339 150 349 155 339 160 341 155" /><path style="fill:none; stroke:#000000;stroke-width:1" d="M449.0 58.0 L233.0 58.0 L233.0 119.0" /><polygon style="fill:#000000; stroke:#000000;" points=" 238 109 233 119 228 109 233 111" /><path style="fill:none; stroke:#000000;stroke-width:1" d="M740.0 257.0 L840.0 251.0" /><polygon style="fill:#000000; stroke:#000000;" points=" 830 247 840 251 830 257 832 251" /><path style="fill:none; stroke:#000000;stroke-width:1" d="M379.0 206.0 L379.0 251.0 L469.0 251.0" /><polygon style="fill:#000000; stroke:#000000;" points=" 459 246 469 251 459 256 461 251" /><path style="fill:none; stroke:#000000;stroke-width:1" d="M410.0 154.0 L502.0 154.0 L502.0 94.0" /><polygon style="fill:#000000; stroke:#000000;" points=" 497 104 502 94 507 104 502 102" /><path style="fill:none; stroke:#000000;stroke-width:1" d="M576.0 254.0 L679.0 257.0" /><polygon style="fill:#000000; stroke:#000000;" points=" 669 252 679 257 669 262 671 257" /><path style="fill:none; stroke:#000000;stroke-width:1" d="M710.0 200.0 L710.0 58.0 L555.0 58.0" /><polygon style="fill:#000000; stroke:#000000;" points=" 565 63 555 58 565 53 563 58" /><defs><linearGradient xmlns:xlink="http://www.w3.org/1999/xlink" xlink:href="#linearGradient66FF6696FF96B6FFB6" id="linearGradient66FF6696FF96B6FFB6_1666954265" x1="0" y1="41.0" x2="0" y2="76.0" gradientUnits="userSpaceOnUse" xlink:type="simple" xlink:actuate="onLoad" xlink:show="other" /><linearGradient id="linearGradient66FF6696FF96B6FFB6"><stop style="stop-color:#66FF66;stop-opacity:1;" offset="0.0" id="stop66FF66" /><stop style="stop-color:#96FF96;stop-opacity:1;" offset="0.5" id="stop96FF96" /><stop style="stop-color:#B6FFB6;stop-opacity:1;" offset="1.0" id="stopB6FFB6" /></linearGradient><linearGradient xmlns:xlink="http://www.w3.org/1999/xlink" xlink:href="#linearGradientF8FBFEEDF5FCDEEDFAD4E7F8E2E5E9" id="linearGradientF8FBFEEDF5FCDEEDFAD4E7F8E2E5E9_1838958082" x1="0" y1="120.0" x2="0" y2="226.0" gradientUnits="userSpaceOnUse" xlink:type="simple" xlink:actuate="onLoad" xlink:show="other" /><linearGradient id="linearGradientF8FBFEEDF5FCDEEDFAD4E7F8E2E5E9"><stop style="stop-color:#F8FBFE;stop-opacity:1;" offset="0.0" id="stopF8FBFE" /><stop style="stop-color:#EDF5FC;stop-opacity:1;" offset="0.25" id="stopEDF5FC" /><stop style="stop-color:#DEEDFA;stop-opacity:1;" offset="0.5" id="stopDEEDFA" /><stop style="stop-color:#D4E7F8;stop-opacity:1;" offset="0.75" id="stopD4E7F8" /><stop style="stop-color:#E2E5E9;stop-opacity:1;" offset="1.0" id="stopE2E5E9" /></linearGradient><linearGradient xmlns:xlink="http://www.w3.org/1999/xlink" xlink:href="#linearGradientFF6666FF9696FFB6B6" id="linearGradientFF6666FF9696FFB6B6_1772347241" x1="0" y1="234.0" x2="0" y2="269.0" gradientUnits="userSpaceOnUse" xlink:type="simple" xlink:actuate="onLoad" xlink:show="other" /><linearGradient id="linearGradientFF6666FF9696FFB6B6"><stop style="stop-color:#FF6666;stop-opacity:1;" offset="0.0" id="stopFF6666" /><stop style="stop-color:#FF9696;stop-opacity:1;" offset="0.5" id="stopFF9696" /><stop style="stop-color:#FFB6B6;stop-opacity:1;" offset="1.0" id="stopFFB6B6" /></linearGradient><linearGradient xmlns:xlink="http://www.w3.org/1999/xlink" xlink:href="#linearGradientFAFBFCFFFFCC" id="linearGradientFAFBFCFFFFCC_748768313" x1="0" y1="104.0" x2="0" y2="164.0" gradientUnits="userSpaceOnUse" xlink:type="simple" xlink:actuate="onLoad" xlink:show="other" /><linearGradient id="linearGradientFAFBFCFFFFCC"><stop style="stop-color:#FAFBFC;stop-opacity:1;" offset="0.0" id="stopFAFBFC" /><stop style="stop-color:#FFFFCC;stop-opacity:1;" offset="1.0" id="stopFFFFCC" /></linearGradient><linearGradient xmlns:xlink="http://www.w3.org/1999/xlink" xlink:href="#linearGradientF8FBFEEDF5FCDEEDFAD4E7F8E2E5E9" id="linearGradientF8FBFEEDF5FCDEEDFAD4E7F8E2E5E9_316989128" x1="0" y1="217.0" x2="0" y2="323.0" gradientUnits="userSpaceOnUse" xlink:type="simple" xlink:actuate="onLoad" xlink:show="other" /><linearGradient xmlns:xlink="http://www.w3.org/1999/xlink" xlink:href="#linearGradientFAFBFCFFFFCC" id="linearGradientFAFBFCFFFFCC_491202240" x1="0" y1="201.0" x2="0" y2="261.0" gradientUnits="userSpaceOnUse" xlink:type="simple" xlink:actuate="onLoad" xlink:show="other" /><linearGradient xmlns:xlink="http://www.w3.org/1999/xlink" xlink:href="#linearGradientF8FBFEEDF5FCDEEDFAD4E7F8E2E5E9" id="linearGradientF8FBFEEDF5FCDEEDFAD4E7F8E2E5E9_1793649302" x1="0" y1="24.0" x2="0" y2="129.0" gradientUnits="userSpaceOnUse" xlink:type="simple" xlink:actuate="onLoad" xlink:show="other" /></defs></svg>
