<?xml version="1.0" encoding="UTF-8"?>
<svg xmlns="http://www.w3.org/2000/svg" style="stroke-dasharray:none; shape-rendering:auto; font-family:'Arial'; text-rendering:auto; fill-opacity:1; color-interpolation:auto; color-rendering:auto; font-size:12; fill:black; stroke:black; image-rendering:auto; stroke-miterlimit:10; stroke-linecap:square; stroke-linejoin:miter; font-style:normal; stroke-width:1; stroke-dashoffset:0; font-weight:normal; stroke-opacity:1;" contentScriptType="text/ecmascript" preserveAspectRatio="xMidYMid meet" zoomAndPan="magnify" version="1.0" contentStyleType="text/css" xml:xlink="http://www.w3.org/1999/xlink" width="841" height="300"><rect x="10" y="10" width="831" height="290" ry="0" rx="0" style="stroke:#000000; fill:#FFFFFF" /><rect x="40" y="106" width="801" height="96" ry="0" rx="0" style="stroke:#000000; fill:#82B0B7" /><g componentSequence="4"><text x="-154" y="47" transform="rotate(270)" text-anchor="middle" style="font-weight:bold;font-size:10px;stroke:none; fill:#434343"><tspan dy="14" x="-154">Amox</tspan></text></g><rect x="40" y="202" width="801" height="98" ry="0" rx="0" style="stroke:#000000; fill:#C0C0C0" /><g componentSequence="3"><text x="-251" y="47" transform="rotate(270)" text-anchor="middle" style="font-weight:bold;font-size:10px;stroke:none; fill:#434343"><tspan dy="14" x="-251">PCP</tspan></text></g><rect x="40" y="10" width="801" height="96" ry="0" rx="0" style="stroke:#000000; fill:#9F9F9F" /><g componentSequence="2"><text x="-58" y="47" transform="rotate(270)" text-anchor="middle" style="font-weight:bold;font-size:10px;stroke:none; fill:#434343"><tspan dy="14" x="-58">Comercial</tspan></text></g><g componentSequence="1"><text x="-155" y="17" transform="rotate(270)" text-anchor="middle" style="font-weight:bold;font-size:10px;stroke:none; fill:#434343"><tspan dy="14" x="-155">Pool</tspan></text></g><g sequence="4"><ellipse cx="97" cy="58" rx="17" ry="17" stroke-width="1" style="fill:url(#linearGradient66FF6696FF96B6FFB6_1152218558);" stroke="336633" /></g><g sequence="5"><rect x="330" y="120" width="106" height="70" ry="5" rx="5" style="fill:url(#linearGradientF8FBFEEDF5FCDEEDFAD4E7F8E2E5E9_1248498523);" stroke="191970" /></g><g componentSequence="5"><text x="383" y="135" text-anchor="middle" style="font-weight:bold;font-size:10px;stroke:none; fill:#333399"><tspan dy="14" x="383">ANALISA_SOLI</tspan><tspan dy="14" x="383">CITACAO</tspan></text></g><g sequence="8"><polygon points=" 520 127 550 97 580 127 550 157 520 127" style="fill:url(#linearGradientFAFBFCFFFFCC_1314201294);" stroke="000000" /></g><g componentSequence="8"><text x="550" y="167" text-anchor="middle" style="font-weight:bold;font-size:10px;stroke:none; fill:#333399"><tspan dy="14" x="550">APROVA</tspan><tspan dy="14" x="550">_SOLICIT</tspan><tspan dy="14" x="550">ACAO?</tspan></text></g><g sequence="12"><rect x="620" y="217" width="106" height="70" ry="5" rx="5" style="fill:url(#linearGradientF8FBFEEDF5FCDEEDFAD4E7F8E2E5E9_190290272);" stroke="191970" /></g><g componentSequence="12"><text x="673" y="232" text-anchor="middle" style="font-weight:bold;font-size:10px;stroke:none; fill:#333399"><tspan dy="14" x="673">SEPARACAO_A</tspan><tspan dy="14" x="673">LMOX</tspan></text></g><g sequence="14"><ellipse cx="797" cy="251" rx="17" ry="17" stroke-width="3" style="fill:url(#linearGradientFF6666FF9696FFB6B6_620240177);" stroke="993333" /></g><g sequence="17"><rect x="240" y="31" width="106" height="56" ry="5" rx="5" style="fill:url(#linearGradientF8FBFEEDF5FCDEEDFAD4E7F8E2E5E9_974566078);" stroke="191970" /></g><g componentSequence="17"><text x="293" y="48" text-anchor="middle" style="font-weight:bold;font-size:10px;stroke:none; fill:#333399"><tspan dy="14" x="293">SALVAR</tspan></text></g><g sequence="19"><polygon points=" 170 141 200 111 230 141 200 171 170 141" style="fill:url(#linearGradientFAFBFCFFFFCC_1548970076);" stroke="000000" /></g><g componentSequence="19"><text x="200" y="174" text-anchor="middle" style="font-weight:bold;font-size:10px;stroke:none; fill:#333399"><tspan dy="14" x="200">Salvar</tspan></text></g><g componentSequence="9"><text x="488" y="155" style="font-size:10px;font-weight:none;stroke:none; fill:#333399" text-anchor="left" /></g><g componentSequence="13"><text x="576" y="251" style="font-size:10px;font-weight:none;stroke:none; fill:#333399" text-anchor="left" /></g><g componentSequence="15"><text x="763" y="251" style="font-size:10px;font-weight:none;stroke:none; fill:#333399" text-anchor="left" /></g><g componentSequence="16"><text x="738" y="155" style="font-size:10px;font-weight:none;stroke:none; fill:#333399" text-anchor="left" /></g><g componentSequence="20"><text x="210" y="65" style="font-size:10px;font-weight:none;stroke:none; fill:#333399" text-anchor="left" /></g><g componentSequence="21"><text x="290" y="155" style="font-size:10px;font-weight:none;stroke:none; fill:#333399" text-anchor="left" /></g><g componentSequence="22"><text x="107" y="151" style="font-size:10px;font-weight:none;stroke:none; fill:#333399" text-anchor="left" /></g><g componentSequence="23"><text x="290" y="130" style="font-size:10px;font-weight:none;stroke:none; fill:#333399" text-anchor="left" /></g><path style="fill:none; stroke:#000000;stroke-width:1" d="M97.0 76.0 L97.0 154.0 L169.0 154.0" /><polygon style="fill:#000000; stroke:#000000;" points=" 159 149 169 154 159 159 161 154" /><path style="fill:none; stroke:#000000;stroke-width:1" d="M436.0 155.0 L519.0 155.0" /><polygon style="fill:#000000; stroke:#000000;" points=" 509 150 519 155 509 160 511 155" /><path style="fill:none; stroke:#000000;stroke-width:1" d="M230.0 155.0 L329.0 155.0" /><polygon style="fill:#000000; stroke:#000000;" points=" 319 150 329 155 319 160 321 155" /><path style="fill:none; stroke:#000000;stroke-width:1" d="M550.0 213.0 L550.0 251.0 L619.0 251.0" /><polygon style="fill:#000000; stroke:#000000;" points=" 609 246 619 251 609 256 611 251" /><path style="fill:none; stroke:#000000;stroke-width:1" d="M580.0 155.0 L797.0 155.0 L797.0 233.0" /><polygon style="fill:#000000; stroke:#000000;" points=" 802 223 797 233 792 223 797 225" /><path style="fill:none; stroke:#000000;stroke-width:1" d="M726.0 251.0 L780.0 251.0" /><polygon style="fill:#000000; stroke:#000000;" points=" 770 246 780 251 770 256 772 251" /><path style="fill:none; stroke:#000000;stroke-width:1" d="M239.0 59.0 L200.0 59.0 L200.0 110.0" /><polygon style="fill:#000000; stroke:#000000;" points=" 205 100 200 110 195 100 200 102" /><path style="fill:none; stroke:#000000;stroke-width:1" d="M230.0 145.0 L292.0 127.0 L292.0 87.0" /><polygon style="fill:#000000; stroke:#000000;" points=" 287 97 292 87 297 97 292 95" /><defs><linearGradient xmlns:xlink="http://www.w3.org/1999/xlink" xlink:href="#linearGradient66FF6696FF96B6FFB6" id="linearGradient66FF6696FF96B6FFB6_1152218558" x1="0" y1="41.0" x2="0" y2="76.0" gradientUnits="userSpaceOnUse" xlink:type="simple" xlink:actuate="onLoad" xlink:show="other" /><linearGradient id="linearGradient66FF6696FF96B6FFB6"><stop style="stop-color:#66FF66;stop-opacity:1;" offset="0.0" id="stop66FF66" /><stop style="stop-color:#96FF96;stop-opacity:1;" offset="0.5" id="stop96FF96" /><stop style="stop-color:#B6FFB6;stop-opacity:1;" offset="1.0" id="stopB6FFB6" /></linearGradient><linearGradient xmlns:xlink="http://www.w3.org/1999/xlink" xlink:href="#linearGradientF8FBFEEDF5FCDEEDFAD4E7F8E2E5E9" id="linearGradientF8FBFEEDF5FCDEEDFAD4E7F8E2E5E9_1248498523" x1="0" y1="120.0" x2="0" y2="226.0" gradientUnits="userSpaceOnUse" xlink:type="simple" xlink:actuate="onLoad" xlink:show="other" /><linearGradient id="linearGradientF8FBFEEDF5FCDEEDFAD4E7F8E2E5E9"><stop style="stop-color:#F8FBFE;stop-opacity:1;" offset="0.0" id="stopF8FBFE" /><stop style="stop-color:#EDF5FC;stop-opacity:1;" offset="0.25" id="stopEDF5FC" /><stop style="stop-color:#DEEDFA;stop-opacity:1;" offset="0.5" id="stopDEEDFA" /><stop style="stop-color:#D4E7F8;stop-opacity:1;" offset="0.75" id="stopD4E7F8" /><stop style="stop-color:#E2E5E9;stop-opacity:1;" offset="1.0" id="stopE2E5E9" /></linearGradient><linearGradient xmlns:xlink="http://www.w3.org/1999/xlink" xlink:href="#linearGradientFAFBFCFFFFCC" id="linearGradientFAFBFCFFFFCC_1314201294" x1="0" y1="97.0" x2="0" y2="157.0" gradientUnits="userSpaceOnUse" xlink:type="simple" xlink:actuate="onLoad" xlink:show="other" /><linearGradient id="linearGradientFAFBFCFFFFCC"><stop style="stop-color:#FAFBFC;stop-opacity:1;" offset="0.0" id="stopFAFBFC" /><stop style="stop-color:#FFFFCC;stop-opacity:1;" offset="1.0" id="stopFFFFCC" /></linearGradient><linearGradient xmlns:xlink="http://www.w3.org/1999/xlink" xlink:href="#linearGradientF8FBFEEDF5FCDEEDFAD4E7F8E2E5E9" id="linearGradientF8FBFEEDF5FCDEEDFAD4E7F8E2E5E9_190290272" x1="0" y1="217.0" x2="0" y2="323.0" gradientUnits="userSpaceOnUse" xlink:type="simple" xlink:actuate="onLoad" xlink:show="other" /><linearGradient xmlns:xlink="http://www.w3.org/1999/xlink" xlink:href="#linearGradientFF6666FF9696FFB6B6" id="linearGradientFF6666FF9696FFB6B6_620240177" x1="0" y1="234.0" x2="0" y2="269.0" gradientUnits="userSpaceOnUse" xlink:type="simple" xlink:actuate="onLoad" xlink:show="other" /><linearGradient id="linearGradientFF6666FF9696FFB6B6"><stop style="stop-color:#FF6666;stop-opacity:1;" offset="0.0" id="stopFF6666" /><stop style="stop-color:#FF9696;stop-opacity:1;" offset="0.5" id="stopFF9696" /><stop style="stop-color:#FFB6B6;stop-opacity:1;" offset="1.0" id="stopFFB6B6" /></linearGradient><linearGradient xmlns:xlink="http://www.w3.org/1999/xlink" xlink:href="#linearGradientF8FBFEEDF5FCDEEDFAD4E7F8E2E5E9" id="linearGradientF8FBFEEDF5FCDEEDFAD4E7F8E2E5E9_974566078" x1="0" y1="31.0" x2="0" y2="137.0" gradientUnits="userSpaceOnUse" xlink:type="simple" xlink:actuate="onLoad" xlink:show="other" /><linearGradient xmlns:xlink="http://www.w3.org/1999/xlink" xlink:href="#linearGradientFAFBFCFFFFCC" id="linearGradientFAFBFCFFFFCC_1548970076" x1="0" y1="111.0" x2="0" y2="171.0" gradientUnits="userSpaceOnUse" xlink:type="simple" xlink:actuate="onLoad" xlink:show="other" /></defs></svg>
